<?xml version="1.0" standalone="no"?>
<!DOCTYPE svg PUBLIC "-//W3C//DTD SVG 1.1//EN" "http://www.w3.org/Graphics/SVG/1.1/DTD/svg11.dtd" >
<svg xmlns="http://www.w3.org/2000/svg">
<metadata>
Created by FontPrep 20130207 at Tue Dec  1 12:15:24 2015
 By Greg Greenhaw
(c) 2015 Apple Inc. All rights reserved.
</metadata>
<defs>
<font id="333eec57c0d5f2d3d8ed2fab2d2f14e0" horiz-adv-x='1024' >
  <font-face 
    font-family=".HelveticaNeueDeskInterface-Italic"
    font-weight="400"
    font-style="italic"
    font-stretch="normal"
    units-per-em="2048"
    panose-1="0 0 5 0 0 0 0 0 0 0"
    ascent="1638"
    descent="-410"
    x-height="1078"
    cap-height="1443"
    bbox="-534 -573 2927 2173"
    underline-thickness="50"
    underline-position="-25"
    slope="-12"
    unicode-range="U+0020-FB02"
  />
<missing-glyph horiz-adv-x="1293" 
d="M778 1031q62 0 100 -30.5t38 -74.5t-27 -70t-98 -67q-116 -67 -155.5 -114.5t-49.5 -121.5l-6 -42h150l7 39q8 44 33 68t97 65q123 71 167 125t44 114q0 114 -81.5 178t-214.5 64q-132 0 -216 -69t-92 -187h152q9 57 49.5 90t102.5 33zM519 304q0 -46 31.5 -73.5
t81.5 -27.5t82.5 28.5t32.5 74.5t-31.5 74.5t-82.5 28.5t-82.5 -29.5t-31.5 -75.5zM350 1365h1053l-290 -1365h-1053z" />
    <glyph glyph-name=".notdef" horiz-adv-x="1293" 
d="M778 1031q62 0 100 -30.5t38 -74.5t-27 -70t-98 -67q-116 -67 -155.5 -114.5t-49.5 -121.5l-6 -42h150l7 39q8 44 33 68t97 65q123 71 167 125t44 114q0 114 -81.5 178t-214.5 64q-132 0 -216 -69t-92 -187h152q9 57 49.5 90t102.5 33zM519 304q0 -46 31.5 -73.5
t81.5 -27.5t82.5 28.5t32.5 74.5t-31.5 74.5t-82.5 28.5t-82.5 -29.5t-31.5 -75.5zM350 1365h1053l-290 -1365h-1053z" />
    <glyph glyph-name=".null" 
 />
    <glyph glyph-name="nonmarkingreturn" 
 />
    <glyph glyph-name="space" unicode=" " horiz-adv-x="578" 
 />
    <glyph glyph-name="exclam" unicode="!" horiz-adv-x="636" 
d="M284 -18q-30 0 -55.5 10.5t-44 29.5t-29 44t-10.5 55t10.5 55.5t29 44.5t44 29.5t55.5 10.5t55.5 -10.5t44 -29.5t28.5 -44.5t10 -55.5t-10 -55t-28.5 -44t-44 -29.5t-55.5 -10.5zM663 1444l-222 -964h-166l188 964h200z" />
    <glyph glyph-name="quotedbl" unicode="&#x22;" horiz-adv-x="895" 
d="M688 904l115 539h160l-115 -539h-160zM311 904l115 539h160l-115 -539h-160z" />
    <glyph glyph-name="numbersign" unicode="#" horiz-adv-x="1296" 
d="M520 554h301l145 349h-302zM1115 901l-144 -344h212l-59 -144h-212l-172 -413h-152l173 413h-299l-172 -413h-151l172 413h-212l61 144h212l143 344h-212l59 143h212l167 399h151l-166 -399h298l167 399h152l-168 -399h212l-60 -143h-212z" />
    <glyph glyph-name="dollar" unicode="$" horiz-adv-x="1328" 
d="M1203 388q0 -84 -39 -165t-146.5 -169t-334.5 -88h-15l-23 -108h-134l27 126q-159 39 -263 149.5t-112 256.5h182q14 -94 73.5 -156.5t153.5 -88.5l113 533l-51 21q-293 121 -293 367q0 179 138.5 294.5t365.5 115.5h10l26 124h134l-30 -142q146 -38 237.5 -146.5
t93.5 -243.5h-181q-28 173 -185 226l-104 -491q268 -111 312.5 -221t44.5 -194zM531 1060q0 -119 192 -204l97 457q-125 0 -207 -67t-82 -186zM962.5 522.5q-49.5 55.5 -154.5 103.5l-105 -497q143 2 226 71.5t83 168.5q0 98 -49.5 153.5z" />
    <glyph glyph-name="percent" unicode="%" horiz-adv-x="1610" 
d="M1039 19q-105 44 -105 269q0 150 102.5 267.5t235.5 117.5t207.5 -81t74.5 -231t-103 -268t-241 -118q-66 0 -171 44zM1286 544q-84 0 -139 -81.5t-55 -174.5t33 -138.5t79 -45.5q83 0 137.5 82.5t54.5 176.5t-32 137.5t-78 43.5zM336 851.5q-74 81.5 -74 231.5
t102.5 267.5t235.5 117.5t207.5 -81t74.5 -231t-103 -268t-236 -118t-207 81.5zM130 0l1364 1443h188l-1362 -1443h-190zM614 1339q-84 0 -139 -81.5t-55 -174.5t33 -138.5t79 -45.5q83 0 137.5 82.5t54.5 176.5t-32 137.5t-78 43.5z" />
    <glyph glyph-name="ampersand" unicode="&#x26;" horiz-adv-x="1457" 
d="M112 362q0 156 92.5 264.5t282.5 182.5l62 24q-116 169 -116 302t115 237.5t275 104.5t259 -82t99 -245t-145.5 -253t-249.5 -125l291 -427q120 137 137 363l4 54h168l-5 -61q-24 -294 -212 -493l139 -208h-213l-62 96q-177 -123 -433 -123q-203 0 -345.5 116.5
t-142.5 272.5zM570 691q-278 -103 -278 -312q0 -105 85.5 -180t213.5 -75q221 0 358 101l-322 487zM1010 1173q0 74 -51 117t-115 43q-110 0 -174.5 -63.5t-64.5 -153.5q0 -89 104 -231q225 67 263 158.5t38 129.5z" />
    <glyph glyph-name="quotesingle" unicode="'" horiz-adv-x="518" 
d="M311 904l115 539h160l-115 -539h-160z" />
    <glyph glyph-name="parenleft" unicode="(" horiz-adv-x="728" 
d="M305 -277q-113 250 -113 646q0 116 30 269.5t117.5 374t297.5 430.5h192q-338 -350 -400 -655.5t-62 -460.5q0 -320 92 -604h-154z" />
    <glyph glyph-name="parenright" unicode=")" horiz-adv-x="728" 
d="M550 1443q113 -251 113 -647q0 -116 -29.5 -269t-117 -373.5t-297.5 -430.5h-192q337 349 399 655t62 461q0 320 -92 604h154z" />
    <glyph glyph-name="asterisk" unicode="*" horiz-adv-x="1032" 
d="M709 920l-52 -323l-144 12l85 322l-309 -154l-46 135l319 121l-257 171l101 122l233 -202l53 325l144 -12l-85 -323l309 154l45 -134l-318 -121l256 -171l-100 -123z" />
    <glyph glyph-name="plus" unicode="+" horiz-adv-x="1328" 
d="M695 71h-152l93 435h-433l33 148h431l92 435h152l-92 -435h433l-33 -148h-431z" />
    <glyph glyph-name="comma" unicode="," horiz-adv-x="628" 
d="M50 -367l217 569h202l-269 -569h-150z" />
    <glyph glyph-name="hyphen" unicode="-" horiz-adv-x="966" 
d="M201 499l35 163h656l-35 -163h-656z" />
    <glyph glyph-name="period" unicode="." horiz-adv-x="608" 
d="M244 -10q-27 0 -50.5 10.5t-41 28t-28 41t-10.5 50.5t10.5 50.5t28 41.5t41 28t50.5 10t50.5 -10t41.5 -28t28 -41.5t10 -50.5t-10 -50.5t-28 -41t-41.5 -28t-50.5 -10.5z" />
    <glyph glyph-name="slash" unicode="/" horiz-adv-x="712" 
d="M-69 -325l816 1768h154l-818 -1768h-152z" />
    <glyph glyph-name="zero" unicode="0" horiz-adv-x="1290" 
d="M383 500q0 -185 70 -280.5t193 -95.5q124 0 258.5 144t169 359t34.5 314q0 184 -69 280.5t-190 96.5q-188 0 -301.5 -201.5t-139 -360t-25.5 -256.5zM628 -34q-192 0 -308.5 140.5t-116.5 375.5q0 421 157.5 656t283.5 287t220 52q191 0 307.5 -142.5t116.5 -377.5
q0 -426 -156.5 -657.5t-283 -282.5t-220.5 -51z" />
    <glyph glyph-name="one" unicode="1" horiz-adv-x="955" 
d="M706 1223h-16l-423 -262l44 206l443 276h179l-307 -1443h-180z" />
    <glyph glyph-name="two" unicode="2" horiz-adv-x="1237" 
d="M308 1067q20 181 159 295.5t331 114.5t316 -105t124 -261q0 -122 -85 -238.5t-320 -321.5l-426 -373l-4 -16h702l-34 -162h-970l29 139l615 545q192 170 237.5 230.5t58 97t12.5 82.5q0 95 -73.5 160.5t-189.5 65.5t-200.5 -69t-104.5 -184v-1h-9h-43z" />
    <glyph glyph-name="three" unicode="3" horiz-adv-x="1284" 
d="M163 352q0 16 2 32h174v-8q0 -112 89.5 -182.5t240.5 -70.5t245.5 83t94.5 224q0 105 -87.5 170t-223.5 65h-156l32 154h209q130 0 220 82.5t90 190.5t-74.5 167.5t-186.5 59.5q-113 0 -198 -62t-115 -161h-177q36 170 173 275.5t325 105.5t314 -100.5t126 -248.5
q0 -149 -90.5 -251t-239.5 -132l-3 -16q119 -26 183 -100.5t64 -184.5q0 -214 -152.5 -346t-374.5 -132q-223 0 -363.5 112.5t-140.5 273.5z" />
    <glyph glyph-name="four" unicode="4" horiz-adv-x="1318" 
d="M339 459h520l173 817h-12q-317 -357 -679 -805zM824 299h-703l27 171q277 357 821 973h274l-209 -983h205l-34 -161h-205l-64 -299h-176z" />
    <glyph glyph-name="five" unicode="5" horiz-adv-x="1267" 
d="M1199 527q0 -247 -149 -404t-397 -157q-202 0 -339.5 113t-137.5 279q0 18 2 28h178v-7q0 -113 84 -184t231 -71t245 106.5t98 255.5t-82.5 226t-208.5 77q-182 0 -292 -129h-178l244 783h796l-35 -161h-646l-133 -437l16 -2q111 97 282 97q172 0 297 -117.5t125 -295.5z
" />
    <glyph glyph-name="six" unicode="6" horiz-adv-x="1305" 
d="M465.5 654.5q-80.5 -80.5 -80.5 -224.5t83 -224t226 -80q144 0 249.5 113t105.5 277q0 123 -79.5 200.5t-215.5 77.5q-70 0 -139 -29.5t-149.5 -110zM1236 522q0 -106 -43 -210t-162.5 -225t-346.5 -121t-356.5 141.5t-129.5 383.5q0 372 170 666q91 156 223 238t307 82
t303.5 -112.5t136.5 -285.5h-186q-10 109 -87.5 173.5t-197.5 64.5q-167 0 -285.5 -143t-176.5 -415l16 -2q69 92 169 141.5t204 49.5t184 -30t137 -84.5t89 -130t32 -181.5z" />
    <glyph glyph-name="seven" unicode="7" horiz-adv-x="1167" 
d="M1067 1266l3 16h-737l35 161h925l-36 -167l-913 -1276h-197z" />
    <glyph glyph-name="eight" unicode="8" horiz-adv-x="1308" 
d="M609 888.5q76 -60.5 204 -60.5q127 0 213.5 79t86.5 188t-76 168t-205 59t-214 -77.5t-85 -186.5t76 -169.5zM335 379q0 -125 88.5 -191.5t242.5 -66.5t255.5 86t101.5 209q0 124 -91.5 194t-239.5 70q-154 0 -255.5 -88t-101.5 -213zM1206 430q0 -204 -155.5 -334
t-387.5 -130q-231 0 -373.5 106.5t-142.5 273.5t110.5 288t276.5 137l4 16q-86 42 -133.5 113.5t-47.5 159.5q0 179 140.5 298t341.5 119t329 -100.5t128 -244.5t-87.5 -247.5t-230.5 -131.5l-4 -16q109 -42 170.5 -123.5t61.5 -183.5z" />
    <glyph glyph-name="nine" unicode="9" horiz-adv-x="1306" 
d="M256 923q0 106 43 210t162 224t347 120t357 -141t129 -382q0 -376 -170 -670q-91 -156 -223 -237t-308 -81t-303.5 111t-135.5 285h186q10 -109 87 -172.5t198 -63.5q167 0 285.5 143t176.5 415l-16 2q-69 -92 -169 -141.5t-205 -49.5t-184 30.5t-136 85t-89 130.5
t-32 182zM1107 1016q0 144 -82.5 222.5t-227.5 78.5q-144 0 -249 -112.5t-105 -275.5q0 -124 80.5 -202t214.5 -78q151 0 260 111.5t109 255.5z" />
    <glyph glyph-name="colon" unicode=":" horiz-adv-x="608" 
d="M405 759q-27 0 -50.5 10.5t-41 28t-28 41t-10.5 50.5t10.5 50.5t28 41.5t41 28t50.5 10t50.5 -10t41.5 -28t28 -41.5t10 -50.5t-10 -50.5t-28 -41t-41.5 -28t-50.5 -10.5zM244 -10q-27 0 -50.5 10.5t-41 28t-28 41t-10.5 50.5t10.5 50.5t28 41.5t41 28t50.5 10t50.5 -10
t41.5 -28t28 -41.5t10 -50.5t-10 -50.5t-28 -41t-41.5 -28t-50.5 -10.5z" />
    <glyph glyph-name="semicolon" unicode=";" horiz-adv-x="608" 
d="M405 759q-27 0 -50.5 10.5t-41 28t-28 41t-10.5 50.5t10.5 50.5t28 41.5t41 28t50.5 10t50.5 -10t41.5 -28t28 -41.5t10 -50.5t-10 -50.5t-28 -41t-41.5 -28t-50.5 -10.5zM-24 -367l217 569h202l-269 -569h-150z" />
    <glyph glyph-name="less" unicode="&#x3c;" horiz-adv-x="1328" 
d="M1047 -21l-771 585l30 142l988 433l-40 -188l-790 -327l-3 -16l625 -445z" />
    <glyph glyph-name="equal" unicode="=" horiz-adv-x="1329" 
d="M249 700l32 149h1008l-32 -149h-1008zM167 312l32 149h1008l-32 -149h-1008z" />
    <glyph glyph-name="greater" unicode="&#x3e;" horiz-adv-x="1328" 
d="M399 1139l771 -585l-30 -142l-988 -433l40 188l790 327l3 16l-625 445z" />
    <glyph glyph-name="question" unicode="?" horiz-adv-x="1050" 
d="M456 -18q-60 0 -99.5 39t-39.5 85t10.5 71.5t29 44t44 29t70.5 10.5t84 -39t39 -85t-10 -71.5t-39 -54.5t-89 -29zM708 1456q184 0 300 -96t116 -228t-80 -239t-199 -160t-165 -101t-60 -126l-11 -60h-179l18 82q27 124 87 188.5t177 117.5q117 54 169 119.5t52 149.5
t-62.5 140t-168.5 56q-107 0 -179.5 -55t-101.5 -155h-174q51 261 208.5 314t252.5 53z" />
    <glyph glyph-name="at" unicode="@" horiz-adv-x="1880" 
d="M1229 818q-54 60 -125 60q-125 0 -201.5 -103.5t-76.5 -253.5q0 -94 50 -149t120 -55t120 27t108.5 100.5t58.5 193.5t-54 180zM664 508q0 216 119 363t291 147q88 0 158 -46.5t86 -116.5h16l26 124h157l-131 -603q-4 -24 -4 -31q0 -91 110 -91t201 160t91 378t-177 369
t-448 151q-212 0 -439.5 -138t-283.5 -349t-56 -337t51 -239.5t194.5 -239t459.5 -125.5q142 0 215 25l-27 -126q-108 -25 -259 -25q-150 0 -296 54t-252 150t-165 229t-59 281t31.5 272.5t121 285t301.5 284.5t478 124q317 0 475 -137.5t215 -256.5t57 -326.5t-135.5 -399
t-333.5 -191.5q-93 0 -155 49t-62 123l1 16l-16 1q-78 -138 -232 -138q-153 0 -238.5 89.5t-85.5 240.5z" />
    <glyph glyph-name="A" unicode="A" horiz-adv-x="1380" 
d="M522 566h473l-95 641h-16zM1015 413h-579l-232 -413h-193l845 1443h167l226 -1443h-176z" />
    <glyph glyph-name="B" unicode="B" horiz-adv-x="1346" 
d="M707 159q160 0 266 81.5t106 202.5q0 223 -296 223h-335l-108 -507h367zM1150 1088q0 196 -288 196h-283l-98 -463h298q164 0 267.5 74t103.5 193zM931 1443q185 0 295.5 -86.5t110.5 -227.5t-86 -241.5t-226 -130.5l-4 -16q115 -20 182 -95t67 -182q0 -206 -156.5 -335
t-400.5 -129h-590l307 1443h501z" />
    <glyph glyph-name="C" unicode="C" horiz-adv-x="1463" 
d="M388 573q0 -204 106 -322t287 -118q227 0 308 95.5t101 151.5h190q-54 -193 -219 -303.5t-409 -110.5t-397.5 161t-153.5 493.5t177.5 547t326 262t261.5 47.5q231 0 386 -136t155 -343v-6h-183v2q-12 145 -113 230.5t-281 85.5q-100 0 -202.5 -56.5t-221 -212.5
t-118.5 -468z" />
    <glyph glyph-name="D" unicode="D" horiz-adv-x="1486" 
d="M723 160q238 0 395.5 183.5t157.5 459.5q0 227 -120.5 353.5t-336.5 126.5h-239l-239 -1123h382zM833 1443q300 0 464.5 -168t164.5 -463q0 -347 -176 -537.5t-320.5 -232.5t-249.5 -42h-591l305 1443h403z" />
    <glyph glyph-name="E" unicode="E" horiz-adv-x="1219" 
d="M1019 0h-896l307 1443h896l-35 -162h-711l-100 -463h675l-34 -160h-674l-106 -496h712z" />
    <glyph glyph-name="F" unicode="F" horiz-adv-x="1170" 
d="M123 0l307 1443h878l-35 -162h-693l-107 -496h637l-34 -160h-637l-131 -625h-185z" />
    <glyph glyph-name="G" unicode="G" horiz-adv-x="1525" 
d="M202 562q0 396 177 609t325.5 259.5t259.5 46.5q224 0 376.5 -126t166.5 -323q1 -6 1 -8v-28h-183q-10 145 -112 231.5t-264 86.5q-237 0 -398.5 -209.5t-161.5 -519.5q0 -208 110.5 -328t292.5 -120t308 106.5t162 283.5l11 55h-400l34 158h584l-42 -196
q-60 -281 -232.5 -427.5t-434.5 -146.5t-421 164t-159 432z" />
    <glyph glyph-name="H" unicode="H" horiz-adv-x="1522" 
d="M1094 0l140 657h-788l-140 -657h-183l307 1443h184l-133 -624h788l133 624h184l-307 -1443h-185z" />
    <glyph glyph-name="I" unicode="I" horiz-adv-x="550" 
d="M123 0l307 1443h184l-307 -1443h-184z" />
    <glyph glyph-name="J" unicode="J" horiz-adv-x="1102" 
d="M500 135q208 0 265 269l221 1039h179l-228 -1080q-40 -189 -156.5 -293t-296.5 -104t-289 106t-99 265h181q3 -144 87.5 -173t135.5 -29z" />
    <glyph glyph-name="K" unicode="K" horiz-adv-x="1349" 
d="M123 0l307 1443h179l-149 -701h16l772 701h235l-702 -635l449 -808h-210l-381 697l-229 -204l-107 -493h-180z" />
    <glyph glyph-name="L" unicode="L" horiz-adv-x="1164" 
d="M1001 0h-878l307 1443h184l-273 -1281h694z" />
    <glyph glyph-name="M" unicode="M" horiz-adv-x="1792" 
d="M123 0l307 1443h200l242 -1194h16l746 1194h222l-307 -1443h-172l234 1102h-12l-685 -1092h-152l-221 1092h-12l-234 -1102h-172z" />
    <glyph glyph-name="N" unicode="N" horiz-adv-x="1520" 
d="M123 0l307 1443h177l534 -1153h16l245 1153h182l-307 -1443h-179l-533 1150h-16l-244 -1150h-182z" />
    <glyph glyph-name="O" unicode="O" horiz-adv-x="1579" 
d="M1374 834q0 229 -112.5 352.5t-293.5 123.5q-123 0 -229 -55.5t-227 -210.5t-121 -465q0 -200 113.5 -323t296.5 -123q248 0 367.5 152t162.5 286t43 263zM201 563q0 394 222 654t566 260q119 0 226 -45t228 -169t121 -383q0 -397 -220 -655.5t-564 -258.5
q-120 0 -227.5 45t-229.5 169.5t-122 382.5z" />
    <glyph glyph-name="P" unicode="P" horiz-adv-x="1304" 
d="M765 675q181 0 289.5 95t108.5 267q0 116 -77.5 181t-211.5 65h-294l-130 -608h315zM937 1443q176 0 295 -107.5t119 -282.5q0 -247 -163.5 -392.5t-411.5 -145.5h-360l-109 -515h-184l307 1443h507z" />
    <glyph glyph-name="Q" unicode="Q" horiz-adv-x="1579" 
d="M504 255.5q113 -122.5 290 -122.5q85 0 148 18l-136 262h194l96 -186q200 142 239 337.5t39 297.5q0 201 -112.5 324.5t-293.5 123.5q-123 0 -228.5 -55.5t-227 -209t-121.5 -466.5q0 -201 113 -323.5zM788 -34q-253 0 -420 169t-167 428q0 395 223 654.5t558 259.5
q252 0 417 -168.5t165 -428.5q0 -404 -149 -575.5t-241 -229.5l123 -238h-192l-85 164q-105 -35 -232 -35z" />
    <glyph glyph-name="R" unicode="R" horiz-adv-x="1338" 
d="M810 731q159 0 259.5 87.5t100.5 225.5q0 168 -94.5 203.5t-151.5 35.5h-344l-118 -552h348zM929 1443q196 0 313.5 -104t117.5 -275t-106 -297t-281 -168l207 -599h-196l-188 571h-368l-121 -571h-184l307 1443h499z" />
    <glyph glyph-name="S" unicode="S" horiz-adv-x="1276" 
d="M915.5 199.5q92.5 70.5 92.5 172.5t-62 163t-201 110l-137 48q-148 52 -229.5 148.5t-81.5 203.5q0 196 146 314t357 118t353.5 -117.5t158.5 -302.5h-181q-28 122 -116 189.5t-221 67.5t-220 -66.5t-87 -156.5q0 -89 56.5 -146t175.5 -100l130 -47q350 -128 350 -372
q0 -213 -150.5 -336.5t-381.5 -123.5t-374.5 116t-173.5 318h182q26 -126 127 -198.5t248 -72.5t239.5 70.5z" />
    <glyph glyph-name="T" unicode="T" horiz-adv-x="1291" 
d="M494 0l272 1281h-463l34 162h1110l-34 -162h-463l-272 -1281h-184z" />
    <glyph glyph-name="U" unicode="U" horiz-adv-x="1524" 
d="M742 -34q-243 0 -399 150t-97 428l188 899h184l-186 -887q-33 -144 25.5 -284t310.5 -140q161 0 277 95t152 264l203 952h184l-210 -987q-77 -359 -290 -424.5t-342 -65.5z" />
    <glyph glyph-name="V" unicode="V" horiz-adv-x="1380" 
d="M542 0l-226 1443h170l186 -1204h16l671 1204h199l-838 -1443h-178z" />
    <glyph glyph-name="W" unicode="W" horiz-adv-x="1982" 
d="M601 0h-177l-87 1443h165l58 -1173h12l572 1173h162l94 -1173h12l541 1173h186l-692 -1443h-177l-97 1139h-12z" />
    <glyph glyph-name="X" unicode="X" horiz-adv-x="1390" 
d="M686 752l-323 691h206l249 -574h16l508 574h205l-649 -727l332 -716h-194l-268 586h-16l-517 -586h-204z" />
    <glyph glyph-name="Y" unicode="Y" horiz-adv-x="1344" 
d="M521 0l132 621l-336 822h187l268 -649h16l526 649h207l-692 -848l-124 -595h-184z" />
    <glyph glyph-name="Z" unicode="Z" horiz-adv-x="1355" 
d="M111 128l1048 1137l4 16h-779l34 162h1022l-27 -128l-1045 -1137l-3 -16h820l-34 -162h-1067z" />
    <glyph glyph-name="bracketleft" unicode="[" horiz-adv-x="758" 
d="M893 1444l-29 -136h-284l-300 -1413h296l-29 -135h-464l358 1684h452z" />
    <glyph glyph-name="backslash" unicode="\" horiz-adv-x="712" 
d="M311 1443h144l64 -1768h-142z" />
    <glyph glyph-name="bracketright" unicode="]" horiz-adv-x="758" 
d="M453 -240h-452l29 136h284l300 1413h-296l29 134h464z" />
    <glyph glyph-name="asciicircum" unicode="^" horiz-adv-x="828" 
d="M337 815h-169l396 609h184l138 -609h-161l-88 463h-16z" />
    <glyph glyph-name="underscore" unicode="_" horiz-adv-x="916" 
d="M-120 -235l27 128h936l-27 -128h-936z" />
    <glyph glyph-name="grave" unicode="`" horiz-adv-x="1094" 
d="M800 1263l-206 338h214l180 -338h-188z" />
    <glyph glyph-name="a" unicode="a" horiz-adv-x="1126" 
d="M668 943q-186 0 -239 -135h-182q36 133 153 211t289 78t278.5 -82.5t106.5 -219.5q0 -43 -9 -88l-150 -707h-167l30 141h-16q-57 -75 -142 -117.5t-170 -42.5q-154 0 -249 85.5t-95 212.5q0 242 176.5 295t288.5 58l306 14l16 73q6 34 6 51q0 82 -61 127.5t-170 45.5z
M703.5 201q93.5 71 117.5 182l27 124l-287 -14q-133 -7 -205.5 -58.5t-72.5 -130.5t58 -126.5t163 -47.5q106 0 199.5 71z" />
    <glyph glyph-name="b" unicode="b" horiz-adv-x="1259" 
d="M1038 654q0 137 -68 212.5t-191 75.5q-167 0 -282 -147t-115 -361q0 -137 73 -217.5t207 -80.5q72 0 143 39.5t152 147t81 331.5zM836 1097q163 0 272.5 -118.5t109.5 -282.5q0 -312 -160 -513.5t-392 -201.5q-113 0 -206 61t-125 157h-16l-44 -199h-165l320 1506h172
l-120 -575h16q123 166 338 166z" />
    <glyph glyph-name="c" unicode="c" horiz-adv-x="1135" 
d="M696 942q-66 0 -134 -37t-146.5 -138.5t-78.5 -305.5q0 -149 72.5 -236t184.5 -87q223 0 288 170h179q-34 -147 -162.5 -237t-316.5 -90t-307 125.5t-119 331.5q0 285 161.5 472t407.5 187q159 0 281.5 -90.5t129 -168.5l7.5 -90h-176q-8 83 -80.5 138.5t-190.5 55.5z
" />
    <glyph glyph-name="d" unicode="d" horiz-adv-x="1265" 
d="M993 644q0 137 -73 217.5t-198 80.5q-167 0 -278 -141t-111 -357q0 -137 74 -222.5t205 -85.5q72 0 143.5 39.5t154.5 147t83 321.5zM556 -19q-177 0 -290 120.5t-113 316.5q0 291 160.5 485t395.5 194q115 0 204.5 -60t118.5 -158h16l133 627h175l-320 -1506h-166
l31 147h-16q-59 -77 -148 -121.5t-181 -44.5z" />
    <glyph glyph-name="e" unicode="e" horiz-adv-x="1176" 
d="M948 692q0 103 -64.5 178t-184.5 75t-209.5 -83t-128.5 -224h585q2 10 2 54zM157 432q0 296 156 480.5t405 184.5q173 0 291.5 -117t118.5 -319q0 -97 -13 -162h-777q-2 -29 -2 -83t46 -166t233 -112q188 0 262 137h183q-36 -131 -159 -212.5t-309 -81.5t-310.5 120.5
t-124.5 330.5z" />
    <glyph glyph-name="f" unicode="f" horiz-adv-x="741" 
d="M774 1351q-149 0 -181 -173l-19 -100h245l-30 -144h-245l-194 -934h-176l194 934h-179l30 144h179l20 105q60 313 353 313q81 0 143 -10l-29 -144q-38 9 -111 9z" />
    <glyph glyph-name="g" unicode="g" horiz-adv-x="1247" 
d="M614 168q71 0 141 34.5t150 132.5t80 309q0 137 -75 217.5t-202 80.5q-163 0 -266 -128t-103 -341q0 -143 71 -224t204 -81zM159 447q0 285 153 467.5t383 182.5q114 0 209.5 -61.5t127.5 -156.5h16l42 199h167l-244 -1130q-36 -168 -170 -264.5t-328 -96.5t-316.5 89.5
t-132.5 217.5h183q20 -108 114.5 -133t160.5 -25q132 0 214.5 65.5t107.5 176.5l47 200h-16q-117 -162 -326 -162q-167 0 -279.5 121t-112.5 310z" />
    <glyph glyph-name="h" unicode="h" horiz-adv-x="1236" 
d="M829 1097q154 0 250 -96t96 -228q0 -56 -14 -124l-138 -649h-175l132 619q13 63 13 108q0 96 -64.5 155.5t-180.5 59.5t-206 -79.5t-117 -204.5l-140 -658h-175l322 1506h175l-127 -589h16q125 180 333 180z" />
    <glyph glyph-name="i" unicode="i" horiz-adv-x="516" 
d="M499 1297q-25 0 -46.5 9.5t-38 26t-26 38t-9.5 46.5t9.5 46.5t26 38t38 26t46.5 9.5t46.5 -9.5t38 -26t26 -38t9.5 -46.5t-9.5 -46.5t-26 -38t-38 -26t-46.5 -9.5zM341 1078h176l-231 -1078h-176z" />
    <glyph glyph-name="j" unicode="j" horiz-adv-x="516" 
d="M499 1297q-25 0 -46.5 9.5t-38 26t-26 38t-9.5 46.5t9.5 46.5t26 38t38 26t46.5 9.5t46.5 -9.5t38 -26t26 -38t9.5 -46.5t-9.5 -46.5t-26 -38t-38 -26t-46.5 -9.5zM95 -84l247 1162h172l-252 -1185q-47 -224 -160 -257.5t-168 -33.5t-98 4l33 152q24 -3 76 -3
q118 0 150 161z" />
    <glyph glyph-name="k" unicode="k" horiz-adv-x="1086" 
d="M981 1078h227l-565 -465l363 -613h-201l-301 516l-130 -94l-90 -422h-174l320 1506h174l-185 -870h16z" />
    <glyph glyph-name="l" unicode="l" horiz-adv-x="516" 
d="M430 1506h176l-320 -1506h-176z" />
    <glyph glyph-name="m" unicode="m" horiz-adv-x="1782" 
d="M782 1097q104 0 181 -58t97 -139h16q84 136 184 166.5t164 30.5q129 0 216 -83t87 -211q0 -56 -14 -124l-144 -679h-175l138 649q13 63 13 103q0 82 -52 136t-146 54t-175 -72.5t-106 -193.5l-144 -676h-175l138 649q13 63 13 103q0 82 -52 136t-145 54t-174.5 -71
t-105.5 -183l-146 -688h-175l229 1078h167l-35 -166h16q70 127 161.5 156t143.5 29z" />
    <glyph glyph-name="n" unicode="n" horiz-adv-x="1218" 
d="M815 1097q152 0 247 -96.5t95 -227.5q0 -56 -14 -124l-138 -649h-175l132 619q13 63 13 108q0 96 -63.5 155.5t-177.5 59.5t-203.5 -80t-115.5 -204l-140 -658h-175l229 1078h167l-34 -161h16q125 180 337 180z" />
    <glyph glyph-name="o" unicode="o" horiz-adv-x="1212" 
d="M155 427q0 283 155.5 476.5t416.5 193.5q197 0 318 -124.5t121 -319.5q0 -273 -153 -472.5t-421 -199.5q-192 0 -314.5 124.5t-122.5 321.5zM338 468q0 -156 75 -244t213 -88t247 136t109 340q0 236 -104 283t-179 47t-144 -37.5t-117.5 -103.5t-74 -156.5t-25.5 -176.5z
" />
    <glyph glyph-name="p" unicode="p" horiz-adv-x="1254" 
d="M844 1097q66 0 136.5 -31.5t151.5 -119t81 -250.5q0 -311 -160 -513t-392 -202q-115 0 -204.5 60t-118.5 158h-16l-121 -559h-173l306 1438h166l-31 -147h16q127 166 359 166zM1033 654q0 137 -68 212.5t-191 75.5q-167 0 -282 -147t-115 -361q0 -137 73.5 -217.5
t207.5 -80.5q72 0 142.5 39.5t151.5 147t81 331.5z" />
    <glyph glyph-name="q" unicode="q" horiz-adv-x="1251" 
d="M152 414q0 287 159.5 485t392.5 198q113 0 206 -61t125 -157h16l42 199h167l-306 -1438h-172l106 507h-16q-123 -166 -338 -166q-163 0 -272.5 122.5t-109.5 310.5zM591 136q167 0 282 147t115 361q0 137 -73 217.5t-198 80.5q-164 0 -274.5 -143t-110.5 -359
q0 -145 68 -224.5t191 -79.5z" />
    <glyph glyph-name="r" unicode="r" horiz-adv-x="791" 
d="M763 1097q86 0 126 -15l-37 -165q-52 13 -136 13q-130 0 -206.5 -71t-108.5 -222l-135 -637h-174l229 1078h166l-29 -137h16q104 156 289 156z" />
    <glyph glyph-name="s" unicode="s" horiz-adv-x="1052" 
d="M777 294q0 103 -135 146l-165 53q-250 81 -250 264q0 162 114.5 251t289.5 89q257 0 325.5 -114.5t79.5 -180.5h-171q-17 70 -80 109.5t-135 39.5q-121 0 -185.5 -44.5t-64.5 -105.5q0 -60 38.5 -96t112.5 -60l146 -47q201 -65 229 -151.5t28 -148.5t-32.5 -121.5
t-123 -127.5t-272.5 -68t-299 85.5t-129 222.5h177q20 -72 86.5 -117.5t143.5 -45.5q132 0 202 47.5t70 120.5z" />
    <glyph glyph-name="t" unicode="t" horiz-adv-x="744" 
d="M411 259q0 -116 136 -116q35 0 69 4l-31 -145q-53 -10 -105 -10q-113 0 -183.5 55.5t-70.5 162.5q0 40 11 93l135 631h-181l30 144h182l55 269h175l-57 -269h250l-30 -144h-250l-123 -578q-12 -57 -12 -97z" />
    <glyph glyph-name="u" unicode="u" horiz-adv-x="1215" 
d="M848 146q-108 -165 -350 -165q-140 0 -233 89.5t-93 223.5q0 55 15 140l135 644h175l-131 -619q-14 -70 -14 -121q0 -202 219 -202q127 0 220.5 81t122.5 213l138 648h174l-229 -1078h-166l33 146h-16z" />
    <glyph glyph-name="v" unicode="v" horiz-adv-x="1110" 
d="M411 1078l126 -856h16l468 856h191l-622 -1078h-183l-169 1078h173z" />
    <glyph glyph-name="w" unicode="w" horiz-adv-x="1586" 
d="M1155 0h-175l-70 827h-16l-411 -827h-174l-72 1078h157l49 -853h16l411 853h175l57 -862h16l396 862h173z" />
    <glyph glyph-name="x" unicode="x" horiz-adv-x="1076" 
d="M562 405l-339 -405h-205l484 548l-258 530h188l179 -401h16l337 401h205l-481 -539l256 -539h-181l-185 405h-16z" />
    <glyph glyph-name="y" unicode="y" horiz-adv-x="1112" 
d="M272 -205q48 41 101 140l39 73l-175 1070h171l128 -857h16l472 857h189l-686 -1196q-90 -159 -172 -216.5t-197 -57.5q-38 0 -118 12l26 147q42 -13 100 -13t106 41z" />
    <glyph glyph-name="z" unicode="z" horiz-adv-x="1104" 
d="M104 126l764 792l3 16h-594l32 144h826l-29 -129l-758 -789l-3 -16h593l-31 -144h-830z" />
    <glyph glyph-name="braceleft" unicode="{" horiz-adv-x="823" 
d="M380 -49q0 -76 46.5 -112.5t148.5 -36.5h45l-29 -136h-48q-153 0 -243 67t-90 176q0 52 13 110l61 289q12 55 12 107q0 104 -145 104l41 191q99 0 148 46.5t75 166.5l59 275q55 253 211.5 288.5t250.5 35.5h50l-30 -141h-45q-185 0 -227 -82.5t-55 -142.5l-63 -296
q-25 -117 -82 -173t-148 -65l-3 -16q61 -14 99.5 -53t38.5 -91t-10 -97l-71 -334q-10 -46 -10 -80z" />
    <glyph glyph-name="bar" unicode="|" horiz-adv-x="676" 
d="M135 -326l376 1769h148l-376 -1769h-148z" />
    <glyph glyph-name="braceright" unicode="}" horiz-adv-x="824" 
d="M576 1237q0 76 -46.5 112.5t-148.5 36.5h-45l29 136h48q153 0 243 -67t90 -176q0 -52 -13 -110l-61 -289q-12 -56 -12 -108q0 -104 145 -103l-41 -191q-99 0 -148 -46.5t-75 -166.5l-59 -275q-54 -252 -211 -288t-251 -36h-50l30 141h45q185 0 227 82.5t55 142.5l63 296
q25 117 82 173t148 65l3 16q-61 14 -99.5 53t-38.5 91t10 97l71 334q10 46 10 80z" />
    <glyph glyph-name="asciitilde" unicode="~" horiz-adv-x="1202" 
d="M729 674q107 0 138 167h171q-17 -154 -106 -241.5t-207 -87.5t-196.5 93t-108 114t-57.5 21q-105 0 -136 -167h-171q17 154 106 241.5t207 87.5t195 -92t107 -114t58 -22z" />
    <glyph glyph-name="nonbreakingspace" unicode="&#xa0;" horiz-adv-x="578" 
 />
    <glyph glyph-name="exclamdown" unicode="&#xa1;" horiz-adv-x="636" 
d="M466 1120q30 0 55.5 -10.5t44 -29.5t29 -44t10.5 -55t-10.5 -55.5t-29 -44.5t-44 -29.5t-55.5 -10.5t-55.5 10.5t-44 29.5t-28.5 44.5t-10 55.5t10 55t28.5 44t44 29.5t55.5 10.5zM87 -342l222 964h166l-188 -964h-200z" />
    <glyph glyph-name="cent" unicode="&#xa2;" horiz-adv-x="1328" 
d="M283 664q0 112 40 229.5t152.5 254t347.5 148.5l31 147h172l-35 -165q109 -32 188.5 -112.5t84.5 -143t6 -74.5h-176q-8 83 -80.5 138.5t-163.5 55.5q-171 0 -278.5 -138.5t-107.5 -342.5q0 -150 73 -238.5t185 -88.5q222 0 287 170h179q-32 -138 -148.5 -227t-282.5 -99
l-38 -178h-172l41 194q-141 38 -223 156.5t-82 313.5z" />
    <glyph glyph-name="sterling" unicode="&#xa3;" horiz-adv-x="1328" 
d="M1355 1254q-109 64 -333 64q-154 0 -253 -80.5t-99 -237.5q0 -84 11 -203h428l-30 -144h-389q2 -31 2 -89t-37.5 -192t-233.5 -202l-3 -16h771l-33 -154h-1062l32 152q138 24 261 135.5t123 280.5q0 22 -5 85h-314l30 144h269q-10 111 -10 199t33.5 182t140.5 196.5
t394 102.5q143 0 227.5 -25t114.5 -40z" />
    <glyph glyph-name="currency" unicode="&#xa4;" horiz-adv-x="1328" 
d="M1101 656q0 -143 -93 -253l109 -138l-123 -98l-110 139q-80 -41 -174 -41q-144 0 -252 93l-239 -198l-87 110l236 196q-49 92 -49 190q0 144 93 252l-111 140l123 98l111 -141q82 42 175 42q143 0 252 -92l237 196l87 -110l-235 -194q50 -90 50 -191zM446 656
q0 -54 21 -102t57 -84t84 -57t102 -21t102 21t84 57t57 84t21 102t-21 102t-57 84t-84 57t-102 21t-102 -21t-84 -57t-57 -84t-21 -102z" />
    <glyph glyph-name="yen" unicode="&#xa5;" horiz-adv-x="1328" 
d="M753 269l-55 -269h-185l57 269h-278l29 136h278l35 166h-278l29 136h225l-301 736h187l268 -649h16l526 649h207l-601 -736h207l-29 -136h-274l-35 -166h274l-29 -136h-273z" />
    <glyph glyph-name="brokenbar" unicode="&#xa6;" horiz-adv-x="676" 
d="M135 -326l142 669h148l-142 -669h-148zM369 774l142 669h148l-142 -669h-148z" />
    <glyph glyph-name="section" unicode="&#xa7;" horiz-adv-x="1032" 
d="M180 -170.5q-115 86.5 -123 221.5h177q29 -115 107.5 -139t127.5 -24q99 0 163 47t64 122q0 74 -44 102.5t-81 42.5l-145 53q-240 87 -240 284q0 107 73.5 184t191.5 101l4 18q-121 71 -137.5 134.5t-16.5 119.5t29 115t108 122.5t243 63.5t267.5 -81.5t121.5 -213.5
h-171q-14 67 -71.5 108t-124.5 41q-112 0 -170.5 -45t-58.5 -105t34.5 -94.5t106.5 -61.5l126 -47q127 -49 187 -112.5t60 -168.5q0 -165 -99 -225t-161 -75l-3 -12q117 -71 132.5 -135t15.5 -120t-31 -115t-116 -125.5t-258 -66.5t-288 86.5zM686 740l-86 31
q-104 -10 -172.5 -67t-68.5 -141q0 -103 141 -156l92 -34q155 29 187 99.5t32 116.5q0 104 -125 151z" />
    <glyph glyph-name="dieresis" unicode="&#xa8;" horiz-adv-x="1094" 
d="M983 1263q-25 0 -47 9.5t-38.5 26t-26 38.5t-9.5 47t9.5 47t26 38.5t38.5 26t47 9.5t47 -9.5t38.5 -26t26 -38.5t9.5 -47t-9.5 -47t-26 -38.5t-38.5 -26t-47 -9.5zM579 1263q-25 0 -47 9.5t-38.5 26t-26 38.5t-9.5 47t9.5 47t26 38.5t38.5 26t47 9.5t47 -9.5t38.5 -26
t26 -38.5t9.5 -47t-9.5 -47t-26 -38.5t-38.5 -26t-47 -9.5z" />
    <glyph glyph-name="copyright" unicode="&#xa9;" horiz-adv-x="1742" 
d="M953 335q61 0 115 33t77 94h134q-24 -109 -121 -177t-237 -68t-230 94.5t-90 251.5q0 213 121.5 353.5t304.5 140.5q134 0 219 -70.5t95 -191.5h-132q-6 63 -60.5 104.5t-122.5 41.5q-129 0 -209.5 -104t-80.5 -267q0 -164 78 -199.5t139 -35.5zM900 -31q116 0 210.5 26
t219 98.5t221.5 242t97 372.5q0 248 -171 411.5t-430 163.5q-308 0 -521.5 -213.5t-213.5 -533.5q0 -112 46 -217.5t127 -183t190 -122t225 -44.5zM910 -171q-114 0 -208 25t-216.5 93t-220 229.5t-97.5 351.5q0 384 255.5 639.5t639.5 255.5q311 0 464.5 -146.5t209 -274
t55.5 -266.5t-30.5 -255.5t-87.5 -216t-137.5 -180t-180 -137.5t-216 -87.5t-230.5 -30.5z" />
    <glyph glyph-name="ordfeminine" unicode="&#xaa;" horiz-adv-x="942" 
d="M660 1320q-148 0 -191 -107h-168q46 175 173.5 211.5t201.5 36.5q151 0 242.5 -70t91.5 -186q0 -43 -7 -73l-126 -591h-160l25 117h-14q-46 -62 -117 -96t-141 -34q-128 0 -207 71t-79 191q0 121 102 197.5t291 84.5l249 11l13 60q5 32 4 40q1 65 -47.5 101t-135.5 36z
M351 796q0 -92 64.5 -112t106.5 -20q91 0 165 56.5t92 140.5l21 99l-228 -11q-105 -5 -163 -45.5t-58 -107.5z" />
    <glyph glyph-name="guillemotleft" unicode="&#xab;" horiz-adv-x="1390" 
d="M414 553l-3 -16l248 -392h-190l-262 416l2 8l439 416h219zM892 553l-3 -16l248 -392h-190l-262 416l2 8l439 416h219z" />
    <glyph glyph-name="logicalnot" unicode="&#xac;" horiz-adv-x="1328" 
d="M1105 126h-148l81 380h-800l31 148h948z" />
    <glyph glyph-name="registered" unicode="&#xae;" horiz-adv-x="1261" 
d="M1055.5 1183.5q-121.5 121.5 -296.5 121.5t-296.5 -121.5t-121.5 -296.5t120 -296.5t295 -121.5t298 121.5t123 296.5t-121.5 296.5zM237 887q0 109 40.5 204.5t111 166t166 111t204.5 40.5t204.5 -40.5t166 -111t111 -166t40.5 -204.5t-40.5 -204.5t-111 -166t-166 -111
t-204.5 -40.5t-204.5 40.5t-166 111t-111 166t-40.5 204.5zM776 922q109 0 109 83q0 25 -19 42.5t-57 17.5h-127l-30 -143h124zM844 1154q65 0 109 -40t44 -102q0 -63 -42.5 -106.5t-108.5 -54.5l96 -196h-120l-90 183h-98l-39 -183h-98l106 499h241z" />
    <glyph glyph-name="macron" unicode="&#xaf;" horiz-adv-x="1094" 
d="M423 1286l29 136h674l-29 -136h-674z" />
    <glyph glyph-name="degree" unicode="&#xb0;" horiz-adv-x="820" 
d="M761 1178q0 80 -46 126.5t-110 46.5t-111.5 -46.5t-47.5 -110.5t47.5 -110t94.5 -46q81 0 127 46t46 94zM319 1194q0 119 83 202t201 83t201.5 -83.5t83.5 -201.5t-83.5 -201.5t-201.5 -83.5t-201 83t-83 202z" />
    <glyph glyph-name="plusminus" unicode="&#xb1;" horiz-adv-x="1328" 
d="M759 371h-152l62 291h-433l29 136h433l63 291h152l-63 -291h433l-29 -136h-433zM119 112l31 148h1018l-31 -148h-1018z" />
    <glyph glyph-name="two.sups" unicode="&#xb2;" horiz-adv-x="855" 
d="M919 1758.5q85 -68.5 85 -161.5t-55 -164t-217 -203l-212 -178l-2 -11h403l-30 -141h-646l27 126l356 297q124 102 163.5 149.5t39.5 98.5t-38.5 84.5t-84.5 33.5q-77 0 -122.5 -38t-57.5 -101v-3h-162q10 123 107 201.5t229 78.5t217 -68.5z" />
    <glyph glyph-name="three.sups" unicode="&#xb3;" horiz-adv-x="867" 
d="M681 1429q73 0 121 40.5t48 98.5t-39 90t-87 32q-75 0 -120.5 -32.5t-61.5 -84.5h-161q24 116 116 185t222 69t215.5 -66t85.5 -161t-59.5 -159.5t-152.5 -78.5l-1 -11q75 -17 115.5 -65t40.5 -116t-26.5 -121t-73.5 -91.5t-112 -60t-182.5 -21.5t-212 83.5t-78.5 205.5
h165q0 -66 46 -106.5t104 -40.5q99 0 148.5 43.5t49.5 105.5q0 63 -44.5 98t-115.5 35h-99l26 129h123z" />
    <glyph glyph-name="acute" unicode="&#xb4;" horiz-adv-x="1094" 
d="M843 1601h220l-350 -338h-194z" />
    <glyph glyph-name="paragraph" unicode="&#xb6;" horiz-adv-x="1321" 
d="M1275 1443h180l-354 -1663h-180zM350 964q0 96 42.5 186t162 191.5t373.5 101.5h200l-354 -1663h-180l169 795q-180 0 -296.5 105t-116.5 284z" />
    <glyph glyph-name="periodcentered" unicode="&#xb7;" horiz-adv-x="630" 
d="M397 597q-47 0 -86.5 39.5t-39.5 86.5t10.5 73t29.5 45t45 29.5t57 10.5t56.5 -10.5t44 -29.5t29 -45t10.5 -57t-10.5 -57t-29 -45t-44 -29.5t-72.5 -10.5z" />
    <glyph glyph-name="cedilla" unicode="&#xb8;" horiz-adv-x="1094" 
d="M334 -233h-53l13 90l113 182h141l-111 -179q179 -20 179 -156q0 -84 -69 -139.5t-172 -55.5t-181 36l23 108q61 -28 128 -28q123 0 123 71t-134 71z" />
    <glyph glyph-name="one.sups" unicode="&#xb9;" horiz-adv-x="680" 
d="M604 1625h-11l-256 -155l36 169l270 164h173l-192 -903h-174z" />
    <glyph glyph-name="ordmasculine" unicode="&#xba;" horiz-adv-x="1024" 
d="M612 515q-181 0 -283.5 109t-102.5 294q0 232 143 388.5t354 156.5q172 0 273.5 -107.5t101.5 -293.5q0 -230 -104.5 -346.5t-195 -158.5t-186.5 -42zM696 1315q-122 0 -207.5 -106.5t-85.5 -252.5t58 -219.5t172 -73.5t201 111.5t87 287.5t-83.5 214.5t-141.5 38.5z" />
    <glyph glyph-name="guillemotright" unicode="&#xbb;" horiz-adv-x="1393" 
d="M854 985h190l262 -416l-2 -8l-439 -416h-219l453 432l3 16zM373 985h190l262 -416l-2 -8l-439 -416h-219l453 432l3 16z" />
    <glyph glyph-name="onequarter" unicode="&#xbc;" horiz-adv-x="2046" 
d="M616 1265h-11l-256 -155l36 169l270 164h173l-192 -903h-174zM1403 303h288l98 465h-9q-171 -193 -375 -456zM1658 166h-443l28 156q163 214 484 581h254l-127 -596h120l-30 -141h-120l-35 -166h-166zM529 0l944 1443h173l-944 -1443h-173z" />
    <glyph glyph-name="onehalf" unicode="&#xbd;" horiz-adv-x="2036" 
d="M529 0l944 1443h173l-944 -1443h-173zM616 1265h-11l-256 -155l36 169l270 164h173l-192 -903h-174zM2025 697q0 -93 -55 -164t-217 -203l-212 -178l-2 -11h403l-30 -141h-646l27 126l356 297q124 102 163.5 149.5t39.5 98.5t-38.5 84.5t-84.5 33.5q-77 0 -122.5 -38
t-57.5 -101v-3h-162q10 123 107.5 201.5t231.5 78.5q130 0 214.5 -68.5t84.5 -161.5z" />
    <glyph glyph-name="threequarters" unicode="&#xbe;" horiz-adv-x="2182" 
d="M604 1069q73 0 121 40.5t48 98.5t-39.5 90t-87.5 32q-75 0 -120 -32.5t-61 -84.5h-161q24 116 116 185t222 69t215.5 -66t85.5 -161t-59.5 -159.5t-152.5 -78.5l-1 -11q75 -17 115.5 -65t40.5 -116t-26.5 -121t-73.5 -91.5t-112 -60t-182.5 -21.5t-212 83.5t-78.5 205.5
h165q0 -66 46 -106.5t104 -40.5q99 0 148.5 43.5t49.5 105.5q0 63 -44.5 98t-115.5 35h-99l26 129h123zM1539 303h288l98 465h-9q-171 -193 -375 -456zM1794 166h-443l28 156q163 214 484 581h254l-127 -596h120l-30 -141h-120l-35 -166h-166zM665 0l944 1443h173
l-944 -1443h-173z" />
    <glyph glyph-name="questiondown" unicode="&#xbf;" horiz-adv-x="1049" 
d="M456 -354q-185 0 -300.5 95.5t-115.5 227.5q0 133 80 240t199 160t165 101t60 126l11 60h179l-18 -82q-38 -173 -124 -226.5t-172 -93.5t-137.5 -105.5t-51.5 -149.5t62.5 -140t168.5 -56q107 0 179.5 55t101.5 155h174q-54 -262 -210 -314.5t-251 -52.5zM708 1120
q60 0 99.5 -39t39.5 -85t-10.5 -71.5t-29 -44t-44 -29t-70.5 -10.5t-84 39t-39 85t10 71.5t39 54.5t89 29z" />
    <glyph glyph-name="Agrave" unicode="&#xc0;" horiz-adv-x="1380" 
d="M1049 1575h-184l-206 298h206zM522 566h473l-95 641h-16zM1015 413h-579l-232 -413h-193l845 1443h167l226 -1443h-176z" />
    <glyph glyph-name="Aacute" unicode="&#xc1;" horiz-adv-x="1380" 
d="M1250 1873h226l-395 -298h-204zM522 566h473l-95 641h-16zM1015 413h-579l-232 -413h-193l845 1443h167l226 -1443h-176z" />
    <glyph glyph-name="Acircumflex" unicode="&#xc2;" horiz-adv-x="1380" 
d="M1304 1575h-185l-105 186h-16l-183 -186h-207l310 298h202zM522 566h473l-95 641h-16zM1015 413h-579l-232 -413h-193l845 1443h167l226 -1443h-176z" />
    <glyph glyph-name="Atilde" unicode="&#xc3;" horiz-adv-x="1380" 
d="M999.5 1626.5q-51.5 51.5 -84 81.5t-67.5 30q-89 0 -114 -118h-142q20 118 91.5 185.5t169.5 67.5q97 0 164 -67t90.5 -81.5t45.5 -14.5q90 0 115 118h142q-20 -118 -91.5 -185.5t-169.5 -67.5t-149.5 51.5zM522 566h473l-95 641h-16zM1015 413h-579l-232 -413h-193
l845 1443h167l226 -1443h-176z" />
    <glyph glyph-name="Adieresis" unicode="&#xc4;" horiz-adv-x="1380" 
d="M1195 1575q-25 0 -47 9.5t-38.5 26t-26 38.5t-9.5 47t9.5 47t26 38.5t38.5 26t47 9.5t47 -9.5t38.5 -26t26 -38.5t9.5 -47t-9.5 -47t-26 -38.5t-38.5 -26t-47 -9.5zM791 1575q-25 0 -47 9.5t-38.5 26t-26 38.5t-9.5 47t9.5 47t26 38.5t38.5 26t47 9.5t47 -9.5t38.5 -26
t26 -38.5t9.5 -47t-9.5 -47t-26 -38.5t-38.5 -26t-47 -9.5zM522 566h473l-95 641h-16zM1015 413h-579l-232 -413h-193l845 1443h167l226 -1443h-176z" />
    <glyph glyph-name="Aring" unicode="&#xc5;" horiz-adv-x="1380" 
d="M1015 1677q26 0 48.5 9.5t39 26t25.5 39t9 48.5t-9 48.5t-25.5 39t-39 26t-48.5 9.5t-48.5 -9.5t-39 -26t-25.5 -39t-9 -48.5t9 -48.5t25.5 -39t39 -26t48.5 -9.5zM1015 1571q-48 0 -90.5 17.5t-74 48.5t-49.5 73t-18 90t18 90t49.5 73t74 48.5t90.5 17.5t90 -17.5
t73.5 -48.5t50 -73t18.5 -90t-18.5 -90t-50 -73t-73.5 -48.5t-90 -17.5zM522 566h473l-95 641h-16zM1015 413h-579l-232 -413h-193l845 1443h167l226 -1443h-176z" />
    <glyph glyph-name="AE" unicode="&#xc6;" horiz-adv-x="1966" 
d="M1030 459h-527l-307 -459h-187l958 1443h1110l-35 -162h-658l-100 -473h621l-34 -160h-621l-104 -486h658l-34 -162h-838zM1060 1292l-455 -680h457l145 680h-147z" />
    <glyph glyph-name="Ccedilla" unicode="&#xc7;" horiz-adv-x="1466" 
d="M663 -233h-53l13 90l70 112q-223 22 -357.5 180t-134.5 405q0 399 177.5 613.5t326 262t261.5 47.5q231 0 386 -136t155 -343v-6h-183v2q-12 145 -113 230.5t-263 85.5q-118 0 -220.5 -56.5t-221 -212.5t-118.5 -468q0 -204 106 -322t287 -118q227 0 308 95.5t101 151.5
h190q-50 -177 -194.5 -286t-351.5 -125l-68 -109q179 -20 179 -156q0 -84 -69 -139.5t-172 -55.5t-181 36l23 108q61 -28 128 -28q123 0 123 71t-134 71z" />
    <glyph glyph-name="Egrave" unicode="&#xc8;" horiz-adv-x="1219" 
d="M987 1575h-184l-206 298h206zM1019 0h-896l307 1443h896l-35 -162h-711l-100 -463h675l-34 -160h-674l-106 -496h712z" />
    <glyph glyph-name="Eacute" unicode="&#xc9;" horiz-adv-x="1219" 
d="M1188 1873h226l-395 -298h-204zM1019 0h-896l307 1443h896l-35 -162h-711l-100 -463h675l-34 -160h-674l-106 -496h712z" />
    <glyph glyph-name="Ecircumflex" unicode="&#xca;" horiz-adv-x="1219" 
d="M1242 1575h-185l-105 186h-16l-183 -186h-207l310 298h202zM1019 0h-896l307 1443h896l-35 -162h-711l-100 -463h675l-34 -160h-674l-106 -496h712z" />
    <glyph glyph-name="Edieresis" unicode="&#xcb;" horiz-adv-x="1219" 
d="M1133 1575q-25 0 -47 9.5t-38.5 26t-26 38.5t-9.5 47t9.5 47t26 38.5t38.5 26t47 9.5t47 -9.5t38.5 -26t26 -38.5t9.5 -47t-9.5 -47t-26 -38.5t-38.5 -26t-47 -9.5zM729 1575q-25 0 -47 9.5t-38.5 26t-26 38.5t-9.5 47t9.5 47t26 38.5t38.5 26t47 9.5t47 -9.5t38.5 -26
t26 -38.5t9.5 -47t-9.5 -47t-26 -38.5t-38.5 -26t-47 -9.5zM1019 0h-896l307 1443h896l-35 -162h-711l-100 -463h675l-34 -160h-674l-106 -496h712z" />
    <glyph glyph-name="Igrave" unicode="&#xcc;" horiz-adv-x="550" 
d="M632 1575h-184l-206 298h206zM123 0l307 1443h184l-307 -1443h-184z" />
    <glyph glyph-name="Iacute" unicode="&#xcd;" horiz-adv-x="550" 
d="M833 1873h226l-395 -298h-204zM123 0l307 1443h184l-307 -1443h-184z" />
    <glyph glyph-name="Icircumflex" unicode="&#xce;" horiz-adv-x="550" 
d="M887 1575h-185l-105 186h-16l-183 -186h-207l310 298h202zM123 0l307 1443h184l-307 -1443h-184z" />
    <glyph glyph-name="Idieresis" unicode="&#xcf;" horiz-adv-x="550" 
d="M778 1575q-25 0 -47 9.5t-38.5 26t-26 38.5t-9.5 47t9.5 47t26 38.5t38.5 26t47 9.5t47 -9.5t38.5 -26t26 -38.5t9.5 -47t-9.5 -47t-26 -38.5t-38.5 -26t-47 -9.5zM374 1575q-25 0 -47 9.5t-38.5 26t-26 38.5t-9.5 47t9.5 47t26 38.5t38.5 26t47 9.5t47 -9.5t38.5 -26
t26 -38.5t9.5 -47t-9.5 -47t-26 -38.5t-38.5 -26t-47 -9.5zM123 0l307 1443h184l-307 -1443h-184z" />
    <glyph glyph-name="Eth" unicode="&#xd0;" horiz-adv-x="1486" 
d="M833 1443q300 0 464.5 -168t164.5 -463q0 -347 -176 -537.5t-320.5 -232.5t-249.5 -42h-591l140 663h-201l35 163h201l130 617h403zM723 160q238 0 395.5 183.5t157.5 459.5q0 227 -120.5 353.5t-336.5 126.5h-239l-97 -457h202l-35 -163h-202l-107 -503h382z" />
    <glyph glyph-name="Ntilde" unicode="&#xd1;" horiz-adv-x="1520" 
d="M1076.5 1626.5q-51.5 51.5 -84 81.5t-67.5 30q-89 0 -114 -118h-142q20 118 91.5 185.5t169.5 67.5q97 0 164 -67t90.5 -81.5t45.5 -14.5q90 0 115 118h142q-20 -118 -91.5 -185.5t-169.5 -67.5t-149.5 51.5zM123 0l307 1443h177l534 -1153h16l245 1153h182l-307 -1443
h-179l-533 1150h-16l-244 -1150h-182z" />
    <glyph glyph-name="Ograve" unicode="&#xd2;" horiz-adv-x="1579" 
d="M1087 1573h-184l-206 298h206zM1374 834q0 229 -112.5 352.5t-293.5 123.5q-123 0 -229 -55.5t-227 -210.5t-121 -465q0 -200 113.5 -323t296.5 -123q248 0 367.5 152t162.5 286t43 263zM201 563q0 394 222 654t566 260q119 0 226 -45t228 -169t121 -383
q0 -397 -220 -655.5t-564 -258.5q-120 0 -227.5 45t-229.5 169.5t-122 382.5z" />
    <glyph glyph-name="Oacute" unicode="&#xd3;" horiz-adv-x="1579" 
d="M1288 1871h226l-395 -298h-204zM1374 834q0 229 -112.5 352.5t-293.5 123.5q-123 0 -229 -55.5t-227 -210.5t-121 -465q0 -200 113.5 -323t296.5 -123q248 0 367.5 152t162.5 286t43 263zM201 563q0 394 222 654t566 260q119 0 226 -45t228 -169t121 -383
q0 -397 -220 -655.5t-564 -258.5q-120 0 -227.5 45t-229.5 169.5t-122 382.5z" />
    <glyph glyph-name="Ocircumflex" unicode="&#xd4;" horiz-adv-x="1579" 
d="M1342 1573h-185l-105 186h-16l-183 -186h-207l310 298h202zM1374 834q0 229 -112.5 352.5t-293.5 123.5q-123 0 -229 -55.5t-227 -210.5t-121 -465q0 -200 113.5 -323t296.5 -123q248 0 367.5 152t162.5 286t43 263zM201 563q0 394 222 654t566 260q119 0 226 -45
t228 -169t121 -383q0 -397 -220 -655.5t-564 -258.5q-120 0 -227.5 45t-229.5 169.5t-122 382.5z" />
    <glyph glyph-name="Otilde" unicode="&#xd5;" horiz-adv-x="1579" 
d="M1037.5 1624.5q-51.5 51.5 -84 81.5t-67.5 30q-89 0 -114 -118h-142q20 118 91.5 185.5t169.5 67.5q97 0 164 -67t90.5 -81.5t45.5 -14.5q90 0 115 118h142q-20 -118 -91.5 -185.5t-169.5 -67.5t-149.5 51.5zM1374 834q0 229 -112.5 352.5t-293.5 123.5
q-123 0 -229 -55.5t-227 -210.5t-121 -465q0 -200 113.5 -323t296.5 -123q248 0 367.5 152t162.5 286t43 263zM201 563q0 394 222 654t566 260q119 0 226 -45t228 -169t121 -383q0 -397 -220 -655.5t-564 -258.5q-120 0 -227.5 45t-229.5 169.5t-122 382.5z" />
    <glyph glyph-name="Odieresis" unicode="&#xd6;" horiz-adv-x="1579" 
d="M1233 1573q-25 0 -47 9.5t-38.5 26t-26 38.5t-9.5 47t9.5 47t26 38.5t38.5 26t47 9.5t47 -9.5t38.5 -26t26 -38.5t9.5 -47t-9.5 -47t-26 -38.5t-38.5 -26t-47 -9.5zM829 1573q-25 0 -47 9.5t-38.5 26t-26 38.5t-9.5 47t9.5 47t26 38.5t38.5 26t47 9.5t47 -9.5t38.5 -26
t26 -38.5t9.5 -47t-9.5 -47t-26 -38.5t-38.5 -26t-47 -9.5zM1374 834q0 229 -112.5 352.5t-293.5 123.5q-123 0 -229 -55.5t-227 -210.5t-121 -465q0 -200 113.5 -323t296.5 -123q248 0 367.5 152t162.5 286t43 263zM201 563q0 394 222 654t566 260q119 0 226 -45t228 -169
t121 -383q0 -397 -220 -655.5t-564 -258.5q-120 0 -227.5 45t-229.5 169.5t-122 382.5z" />
    <glyph glyph-name="multiply" unicode="&#xd7;" horiz-adv-x="1328" 
d="M711 467l-373 -307l-94 116l373 308l-238 304l126 104l239 -303l373 307l94 -116l-372 -308l233 -300l-126 -104z" />
    <glyph glyph-name="Oslash" unicode="&#xd8;" horiz-adv-x="1551" 
d="M1564 880q0 -397 -181 -609t-332.5 -258.5t-263.5 -46.5q-189 0 -338 101l-87 -114l-100 76l93 120q-154 167 -154 414q0 394 182.5 607.5t334.5 260t264 46.5q182 0 325 -93l81 104l98 -69l-86 -112q164 -168 164 -427zM972 1310q-252 0 -416.5 -210.5t-164.5 -520.5
q0 -164 79 -280l728 943q-99 68 -226 68zM1374 864q0 175 -88 294l-728 -950q104 -75 236 -75q256 0 418 207t162 524z" />
    <glyph glyph-name="Ugrave" unicode="&#xd9;" horiz-adv-x="1524" 
d="M1118 1575h-184l-206 298h206zM742 -34q-243 0 -399 150t-97 428l188 899h184l-186 -887q-33 -144 25.5 -284t310.5 -140q161 0 277 95t152 264l203 952h184l-210 -987q-77 -359 -290 -424.5t-342 -65.5z" />
    <glyph glyph-name="Uacute" unicode="&#xda;" horiz-adv-x="1524" 
d="M1319 1873h226l-395 -298h-204zM742 -34q-243 0 -399 150t-97 428l188 899h184l-186 -887q-33 -144 25.5 -284t310.5 -140q161 0 277 95t152 264l203 952h184l-210 -987q-77 -359 -290 -424.5t-342 -65.5z" />
    <glyph glyph-name="Ucircumflex" unicode="&#xdb;" horiz-adv-x="1524" 
d="M1373 1575h-185l-105 186h-16l-183 -186h-207l310 298h202zM742 -34q-243 0 -399 150t-97 428l188 899h184l-186 -887q-33 -144 25.5 -284t310.5 -140q161 0 277 95t152 264l203 952h184l-210 -987q-77 -359 -290 -424.5t-342 -65.5z" />
    <glyph glyph-name="Udieresis" unicode="&#xdc;" horiz-adv-x="1524" 
d="M1264 1575q-25 0 -47 9.5t-38.5 26t-26 38.5t-9.5 47t9.5 47t26 38.5t38.5 26t47 9.5t47 -9.5t38.5 -26t26 -38.5t9.5 -47t-9.5 -47t-26 -38.5t-38.5 -26t-47 -9.5zM860 1575q-25 0 -47 9.5t-38.5 26t-26 38.5t-9.5 47t9.5 47t26 38.5t38.5 26t47 9.5t47 -9.5t38.5 -26
t26 -38.5t9.5 -47t-9.5 -47t-26 -38.5t-38.5 -26t-47 -9.5zM742 -34q-243 0 -399 150t-97 428l188 899h184l-186 -887q-33 -144 25.5 -284t310.5 -140q161 0 277 95t152 264l203 952h184l-210 -987q-77 -359 -290 -424.5t-342 -65.5z" />
    <glyph glyph-name="Yacute" unicode="&#xdd;" horiz-adv-x="1344" 
d="M1229 1873h226l-395 -298h-204zM521 0l132 621l-336 822h187l268 -649h16l526 649h207l-692 -848l-124 -595h-184z" />
    <glyph glyph-name="Thorn" unicode="&#xde;" horiz-adv-x="1280" 
d="M707 509q271 0 323.5 113t52.5 197t-65 141t-194 57h-304l-108 -508h295zM885 1177q171 0 278.5 -99.5t107.5 -256.5q0 -212 -152.5 -342t-400.5 -130h-340l-74 -349h-180l307 1443h179l-57 -266h332z" />
    <glyph glyph-name="germandbls" unicode="&#xdf;" horiz-adv-x="1338" 
d="M1244 1100q0 -140 -92 -236t-238 -108l-4 -18q224 -25 270.5 -134.5t46.5 -189.5t-37.5 -162.5t-142 -176t-323.5 -93.5q-119 0 -208 34l33 152q78 -32 164 -32q154 0 248 84t94 198t-82.5 176.5t-219.5 62.5h-71l36 170h79q113 0 193 71t80 166t-64 151.5t-171 56.5
t-180 -65t-99 -186l-217 -1021h-174l228 1072q36 167 156 260t295 93t287.5 -92.5t112.5 -232.5z" />
    <glyph glyph-name="agrave" unicode="&#xe0;" horiz-adv-x="1126" 
d="M609 1263l-206 338h214l180 -338h-188zM668 943q-186 0 -239 -135h-182q36 133 153 211t289 78t278.5 -82.5t106.5 -219.5q0 -43 -9 -88l-150 -707h-167l30 141h-16q-57 -75 -142 -117.5t-170 -42.5q-154 0 -249 85.5t-95 212.5q0 242 176.5 295t288.5 58l306 14l16 73
q6 34 6 51q0 82 -61 127.5t-170 45.5zM703.5 201q93.5 71 117.5 182l27 124l-287 -14q-133 -7 -205.5 -58.5t-72.5 -130.5t58 -126.5t163 -47.5q106 0 199.5 71z" />
    <glyph glyph-name="aacute" unicode="&#xe1;" horiz-adv-x="1126" 
d="M965 1601h220l-350 -338h-194zM668 943q-186 0 -239 -135h-182q36 133 153 211t289 78t278.5 -82.5t106.5 -219.5q0 -43 -9 -88l-150 -707h-167l30 141h-16q-57 -75 -142 -117.5t-170 -42.5q-154 0 -249 85.5t-95 212.5q0 242 176.5 295t288.5 58l306 14l16 73q6 34 6 51
q0 82 -61 127.5t-170 45.5zM703.5 201q93.5 71 117.5 182l27 124l-287 -14q-133 -7 -205.5 -58.5t-72.5 -130.5t58 -126.5t163 -47.5q106 0 199.5 71z" />
    <glyph glyph-name="acircumflex" unicode="&#xe2;" horiz-adv-x="1126" 
d="M1103 1228h-187l-129 227h-16l-225 -227h-209l354 340h202zM668 943q-186 0 -239 -135h-182q36 133 153 211t289 78t278.5 -82.5t106.5 -219.5q0 -43 -9 -88l-150 -707h-167l30 141h-16q-57 -75 -142 -117.5t-170 -42.5q-154 0 -249 85.5t-95 212.5q0 242 176.5 295
t288.5 58l306 14l16 73q6 34 6 51q0 82 -61 127.5t-170 45.5zM703.5 201q93.5 71 117.5 182l27 124l-287 -14q-133 -7 -205.5 -58.5t-72.5 -130.5t58 -126.5t163 -47.5q106 0 199.5 71z" />
    <glyph glyph-name="atilde" unicode="&#xe3;" horiz-adv-x="1126" 
d="M930 1217q-47 0 -79.5 13.5t-58 34t-45 44.5t-50 58t-69.5 34q-87 0 -114 -139h-142q24 197 118.5 235.5t141.5 38.5t79 -13.5t57 -34t45 -44.5t50.5 -58t69.5 -34q88 0 115 139h142q-24 -197 -118.5 -235.5t-141.5 -38.5zM668 943q-186 0 -239 -135h-182q36 133 153 211
t289 78t278.5 -82.5t106.5 -219.5q0 -43 -9 -88l-150 -707h-167l30 141h-16q-57 -75 -142 -117.5t-170 -42.5q-154 0 -249 85.5t-95 212.5q0 242 176.5 295t288.5 58l306 14l16 73q6 34 6 51q0 82 -61 127.5t-170 45.5zM703.5 201q93.5 71 117.5 182l27 124l-287 -14
q-133 -7 -205.5 -58.5t-72.5 -130.5t58 -126.5t163 -47.5q106 0 199.5 71z" />
    <glyph glyph-name="adieresis" unicode="&#xe4;" horiz-adv-x="1126" 
d="M958 1228q-25 0 -47 9.5t-38.5 26t-26 38.5t-9.5 47t9.5 47t26 38.5t38.5 26t47 9.5t47 -9.5t38.5 -26t26 -38.5t9.5 -47t-9.5 -47t-26 -38.5t-38.5 -26t-47 -9.5zM554 1228q-25 0 -47 9.5t-38.5 26t-26 38.5t-9.5 47t9.5 47t26 38.5t38.5 26t47 9.5t47 -9.5t38.5 -26
t26 -38.5t9.5 -47t-9.5 -47t-26 -38.5t-38.5 -26t-47 -9.5zM668 943q-186 0 -239 -135h-182q36 133 153 211t289 78t278.5 -82.5t106.5 -219.5q0 -43 -9 -88l-150 -707h-167l30 141h-16q-57 -75 -142 -117.5t-170 -42.5q-154 0 -249 85.5t-95 212.5q0 242 176.5 295
t288.5 58l306 14l16 73q6 34 6 51q0 82 -61 127.5t-170 45.5zM703.5 201q93.5 71 117.5 182l27 124l-287 -14q-133 -7 -205.5 -58.5t-72.5 -130.5t58 -126.5t163 -47.5q106 0 199.5 71z" />
    <glyph glyph-name="aring" unicode="&#xe5;" horiz-adv-x="1126" 
d="M780 1334q26 0 48.5 9.5t39 26t25.5 39t9 48.5t-9 48.5t-25.5 39t-39 26t-48.5 9.5t-48.5 -9.5t-39 -26t-25.5 -39t-9 -48.5t9 -48.5t25.5 -39t39 -26t48.5 -9.5zM780 1228q-48 0 -90.5 17.5t-74 48.5t-49.5 73t-18 90t18 90t49.5 73t74 48.5t90.5 17.5t90 -17.5
t73.5 -48.5t50 -73t18.5 -90t-18.5 -90t-50 -73t-73.5 -48.5t-90 -17.5zM668 943q-186 0 -239 -135h-182q36 133 153 211t289 78t278.5 -82.5t106.5 -219.5q0 -43 -9 -88l-150 -707h-167l30 141h-16q-57 -75 -142 -117.5t-170 -42.5q-154 0 -249 85.5t-95 212.5
q0 242 176.5 295t288.5 58l306 14l16 73q6 34 6 51q0 82 -61 127.5t-170 45.5zM703.5 201q93.5 71 117.5 182l27 124l-287 -14q-133 -7 -205.5 -58.5t-72.5 -130.5t58 -126.5t163 -47.5q106 0 199.5 71z" />
    <glyph glyph-name="ae" unicode="&#xe6;" horiz-adv-x="1866" 
d="M703.5 201q93.5 71 117.5 182l27 124l-287 -14q-133 -7 -205.5 -58.5t-72.5 -130.5t58 -126.5t163 -47.5q106 0 199.5 71zM1638 692q0 103 -64.5 178t-184.5 75t-209.5 -83t-128.5 -224h585q2 10 2 54zM1291 -19q-145 0 -252.5 66t-150.5 174h-15q-59 -101 -173 -170.5
t-256 -69.5t-240 85t-98 213q0 242 176.5 295t288.5 58l306 14l16 73q6 34 6 51q0 82 -61 127.5t-170 45.5q-186 0 -239 -135h-182q36 133 153 211t282 78q255 0 346 -168h16q141 168 364 168q173 0 291.5 -117t118.5 -319q0 -97 -13 -162h-777q-2 -27 -2 -83t24 -114
t80 -111t166 -53q197 0 271 137h183q-56 -204 -217.5 -249t-241.5 -45z" />
    <glyph glyph-name="ccedilla" unicode="&#xe7;" horiz-adv-x="1146" 
d="M430 -233h-53l13 90l85 137q-147 34 -233 152.5t-86 275.5q0 300 161.5 487.5t407.5 187.5q159 0 281.5 -90.5t129 -168.5l7.5 -90h-176q-8 83 -80.5 138.5t-163.5 55.5q-171 0 -278.5 -138.5t-107.5 -342.5q0 -149 72.5 -236t184.5 -87q223 0 288 170h179
q-32 -145 -157 -234t-296 -93l-75 -121q179 -20 179 -156q0 -84 -69 -139.5t-172 -55.5t-181 36l23 108q61 -28 128 -28q123 0 123 71t-134 71z" />
    <glyph glyph-name="egrave" unicode="&#xe8;" horiz-adv-x="1170" 
d="M620 1263l-206 338h214l180 -338h-188zM948 692q0 103 -64.5 178t-184.5 75t-209.5 -83t-128.5 -224h585q2 10 2 54zM157 432q0 296 156 480.5t405 184.5q173 0 291.5 -117t118.5 -319q0 -97 -13 -162h-777q-2 -29 -2 -83t46 -166t233 -112q188 0 262 137h183
q-36 -131 -159 -212.5t-309 -81.5t-310.5 120.5t-124.5 330.5z" />
    <glyph glyph-name="eacute" unicode="&#xe9;" horiz-adv-x="1170" 
d="M976 1601h220l-350 -338h-194zM948 692q0 103 -64.5 178t-184.5 75t-209.5 -83t-128.5 -224h585q2 10 2 54zM157 432q0 296 156 480.5t405 184.5q173 0 291.5 -117t118.5 -319q0 -97 -13 -162h-777q-2 -29 -2 -83t46 -166t233 -112q188 0 262 137h183
q-36 -131 -159 -212.5t-309 -81.5t-310.5 120.5t-124.5 330.5z" />
    <glyph glyph-name="ecircumflex" unicode="&#xea;" horiz-adv-x="1170" 
d="M1114 1228h-187l-129 227h-16l-225 -227h-209l354 340h202zM948 692q0 103 -64.5 178t-184.5 75t-209.5 -83t-128.5 -224h585q2 10 2 54zM157 432q0 296 156 480.5t405 184.5q173 0 291.5 -117t118.5 -319q0 -97 -13 -162h-777q-2 -29 -2 -83t46 -166t233 -112
q188 0 262 137h183q-36 -131 -159 -212.5t-309 -81.5t-310.5 120.5t-124.5 330.5z" />
    <glyph glyph-name="edieresis" unicode="&#xeb;" horiz-adv-x="1170" 
d="M969 1228q-25 0 -47 9.5t-38.5 26t-26 38.5t-9.5 47t9.5 47t26 38.5t38.5 26t47 9.5t47 -9.5t38.5 -26t26 -38.5t9.5 -47t-9.5 -47t-26 -38.5t-38.5 -26t-47 -9.5zM565 1228q-25 0 -47 9.5t-38.5 26t-26 38.5t-9.5 47t9.5 47t26 38.5t38.5 26t47 9.5t47 -9.5t38.5 -26
t26 -38.5t9.5 -47t-9.5 -47t-26 -38.5t-38.5 -26t-47 -9.5zM948 692q0 103 -64.5 178t-184.5 75t-209.5 -83t-128.5 -224h585q2 10 2 54zM157 432q0 296 156 480.5t405 184.5q173 0 291.5 -117t118.5 -319q0 -97 -13 -162h-777q-2 -29 -2 -83t46 -166t233 -112
q188 0 262 137h183q-36 -131 -159 -212.5t-309 -81.5t-310.5 120.5t-124.5 330.5z" />
    <glyph glyph-name="igrave" unicode="&#xec;" horiz-adv-x="516" 
d="M337 1263l-206 338h214l180 -338h-188zM341 1078h172l-229 -1078h-172z" />
    <glyph glyph-name="iacute" unicode="&#xed;" horiz-adv-x="516" 
d="M693 1601h220l-350 -338h-194zM341 1078h172l-229 -1078h-172z" />
    <glyph glyph-name="icircumflex" unicode="&#xee;" horiz-adv-x="516" 
d="M831 1228h-187l-129 227h-16l-225 -227h-209l354 340h202zM341 1078h172l-229 -1078h-172z" />
    <glyph glyph-name="idieresis" unicode="&#xef;" horiz-adv-x="516" 
d="M686 1228q-25 0 -47 9.5t-38.5 26t-26 38.5t-9.5 47t9.5 47t26 38.5t38.5 26t47 9.5t47 -9.5t38.5 -26t26 -38.5t9.5 -47t-9.5 -47t-26 -38.5t-38.5 -26t-47 -9.5zM282 1228q-25 0 -47 9.5t-38.5 26t-26 38.5t-9.5 47t9.5 47t26 38.5t38.5 26t47 9.5t47 -9.5t38.5 -26
t26 -38.5t9.5 -47t-9.5 -47t-26 -38.5t-38.5 -26t-47 -9.5zM341 1078h172l-229 -1078h-172z" />
    <glyph glyph-name="eth" unicode="&#xf0;" horiz-adv-x="1188" 
d="M981 594q0 144 -83 226.5t-211 82.5q-156 0 -260 -134t-104 -335q0 -138 75.5 -217.5t213.5 -79.5t222 104t115.5 189.5t31.5 163.5zM1174 816q0 -480 -195 -657.5t-391 -177.5t-321.5 120t-125.5 302q0 281 150.5 470t374.5 189q113 0 210 -55.5t132 -143.5l15 -1
q-6 183 -112 385l-351 -106l-7 128l292 89q-40 56 -122 149h191q59 -70 81 -104l233 71l8 -128l-181 -55q119 -253 119 -475z" />
    <glyph glyph-name="ntilde" unicode="&#xf1;" horiz-adv-x="1215" 
d="M1016 1352q88 0 115 139h142q-24 -197 -118.5 -235.5t-141.5 -38.5t-79.5 13.5t-58 34t-45 44.5t-50 58t-69.5 34q-87 0 -114 -139h-142q24 197 118.5 235.5t141.5 38.5t79 -13.5t57 -34t45 -44.5t50.5 -58t69.5 -34zM815 1097q152 0 247 -96.5t95 -227.5q0 -56 -14 -124
l-138 -649h-175l132 619q13 63 13 108q0 96 -63.5 155.5t-177.5 59.5t-203.5 -80t-115.5 -204l-140 -658h-175l229 1078h167l-34 -161h16q125 180 337 180z" />
    <glyph glyph-name="ograve" unicode="&#xf2;" horiz-adv-x="1210" 
d="M635 1263l-206 338h214l180 -338h-188zM155 427q0 283 155.5 476.5t416.5 193.5q197 0 318 -124.5t121 -319.5q0 -273 -153 -472.5t-421 -199.5q-192 0 -314.5 124.5t-122.5 321.5zM338 468q0 -156 75 -244t213 -88t247 136t109 340q0 236 -104 283t-179 47t-144 -37.5
t-117.5 -103.5t-74 -156.5t-25.5 -176.5z" />
    <glyph glyph-name="oacute" unicode="&#xf3;" horiz-adv-x="1210" 
d="M991 1601h220l-350 -338h-194zM155 427q0 283 155.5 476.5t416.5 193.5q197 0 318 -124.5t121 -319.5q0 -273 -153 -472.5t-421 -199.5q-192 0 -314.5 124.5t-122.5 321.5zM338 468q0 -156 75 -244t213 -88t247 136t109 340q0 236 -104 283t-179 47t-144 -37.5
t-117.5 -103.5t-74 -156.5t-25.5 -176.5z" />
    <glyph glyph-name="ocircumflex" unicode="&#xf4;" horiz-adv-x="1210" 
d="M1129 1228h-187l-129 227h-16l-225 -227h-209l354 340h202zM155 427q0 283 155.5 476.5t416.5 193.5q197 0 318 -124.5t121 -319.5q0 -273 -153 -472.5t-421 -199.5q-192 0 -314.5 124.5t-122.5 321.5zM338 468q0 -156 75 -244t213 -88t247 136t109 340q0 236 -104 283
t-179 47t-144 -37.5t-117.5 -103.5t-74 -156.5t-25.5 -176.5z" />
    <glyph glyph-name="otilde" unicode="&#xf5;" horiz-adv-x="1210" 
d="M956 1217q-47 0 -79.5 13.5t-58 34t-45 44.5t-50 58t-69.5 34q-87 0 -114 -139h-142q24 197 118.5 235.5t141.5 38.5t79 -13.5t57 -34t45 -44.5t50.5 -58t69.5 -34q88 0 115 139h142q-24 -197 -118.5 -235.5t-141.5 -38.5zM155 427q0 283 155.5 476.5t416.5 193.5
q197 0 318 -124.5t121 -319.5q0 -273 -153 -472.5t-421 -199.5q-192 0 -314.5 124.5t-122.5 321.5zM338 468q0 -156 75 -244t213 -88t247 136t109 340q0 236 -104 283t-179 47t-144 -37.5t-117.5 -103.5t-74 -156.5t-25.5 -176.5z" />
    <glyph glyph-name="odieresis" unicode="&#xf6;" horiz-adv-x="1210" 
d="M984 1228q-25 0 -47 9.5t-38.5 26t-26 38.5t-9.5 47t9.5 47t26 38.5t38.5 26t47 9.5t47 -9.5t38.5 -26t26 -38.5t9.5 -47t-9.5 -47t-26 -38.5t-38.5 -26t-47 -9.5zM580 1228q-25 0 -47 9.5t-38.5 26t-26 38.5t-9.5 47t9.5 47t26 38.5t38.5 26t47 9.5t47 -9.5t38.5 -26
t26 -38.5t9.5 -47t-9.5 -47t-26 -38.5t-38.5 -26t-47 -9.5zM155 427q0 283 155.5 476.5t416.5 193.5q197 0 318 -124.5t121 -319.5q0 -273 -153 -472.5t-421 -199.5q-192 0 -314.5 124.5t-122.5 321.5zM338 468q0 -156 75 -244t213 -88t247 136t109 340q0 236 -104 283
t-179 47t-144 -37.5t-117.5 -103.5t-74 -156.5t-25.5 -176.5z" />
    <glyph glyph-name="divide" unicode="&#xf7;" horiz-adv-x="1328" 
d="M645 98q-27 0 -50 9.5t-40 26t-26.5 39.5t-9.5 50t9.5 50t26.5 39.5t40 26t50 9.5t49.5 -9.5t39 -26t26 -39.5t9.5 -50t-9.5 -50t-26 -39.5t-39 -26t-49.5 -9.5zM796 812q-27 0 -50 9.5t-40 26t-26.5 39.5t-9.5 50t9.5 50t26.5 39.5t40 26t50 9.5t49.5 -9.5t39 -26
t26 -39.5t9.5 -50t-9.5 -50t-26 -39.5t-39 -26t-49.5 -9.5zM203 506l31 148h1018l-31 -148h-1018z" />
    <glyph glyph-name="oslash" unicode="&#xf8;" horiz-adv-x="1212" 
d="M1166 653q0 -273 -124.5 -434.5t-240 -199.5t-205.5 -38q-165 0 -281 91l-97 -109l-89 69l108 121q-82 116 -82 263q0 294 155.5 487.5t416.5 193.5q166 0 278 -89l99 110l86 -64l-109 -123q85 -113 85 -278zM721 942q-180 0 -281.5 -138t-101.5 -356q0 -82 29 -151
l521 580q-70 65 -167 65zM982 612q0 99 -31 173l-518 -581q74 -68 185 -68q146 0 255 136t109 340z" />
    <glyph glyph-name="ugrave" unicode="&#xf9;" horiz-adv-x="1215" 
d="M676 1263l-206 338h214l180 -338h-188zM848 146q-108 -165 -350 -165q-140 0 -233 89.5t-93 223.5q0 55 15 140l135 644h175l-131 -619q-14 -70 -14 -121q0 -202 219 -202q127 0 220.5 81t122.5 213l138 648h174l-229 -1078h-166l33 146h-16z" />
    <glyph glyph-name="uacute" unicode="&#xfa;" horiz-adv-x="1215" 
d="M1032 1601h220l-350 -338h-194zM848 146q-108 -165 -350 -165q-140 0 -233 89.5t-93 223.5q0 55 15 140l135 644h175l-131 -619q-14 -70 -14 -121q0 -202 219 -202q127 0 220.5 81t122.5 213l138 648h174l-229 -1078h-166l33 146h-16z" />
    <glyph glyph-name="ucircumflex" unicode="&#xfb;" horiz-adv-x="1215" 
d="M1170 1228h-187l-129 227h-16l-225 -227h-209l354 340h202zM848 146q-108 -165 -350 -165q-140 0 -233 89.5t-93 223.5q0 55 15 140l135 644h175l-131 -619q-14 -70 -14 -121q0 -202 219 -202q127 0 220.5 81t122.5 213l138 648h174l-229 -1078h-166l33 146h-16z" />
    <glyph glyph-name="udieresis" unicode="&#xfc;" horiz-adv-x="1215" 
d="M1025 1228q-25 0 -47 9.5t-38.5 26t-26 38.5t-9.5 47t9.5 47t26 38.5t38.5 26t47 9.5t47 -9.5t38.5 -26t26 -38.5t9.5 -47t-9.5 -47t-26 -38.5t-38.5 -26t-47 -9.5zM621 1228q-25 0 -47 9.5t-38.5 26t-26 38.5t-9.5 47t9.5 47t26 38.5t38.5 26t47 9.5t47 -9.5t38.5 -26
t26 -38.5t9.5 -47t-9.5 -47t-26 -38.5t-38.5 -26t-47 -9.5zM848 146q-108 -165 -350 -165q-140 0 -233 89.5t-93 223.5q0 55 15 140l135 644h175l-131 -619q-14 -70 -14 -121q0 -202 219 -202q127 0 220.5 81t122.5 213l138 648h174l-229 -1078h-166l33 146h-16z" />
    <glyph glyph-name="yacute" unicode="&#xfd;" horiz-adv-x="1112" 
d="M992 1601h220l-350 -338h-194zM272 -205q48 41 101 140l39 73l-175 1070h171l128 -857h16l472 857h189l-686 -1196q-90 -159 -172 -216.5t-197 -57.5q-38 0 -118 12l26 147q42 -13 100 -13t106 41z" />
    <glyph glyph-name="thorn" unicode="&#xfe;" horiz-adv-x="1260" 
d="M836 1097q163 0 272.5 -118.5t109.5 -282.5q0 -312 -160 -513.5t-392 -201.5q-115 0 -204.5 60t-118.5 158h-16l-121 -559h-173l397 1866h172l-120 -575h16q123 166 338 166zM1038 654q0 137 -68 212.5t-191 75.5q-167 0 -282 -147t-115 -361q0 -137 73 -217.5t207 -80.5
q72 0 143 39.5t152 147t81 331.5z" />
    <glyph glyph-name="ydieresis" unicode="&#xff;" horiz-adv-x="1112" 
d="M985 1228q-25 0 -47 9.5t-38.5 26t-26 38.5t-9.5 47t9.5 47t26 38.5t38.5 26t47 9.5t47 -9.5t38.5 -26t26 -38.5t9.5 -47t-9.5 -47t-26 -38.5t-38.5 -26t-47 -9.5zM581 1228q-25 0 -47 9.5t-38.5 26t-26 38.5t-9.5 47t9.5 47t26 38.5t38.5 26t47 9.5t47 -9.5t38.5 -26
t26 -38.5t9.5 -47t-9.5 -47t-26 -38.5t-38.5 -26t-47 -9.5zM272 -205q48 41 101 140l39 73l-175 1070h171l128 -857h16l472 857h189l-686 -1196q-90 -159 -172 -216.5t-197 -57.5q-38 0 -118 12l26 147q42 -13 100 -13t106 41z" />
    <glyph glyph-name="Amacron" unicode="&#x100;" horiz-adv-x="1380" 
d="M640 1620l29 136h674l-29 -136h-674zM522 566h473l-95 641h-16zM1015 413h-579l-232 -413h-193l845 1443h167l226 -1443h-176z" />
    <glyph glyph-name="amacron" unicode="&#x101;" horiz-adv-x="1126" 
d="M406 1286l29 136h674l-29 -136h-674zM668 943q-186 0 -239 -135h-182q36 133 153 211t289 78t278.5 -82.5t106.5 -219.5q0 -43 -9 -88l-150 -707h-167l30 141h-16q-57 -75 -142 -117.5t-170 -42.5q-154 0 -249 85.5t-95 212.5q0 242 176.5 295t288.5 58l306 14l16 73
q6 34 6 51q0 82 -61 127.5t-170 45.5zM703.5 201q93.5 71 117.5 182l27 124l-287 -14q-133 -7 -205.5 -58.5t-72.5 -130.5t58 -126.5t163 -47.5q106 0 199.5 71z" />
    <glyph glyph-name="Abreve" unicode="&#x102;" horiz-adv-x="1380" 
d="M639 1873h150v-13q0 -67 56 -111.5t141 -44.5q84 0 141.5 45t77.5 124h154q-25 -135 -128.5 -216.5t-252.5 -81.5t-244 80t-95 208v10zM522 566h473l-95 641h-16zM1015 413h-579l-232 -413h-193l845 1443h167l226 -1443h-176z" />
    <glyph glyph-name="abreve" unicode="&#x103;" horiz-adv-x="1126" 
d="M551 1525q0 -78 53.5 -123t149.5 -45t157 51t75 148h156q-14 -147 -121.5 -237.5t-272.5 -90.5q-166 0 -257.5 80t-91.5 206q0 19 3 42h151q-2 -12 -2 -31zM668 943q-186 0 -239 -135h-182q36 133 153 211t289 78t278.5 -82.5t106.5 -219.5q0 -43 -9 -88l-150 -707h-167
l30 141h-16q-57 -75 -142 -117.5t-170 -42.5q-154 0 -249 85.5t-95 212.5q0 242 176.5 295t288.5 58l306 14l16 73q6 34 6 51q0 82 -61 127.5t-170 45.5zM703.5 201q93.5 71 117.5 182l27 124l-287 -14q-133 -7 -205.5 -58.5t-72.5 -130.5t58 -126.5t163 -47.5
q106 0 199.5 71z" />
    <glyph glyph-name="Aogonek" unicode="&#x104;" horiz-adv-x="1380" 
d="M881 -245q0 158 188 274l-54 384h-579l-232 -413h-193l845 1443h167l223 -1424q-197 -110 -197 -227q0 -90 103 -90q48 0 71 9l-26 -127q-39 -16 -96 -16q-104 0 -162 49.5t-58 137.5zM522 566h473l-95 641h-16z" />
    <glyph glyph-name="aogonek" unicode="&#x105;" horiz-adv-x="1126" 
d="M356 435q-73 -51 -73 -131t58.5 -127t133.5 -47q135 0 228.5 71t117.5 182l27 124l-287 -14q-132 -7 -205 -58zM668 943q-186 0 -239 -135h-182q36 133 153 211t289 78t278.5 -82.5t106.5 -219.5q0 -43 -9 -88l-146 -688q-173 -95 -189 -174t9 -111t79 -32t78 9l-26 -127
q-39 -16 -100 -16q-117 0 -174.5 65.5t-35.5 168.5q27 126 193 211l25 128h-16q-57 -76 -142.5 -118t-169.5 -42q-154 0 -249 86t-95 212q0 242 176.5 295t288.5 58l306 14l16 73q6 30 6 51q0 82 -61 127.5t-170 45.5z" />
    <glyph glyph-name="Cacute" unicode="&#x106;" horiz-adv-x="1466" 
d="M1267 1875h226l-395 -298h-204zM388 573q0 -204 106 -322t287 -118q227 0 308 95.5t101 151.5h190q-54 -193 -219 -303.5t-409 -110.5t-397.5 161t-153.5 493.5t177.5 547t326 262t261.5 47.5q231 0 386 -136t155 -343v-6h-183v2q-12 145 -113 230.5t-281 85.5
q-100 0 -202.5 -56.5t-221 -212.5t-118.5 -468z" />
    <glyph glyph-name="cacute" unicode="&#x107;" horiz-adv-x="1146" 
d="M1018 1601h220l-350 -338h-194zM696 942q-66 0 -134 -37t-146.5 -138.5t-78.5 -305.5q0 -149 72.5 -236t184.5 -87q223 0 288 170h179q-34 -147 -162.5 -237t-316.5 -90t-307 125.5t-119 331.5q0 285 161.5 472t407.5 187q159 0 281.5 -90.5t129 -168.5l7.5 -90h-176
q-8 83 -80.5 138.5t-190.5 55.5z" />
    <glyph glyph-name="Ccircumflex" unicode="&#x108;" horiz-adv-x="1466" 
d="M1321 1577h-185l-105 186h-16l-183 -186h-207l310 298h202zM388 573q0 -204 106 -322t287 -118q227 0 308 95.5t101 151.5h190q-54 -193 -219 -303.5t-409 -110.5t-397.5 161t-153.5 493.5t177.5 547t326 262t261.5 47.5q231 0 386 -136t155 -343v-6h-183v2
q-12 145 -113 230.5t-281 85.5q-100 0 -202.5 -56.5t-221 -212.5t-118.5 -468z" />
    <glyph glyph-name="ccircumflex" unicode="&#x109;" horiz-adv-x="1146" 
d="M1156 1228h-187l-129 227h-16l-225 -227h-209l354 340h202zM696 942q-66 0 -134 -37t-146.5 -138.5t-78.5 -305.5q0 -149 72.5 -236t184.5 -87q223 0 288 170h179q-34 -147 -162.5 -237t-316.5 -90t-307 125.5t-119 331.5q0 285 161.5 472t407.5 187q159 0 281.5 -90.5
t129 -168.5l7.5 -90h-176q-8 83 -80.5 138.5t-190.5 55.5z" />
    <glyph glyph-name="Cdotaccent" unicode="&#x10a;" horiz-adv-x="1466" 
d="M1011 1577q-25 0 -47 9.5t-38.5 26t-26 38.5t-9.5 47t9.5 47t26 38.5t38.5 26t47 9.5t47 -9.5t38.5 -26t26 -38.5t9.5 -47t-9.5 -47t-26 -38.5t-38.5 -26t-47 -9.5zM388 573q0 -204 106 -322t287 -118q227 0 308 95.5t101 151.5h190q-54 -193 -219 -303.5t-409 -110.5
t-397.5 161t-153.5 493.5t177.5 547t326 262t261.5 47.5q231 0 386 -136t155 -343v-6h-183v2q-12 145 -113 230.5t-281 85.5q-100 0 -202.5 -56.5t-221 -212.5t-118.5 -468z" />
    <glyph glyph-name="cdotaccent" unicode="&#x10b;" horiz-adv-x="1146" 
d="M824 1287q-26 0 -49.5 10t-41 27.5t-27.5 41t-10 49.5t10 49t27.5 40.5t41 27.5t49.5 10t49.5 -10t41 -27.5t27.5 -40.5t10 -49t-10 -49.5t-27.5 -41t-41 -27.5t-49.5 -10zM696 942q-66 0 -134 -37t-146.5 -138.5t-78.5 -305.5q0 -149 72.5 -236t184.5 -87q223 0 288 170
h179q-34 -147 -162.5 -237t-316.5 -90t-307 125.5t-119 331.5q0 285 161.5 472t407.5 187q159 0 281.5 -90.5t129 -168.5l7.5 -90h-176q-8 83 -80.5 138.5t-190.5 55.5z" />
    <glyph glyph-name="Ccaron" unicode="&#x10c;" horiz-adv-x="1466" 
d="M710 1875h185l105 -186h16l183 186h207l-310 -298h-202zM388 573q0 -204 106 -322t287 -118q227 0 308 95.5t101 151.5h190q-54 -193 -219 -303.5t-409 -110.5t-397.5 161t-153.5 493.5t177.5 547t326 262t261.5 47.5q231 0 386 -136t155 -343v-6h-183v2
q-12 145 -113 230.5t-281 85.5q-100 0 -202.5 -56.5t-221 -212.5t-118.5 -468z" />
    <glyph glyph-name="ccaron" unicode="&#x10d;" horiz-adv-x="1146" 
d="M696 1228l-210 340h185l129 -227h16l225 227h211l-354 -340h-202zM696 942q-66 0 -134 -37t-146.5 -138.5t-78.5 -305.5q0 -149 72.5 -236t184.5 -87q223 0 288 170h179q-34 -147 -162.5 -237t-316.5 -90t-307 125.5t-119 331.5q0 285 161.5 472t407.5 187
q159 0 281.5 -90.5t129 -168.5l7.5 -90h-176q-8 83 -80.5 138.5t-190.5 55.5z" />
    <glyph glyph-name="Dcaron" unicode="&#x10e;" horiz-adv-x="1486" 
d="M536 1873h185l105 -186h16l183 186h207l-310 -298h-202zM723 160q238 0 395.5 183.5t157.5 459.5q0 227 -120.5 353.5t-336.5 126.5h-239l-239 -1123h382zM833 1443q300 0 464.5 -168t164.5 -463q0 -347 -176 -537.5t-320.5 -232.5t-249.5 -42h-591l305 1443h403z" />
    <glyph glyph-name="dcaron" unicode="&#x10f;" horiz-adv-x="1357" 
d="M993 644q0 137 -73 217.5t-198 80.5q-167 0 -278 -141t-111 -357q0 -137 74 -222.5t205 -85.5q72 0 143.5 39.5t154.5 147t83 321.5zM556 -19q-177 0 -290 120.5t-113 316.5q0 291 160.5 485t395.5 194q115 0 204.5 -60t118.5 -158h16l133 627h175l-320 -1506h-166
l31 147h-16q-59 -77 -148 -121.5t-181 -44.5zM1647 1506l-154 -488h-120l104 488h170z" />
    <glyph glyph-name="Dcroat" unicode="&#x110;" horiz-adv-x="1452" 
d="M833 1443q300 0 464.5 -168t164.5 -463q0 -347 -176 -537.5t-320.5 -232.5t-249.5 -42h-591l140 663h-203l35 163h203l130 617h403zM723 160q238 0 395.5 183.5t157.5 459.5q0 227 -120.5 353.5t-336.5 126.5h-239l-97 -457h200l-35 -163h-200l-107 -503h382z" />
    <glyph glyph-name="dcroat" unicode="&#x111;" horiz-adv-x="1258" 
d="M556 -19q-177 0 -290 120.5t-113 316.5q0 291 160.5 485t395.5 194q115 0 204.5 -60t118.5 -158h16l87 408h-231l26 124h231l20 95h175l-20 -95h150l-26 -124h-151l-273 -1287h-166l31 147h-16q-59 -77 -148 -121.5t-181 -44.5zM993 644q0 137 -73 217.5t-198 80.5
q-167 0 -278 -141t-111 -357q0 -137 74 -222.5t205 -85.5q72 0 143.5 39.5t154.5 147t83 321.5z" />
    <glyph glyph-name="Emacron" unicode="&#x112;" horiz-adv-x="1219" 
d="M578 1620l29 136h674l-29 -136h-674zM1019 0h-896l307 1443h896l-35 -162h-711l-100 -463h675l-34 -160h-674l-106 -496h712z" />
    <glyph glyph-name="emacron" unicode="&#x113;" horiz-adv-x="1170" 
d="M417 1286l29 136h674l-29 -136h-674zM948 692q0 103 -64.5 178t-184.5 75t-209.5 -83t-128.5 -224h585q2 10 2 54zM157 432q0 296 156 480.5t405 184.5q173 0 291.5 -117t118.5 -319q0 -97 -13 -162h-777q-2 -29 -2 -83t46 -166t233 -112q188 0 262 137h183
q-36 -131 -159 -212.5t-309 -81.5t-310.5 120.5t-124.5 330.5z" />
    <glyph glyph-name="Ebreve" unicode="&#x114;" horiz-adv-x="1219" 
d="M577 1873h150v-13q0 -67 56 -111.5t141 -44.5q84 0 141.5 45t77.5 124h154q-25 -135 -128.5 -216.5t-252.5 -81.5t-244 80t-95 208v10zM1019 0h-896l307 1443h896l-35 -162h-711l-100 -463h675l-34 -160h-674l-106 -496h712z" />
    <glyph glyph-name="ebreve" unicode="&#x115;" horiz-adv-x="1170" 
d="M562 1525q0 -78 53.5 -123t149.5 -45t157 51t75 148h156q-14 -147 -121.5 -237.5t-272.5 -90.5q-166 0 -257.5 80t-91.5 206q0 19 3 42h151q-2 -12 -2 -31zM948 692q0 103 -64.5 178t-184.5 75t-209.5 -83t-128.5 -224h585q2 10 2 54zM157 432q0 296 156 480.5t405 184.5
q173 0 291.5 -117t118.5 -319q0 -97 -13 -162h-777q-2 -29 -2 -83t46 -166t233 -112q188 0 262 137h183q-36 -131 -159 -212.5t-309 -81.5t-310.5 120.5t-124.5 330.5z" />
    <glyph glyph-name="Edotaccent" unicode="&#x116;" horiz-adv-x="1219" 
d="M932 1575q-25 0 -47 9.5t-38.5 26t-26 38.5t-9.5 47t9.5 47t26 38.5t38.5 26t47 9.5t47 -9.5t38.5 -26t26 -38.5t9.5 -47t-9.5 -47t-26 -38.5t-38.5 -26t-47 -9.5zM1019 0h-896l307 1443h896l-35 -162h-711l-100 -463h675l-34 -160h-674l-106 -496h712z" />
    <glyph glyph-name="edotaccent" unicode="&#x117;" horiz-adv-x="1170" 
d="M782 1287q-26 0 -49.5 10t-41 27.5t-27.5 41t-10 49.5t10 49t27.5 40.5t41 27.5t49.5 10t49.5 -10t41 -27.5t27.5 -40.5t10 -49t-10 -49.5t-27.5 -41t-41 -27.5t-49.5 -10zM948 692q0 103 -64.5 178t-184.5 75t-209.5 -83t-128.5 -224h585q2 10 2 54zM157 432
q0 296 156 480.5t405 184.5q173 0 291.5 -117t118.5 -319q0 -97 -13 -162h-777q-2 -29 -2 -83t46 -166t233 -112q188 0 262 137h183q-36 -131 -159 -212.5t-309 -81.5t-310.5 120.5t-124.5 330.5z" />
    <glyph glyph-name="Eogonek" unicode="&#x118;" horiz-adv-x="1219" 
d="M614 -245q0 139 145 245h-636l307 1443h896l-35 -162h-711l-100 -463h675l-34 -160h-674l-106 -496h712l-29 -123q-118 -45 -180 -108.5t-62 -138.5q0 -41 28 -65.5t76 -24.5t70 9l-26 -127q-39 -16 -96 -16q-104 0 -162 49.5t-58 137.5z" />
    <glyph glyph-name="eogonek" unicode="&#x119;" horiz-adv-x="1176" 
d="M948 695q0 106 -68 178t-178 72q-183 0 -252.5 -117.5t-88.5 -189.5h585q2 10 2 57zM676 -205q0 -97 122 -97q31 0 45 3l-26 -123q-22 -10 -78 -10q-108 0 -168 52t-60 142q0 103 100 203v16h-16q-197 0 -317.5 124t-120.5 327q0 294 156 479.5t405 185.5
q181 0 295.5 -122t114.5 -314q0 -97 -13 -162h-777q-2 -39 -2 -81t19.5 -99t74 -119t176.5 -62q197 0 271 137h183q-18 -66 -70 -125t-164 -141q-150 -108 -150 -214z" />
    <glyph glyph-name="Ecaron" unicode="&#x11a;" horiz-adv-x="1219" 
d="M631 1873h185l105 -186h16l183 186h207l-310 -298h-202zM1019 0h-896l307 1443h896l-35 -162h-711l-100 -463h675l-34 -160h-674l-106 -496h712z" />
    <glyph glyph-name="ecaron" unicode="&#x11b;" horiz-adv-x="1170" 
d="M654 1228l-210 340h185l129 -227h16l225 227h211l-354 -340h-202zM948 692q0 103 -64.5 178t-184.5 75t-209.5 -83t-128.5 -224h585q2 10 2 54zM157 432q0 296 156 480.5t405 184.5q173 0 291.5 -117t118.5 -319q0 -97 -13 -162h-777q-2 -29 -2 -83t46 -166t233 -112
q188 0 262 137h183q-36 -131 -159 -212.5t-309 -81.5t-310.5 120.5t-124.5 330.5z" />
    <glyph glyph-name="Gcircumflex" unicode="&#x11c;" horiz-adv-x="1528" 
d="M1318 1575h-185l-105 186h-16l-183 -186h-207l310 298h202zM202 562q0 396 177 609t325.5 259.5t259.5 46.5q224 0 376.5 -126t166.5 -323q1 -6 1 -8v-28h-183q-10 145 -112 231.5t-264 86.5q-237 0 -398.5 -209.5t-161.5 -519.5q0 -208 110.5 -328t292.5 -120t308 106.5
t162 283.5l11 55h-400l34 158h584l-42 -196q-60 -281 -232.5 -427.5t-434.5 -146.5t-421 164t-159 432z" />
    <glyph glyph-name="gcircumflex" unicode="&#x11d;" horiz-adv-x="1247" 
d="M1154 1228h-187l-129 227h-16l-225 -227h-209l354 340h202zM614 168q71 0 141 34.5t150 132.5t80 309q0 137 -75 217.5t-202 80.5q-163 0 -266 -128t-103 -341q0 -143 71 -224t204 -81zM159 447q0 285 153 467.5t383 182.5q114 0 209.5 -61.5t127.5 -156.5h16l42 199h167
l-244 -1130q-36 -168 -170 -264.5t-328 -96.5t-316.5 89.5t-132.5 217.5h183q20 -108 114.5 -133t160.5 -25q132 0 214.5 65.5t107.5 176.5l47 200h-16q-117 -162 -326 -162q-167 0 -279.5 121t-112.5 310z" />
    <glyph glyph-name="Gbreve" unicode="&#x11e;" horiz-adv-x="1528" 
d="M653 1873h150v-13q0 -67 56 -111.5t141 -44.5q84 0 141.5 45t77.5 124h154q-25 -135 -128.5 -216.5t-252.5 -81.5t-244 80t-95 208v10zM202 562q0 396 177 609t325.5 259.5t259.5 46.5q224 0 376.5 -126t166.5 -323q1 -6 1 -8v-28h-183q-10 145 -112 231.5t-264 86.5
q-237 0 -398.5 -209.5t-161.5 -519.5q0 -208 110.5 -328t292.5 -120t308 106.5t162 283.5l11 55h-400l34 158h584l-42 -196q-60 -281 -232.5 -427.5t-434.5 -146.5t-421 164t-159 432z" />
    <glyph glyph-name="gbreve" unicode="&#x11f;" horiz-adv-x="1247" 
d="M602 1525q0 -78 53.5 -123t149.5 -45t157 51t75 148h156q-14 -147 -121.5 -237.5t-272.5 -90.5q-166 0 -257.5 80t-91.5 206q0 19 3 42h151q-2 -12 -2 -31zM614 168q71 0 141 34.5t150 132.5t80 309q0 137 -75 217.5t-202 80.5q-163 0 -266 -128t-103 -341
q0 -143 71 -224t204 -81zM159 447q0 285 153 467.5t383 182.5q114 0 209.5 -61.5t127.5 -156.5h16l42 199h167l-244 -1130q-36 -168 -170 -264.5t-328 -96.5t-316.5 89.5t-132.5 217.5h183q20 -108 114.5 -133t160.5 -25q132 0 214.5 65.5t107.5 176.5l47 200h-16
q-117 -162 -326 -162q-167 0 -279.5 121t-112.5 310z" />
    <glyph glyph-name="Gdotaccent" unicode="&#x120;" horiz-adv-x="1528" 
d="M1008 1575q-25 0 -47 9.5t-38.5 26t-26 38.5t-9.5 47t9.5 47t26 38.5t38.5 26t47 9.5t47 -9.5t38.5 -26t26 -38.5t9.5 -47t-9.5 -47t-26 -38.5t-38.5 -26t-47 -9.5zM202 562q0 396 177 609t325.5 259.5t259.5 46.5q224 0 376.5 -126t166.5 -323q1 -6 1 -8v-28h-183
q-10 145 -112 231.5t-264 86.5q-237 0 -398.5 -209.5t-161.5 -519.5q0 -208 110.5 -328t292.5 -120t308 106.5t162 283.5l11 55h-400l34 158h584l-42 -196q-60 -281 -232.5 -427.5t-434.5 -146.5t-421 164t-159 432z" />
    <glyph glyph-name="gdotaccent" unicode="&#x121;" horiz-adv-x="1247" 
d="M822 1287q-26 0 -49.5 10t-41 27.5t-27.5 41t-10 49.5t10 49t27.5 40.5t41 27.5t49.5 10t49.5 -10t41 -27.5t27.5 -40.5t10 -49t-10 -49.5t-27.5 -41t-41 -27.5t-49.5 -10zM614 168q71 0 141 34.5t150 132.5t80 309q0 137 -75 217.5t-202 80.5q-163 0 -266 -128
t-103 -341q0 -143 71 -224t204 -81zM159 447q0 285 153 467.5t383 182.5q114 0 209.5 -61.5t127.5 -156.5h16l42 199h167l-244 -1130q-36 -168 -170 -264.5t-328 -96.5t-316.5 89.5t-132.5 217.5h183q20 -108 114.5 -133t160.5 -25q132 0 214.5 65.5t107.5 176.5l47 200h-16
q-117 -162 -326 -162q-167 0 -279.5 121t-112.5 310z" />
    <glyph glyph-name="Gcommaaccent" unicode="&#x122;" horiz-adv-x="1528" 
d="M503 -518l182 377h182l-197 -377h-167zM202 562q0 396 177 609t325.5 259.5t259.5 46.5q224 0 376.5 -126t166.5 -323q1 -6 1 -8v-28h-183q-10 145 -112 231.5t-264 86.5q-237 0 -398.5 -209.5t-161.5 -519.5q0 -208 110.5 -328t292.5 -120t308 106.5t162 283.5l11 55
h-400l34 158h584l-42 -196q-60 -281 -232.5 -427.5t-434.5 -146.5t-421 164t-159 432z" />
    <glyph glyph-name="gcommaaccent" unicode="&#x123;" horiz-adv-x="1248" 
d="M1255 1663l-182 -377h-182l197 377h167zM614 168q71 0 141 34.5t150 132.5t80 309q0 137 -75 217.5t-202 80.5q-163 0 -266 -128t-103 -341q0 -143 71 -224t204 -81zM159 447q0 285 153 467.5t383 182.5q114 0 209.5 -61.5t127.5 -156.5h16l42 199h167l-244 -1130
q-36 -168 -170 -264.5t-328 -96.5t-316.5 89.5t-132.5 217.5h183q20 -108 114.5 -133t160.5 -25q132 0 214.5 65.5t107.5 176.5l47 200h-16q-117 -162 -326 -162q-167 0 -279.5 121t-112.5 310z" />
    <glyph glyph-name="Hcircumflex" unicode="&#x124;" horiz-adv-x="1522" 
d="M1372 1575h-185l-105 186h-16l-183 -186h-207l310 298h202zM1094 0l140 657h-788l-140 -657h-183l307 1443h184l-133 -624h788l133 624h184l-307 -1443h-185z" />
    <glyph glyph-name="hcircumflex" unicode="&#x125;" horiz-adv-x="1236" 
d="M883 1638h-185l-105 186h-16l-183 -186h-207l310 298h202zM829 1097q154 0 250 -96t96 -228q0 -56 -14 -124l-138 -649h-175l132 619q13 63 13 108q0 96 -64.5 155.5t-180.5 59.5t-206 -79.5t-117 -204.5l-140 -658h-175l322 1506h175l-127 -589h16q125 180 333 180z" />
    <glyph glyph-name="Hbar" unicode="&#x126;" horiz-adv-x="1473" 
d="M1617 1075h-132l-229 -1075h-185l140 657h-788l-140 -657h-183l229 1075h-136l30 143h136l48 225h184l-48 -225h788l48 225h184l-48 -225h132zM1301 1075h-788l-55 -256h788z" />
    <glyph glyph-name="hbar" unicode="&#x127;" horiz-adv-x="1252" 
d="M829 1097q154 0 250 -96t96 -228q0 -56 -14 -124l-138 -649h-175l132 619q13 63 13 108q0 96 -64.5 155.5t-180.5 59.5t-206 -79.5t-117 -204.5l-140 -658h-175l275 1287h-147l26 124h148l20 95h175l-20 -95h233l-26 -124h-234l-80 -370h16q125 180 333 180z" />
    <glyph glyph-name="Itilde" unicode="&#x128;" horiz-adv-x="550" 
d="M582.5 1626.5q-51.5 51.5 -84 81.5t-67.5 30q-89 0 -114 -118h-142q20 118 91.5 185.5t169.5 67.5q97 0 164 -67t90.5 -81.5t45.5 -14.5q90 0 115 118h142q-20 -118 -91.5 -185.5t-169.5 -67.5t-149.5 51.5zM123 0l307 1443h184l-307 -1443h-184z" />
    <glyph glyph-name="itilde" unicode="&#x129;" horiz-adv-x="516" 
d="M658 1217q-47 0 -79.5 13.5t-58 34t-45 44.5t-50 58t-69.5 34q-87 0 -114 -139h-142q24 197 118.5 235.5t141.5 38.5t79 -13.5t57 -34t45 -44.5t50.5 -58t69.5 -34q88 0 115 139h142q-24 -197 -118.5 -235.5t-141.5 -38.5zM341 1078h172l-229 -1078h-172z" />
    <glyph glyph-name="Imacron" unicode="&#x12a;" horiz-adv-x="550" 
d="M223 1620l29 136h674l-29 -136h-674zM123 0l307 1443h184l-307 -1443h-184z" />
    <glyph glyph-name="imacron" unicode="&#x12b;" horiz-adv-x="516" 
d="M134 1286l29 136h674l-29 -136h-674zM341 1078h172l-229 -1078h-172z" />
    <glyph glyph-name="Ibreve" unicode="&#x12c;" horiz-adv-x="550" 
d="M222 1873h150v-13q0 -67 56 -111.5t141 -44.5q84 0 141.5 45t77.5 124h154q-25 -135 -128.5 -216.5t-252.5 -81.5t-244 80t-95 208v10zM123 0l307 1443h184l-307 -1443h-184z" />
    <glyph glyph-name="ibreve" unicode="&#x12d;" horiz-adv-x="516" 
d="M279 1525q0 -78 53.5 -123t149.5 -45t157 51t75 148h156q-14 -147 -121.5 -237.5t-272.5 -90.5q-166 0 -257.5 80t-91.5 206q0 19 3 42h151q-2 -12 -2 -31zM341 1078h172l-229 -1078h-172z" />
    <glyph glyph-name="Iogonek" unicode="&#x12e;" horiz-adv-x="550" 
d="M103 -204q0 -40 27.5 -67t75.5 -27t71 9l-26 -127q-39 -16 -92 -16q-104 0 -164 53.5t-60 143.5q0 127 73 191.5t127 100.5l295 1386h184l-299 -1404q-114 -58 -151.5 -100t-49 -72.5t-11.5 -70.5z" />
    <glyph glyph-name="iogonek" unicode="&#x12f;" horiz-adv-x="516" 
d="M139 -432q-104 0 -164 53.5t-60 143.5q0 126 76.5 191t130.5 101l219 1021h177l-223 -1039q-212 -108 -212 -222q0 -115 103 -115q49 0 71 9l-26 -127q-38 -16 -92 -16zM499 1297q-25 0 -46.5 9.5t-38 26t-26 38t-9.5 46.5t9.5 46.5t26 38t38 26t46.5 9.5t46.5 -9.5
t38 -26t26 -38t9.5 -46.5t-9.5 -46.5t-26 -38t-38 -26t-46.5 -9.5z" />
    <glyph glyph-name="Idotaccent" unicode="&#x130;" horiz-adv-x="550" 
d="M576 1575q-25 0 -47 9.5t-38.5 26t-26 38.5t-9.5 47t9.5 47t26 38.5t38.5 26t47 9.5t47 -9.5t38.5 -26t26 -38.5t9.5 -47t-9.5 -47t-26 -38.5t-38.5 -26t-47 -9.5zM123 0l307 1443h184l-307 -1443h-184z" />
    <glyph glyph-name="dotlessi" unicode="&#x131;" horiz-adv-x="516" 
d="M341 1078h172l-229 -1078h-172z" />
    <glyph glyph-name="u0132" unicode="&#x132;" horiz-adv-x="1650" 
d="M1048 135q208 0 265 269l221 1039h179l-228 -1080q-40 -189 -156.5 -293t-296.5 -104t-289 106t-99 265h181q3 -144 87.5 -173t135.5 -29zM123 0l307 1443h184l-307 -1443h-184z" />
    <glyph glyph-name="u0133" unicode="&#x133;" horiz-adv-x="1032" 
d="M1015 1297q-25 0 -46.5 9.5t-38 26t-26 38t-9.5 46.5t9.5 46.5t26 38t38 26t46.5 9.5t46.5 -9.5t38 -26t26 -38t9.5 -46.5t-9.5 -46.5t-26 -38t-38 -26t-46.5 -9.5zM611 -84l247 1162h172l-252 -1185q-47 -224 -159.5 -257.5t-168.5 -33.5t-98 4l33 152q24 -3 76 -3
q118 0 150 161zM499 1297q-25 0 -46.5 9.5t-38 26t-26 38t-9.5 46.5t9.5 46.5t26 38t38 26t46.5 9.5t46.5 -9.5t38 -26t26 -38t9.5 -46.5t-9.5 -46.5t-26 -38t-38 -26t-46.5 -9.5zM341 1078h176l-231 -1078h-176z" />
    <glyph glyph-name="Jcircumflex" unicode="&#x134;" horiz-adv-x="1102" 
d="M1439 1575h-185l-105 186h-16l-183 -186h-207l310 298h202zM500 135q208 0 265 269l221 1039h179l-228 -1080q-40 -189 -156.5 -293t-296.5 -104t-289 106t-99 265h181q3 -144 87.5 -173t135.5 -29z" />
    <glyph glyph-name="jcircumflex" unicode="&#x135;" horiz-adv-x="516" 
d="M832 1228h-187l-129 227h-16l-225 -227h-209l354 340h202zM95 -84l247 1162h172l-252 -1185q-47 -224 -160 -257.5t-168 -33.5t-98 4l33 152q24 -3 76 -3q118 0 150 161z" />
    <glyph glyph-name="Kcommaaccent" unicode="&#x136;" horiz-adv-x="1349" 
d="M354 -518l182 377h182l-197 -377h-167zM123 0l307 1443h179l-149 -701h16l772 701h235l-702 -635l449 -808h-210l-381 697l-229 -204l-107 -493h-180z" />
    <glyph glyph-name="kcommaaccent" unicode="&#x137;" horiz-adv-x="1112" 
d="M255 -518l182 377h182l-197 -377h-167zM981 1078h227l-565 -465l363 -613h-201l-301 516l-130 -94l-90 -422h-174l320 1506h174l-185 -870h16z" />
    <glyph glyph-name="Lacute" unicode="&#x139;" horiz-adv-x="1164" 
d="M832 1873h226l-395 -298h-204zM1001 0h-878l307 1443h184l-273 -1281h694z" />
    <glyph glyph-name="lacute" unicode="&#x13a;" horiz-adv-x="518" 
d="M829 1936h226l-395 -298h-204zM430 1506h176l-320 -1506h-176z" />
    <glyph glyph-name="Lcommaaccent" unicode="&#x13b;" horiz-adv-x="1164" 
d="M274 -518l182 377h182l-197 -377h-167zM1001 0h-878l307 1443h184l-273 -1281h694z" />
    <glyph glyph-name="lcommaaccent" unicode="&#x13c;" horiz-adv-x="518" 
d="M-89 -518l182 377h182l-197 -377h-167zM430 1506h176l-320 -1506h-176z" />
    <glyph glyph-name="Lcaron" unicode="&#x13d;" horiz-adv-x="1164" 
d="M1001 0h-878l307 1443h184l-273 -1281h694zM983 1443l-154 -488h-120l104 488h170z" />
    <glyph glyph-name="lcaron" unicode="&#x13e;" horiz-adv-x="615" 
d="M430 1506h176l-320 -1506h-176zM899 1506l-154 -488h-120l104 488h170z" />
    <glyph glyph-name="Lslash" unicode="&#x141;" horiz-adv-x="1115" 
d="M1035 162l-34 -162h-878l153 718l-181 -75l30 143l181 75l124 582h184l-106 -498l317 132l-30 -143l-318 -132l-136 -640h694z" />
    <glyph glyph-name="lslash" unicode="&#x142;" horiz-adv-x="516" 
d="M596 851l-142 -62l-168 -789h-176l150 705l-136 -59l30 143l136 59l140 658h176l-122 -574l142 62z" />
    <glyph glyph-name="Nacute" unicode="&#x143;" horiz-adv-x="1520" 
d="M1327 1873h226l-395 -298h-204zM123 0l307 1443h177l534 -1153h16l245 1153h182l-307 -1443h-179l-533 1150h-16l-244 -1150h-182z" />
    <glyph glyph-name="nacute" unicode="&#x144;" horiz-adv-x="1215" 
d="M1048 1601h220l-350 -338h-194zM815 1097q152 0 247 -96.5t95 -227.5q0 -56 -14 -124l-138 -649h-175l132 619q13 63 13 108q0 96 -63.5 155.5t-177.5 59.5t-203.5 -80t-115.5 -204l-140 -658h-175l229 1078h167l-34 -161h16q125 180 337 180z" />
    <glyph glyph-name="Ncommaaccent" unicode="&#x145;" horiz-adv-x="1520" 
d="M412 -518l182 377h182l-197 -377h-167zM123 0l307 1443h177l534 -1153h16l245 1153h182l-307 -1443h-179l-533 1150h-16l-244 -1150h-182z" />
    <glyph glyph-name="ncommaaccent" unicode="&#x146;" horiz-adv-x="1215" 
d="M264 -518l182 377h182l-197 -377h-167zM815 1097q152 0 247 -96.5t95 -227.5q0 -56 -14 -124l-138 -649h-175l132 619q13 63 13 108q0 96 -63.5 155.5t-177.5 59.5t-203.5 -80t-115.5 -204l-140 -658h-175l229 1078h167l-34 -161h16q125 180 337 180z" />
    <glyph glyph-name="Ncaron" unicode="&#x147;" horiz-adv-x="1520" 
d="M770 1873h185l105 -186h16l183 186h207l-310 -298h-202zM123 0l307 1443h177l534 -1153h16l245 1153h182l-307 -1443h-179l-533 1150h-16l-244 -1150h-182z" />
    <glyph glyph-name="ncaron" unicode="&#x148;" horiz-adv-x="1215" 
d="M726 1228l-210 340h185l129 -227h16l225 227h211l-354 -340h-202zM815 1097q152 0 247 -96.5t95 -227.5q0 -56 -14 -124l-138 -649h-175l132 619q13 63 13 108q0 96 -63.5 155.5t-177.5 59.5t-203.5 -80t-115.5 -204l-140 -658h-175l229 1078h167l-34 -161h16
q125 180 337 180z" />
    <glyph glyph-name="Omacron" unicode="&#x14c;" horiz-adv-x="1579" 
d="M678 1618l29 136h674l-29 -136h-674zM1374 834q0 229 -112.5 352.5t-293.5 123.5q-123 0 -229 -55.5t-227 -210.5t-121 -465q0 -200 113.5 -323t296.5 -123q248 0 367.5 152t162.5 286t43 263zM201 563q0 394 222 654t566 260q119 0 226 -45t228 -169t121 -383
q0 -397 -220 -655.5t-564 -258.5q-120 0 -227.5 45t-229.5 169.5t-122 382.5z" />
    <glyph glyph-name="omacron" unicode="&#x14d;" horiz-adv-x="1210" 
d="M432 1286l29 136h674l-29 -136h-674zM155 427q0 283 155.5 476.5t416.5 193.5q197 0 318 -124.5t121 -319.5q0 -273 -153 -472.5t-421 -199.5q-192 0 -314.5 124.5t-122.5 321.5zM338 468q0 -156 75 -244t213 -88t247 136t109 340q0 236 -104 283t-179 47t-144 -37.5
t-117.5 -103.5t-74 -156.5t-25.5 -176.5z" />
    <glyph glyph-name="Obreve" unicode="&#x14e;" horiz-adv-x="1579" 
d="M677 1871h150v-13q0 -67 56 -111.5t141 -44.5q84 0 141.5 45t77.5 124h154q-25 -135 -128.5 -216.5t-252.5 -81.5t-244 80t-95 208v10zM1374 834q0 229 -112.5 352.5t-293.5 123.5q-123 0 -229 -55.5t-227 -210.5t-121 -465q0 -200 113.5 -323t296.5 -123
q248 0 367.5 152t162.5 286t43 263zM201 563q0 394 222 654t566 260q119 0 226 -45t228 -169t121 -383q0 -397 -220 -655.5t-564 -258.5q-120 0 -227.5 45t-229.5 169.5t-122 382.5z" />
    <glyph glyph-name="obreve" unicode="&#x14f;" horiz-adv-x="1210" 
d="M577 1525q0 -78 53.5 -123t149.5 -45t157 51t75 148h156q-14 -147 -121.5 -237.5t-272.5 -90.5q-166 0 -257.5 80t-91.5 206q0 19 3 42h151q-2 -12 -2 -31zM155 427q0 283 155.5 476.5t416.5 193.5q197 0 318 -124.5t121 -319.5q0 -273 -153 -472.5t-421 -199.5
q-192 0 -314.5 124.5t-122.5 321.5zM338 468q0 -156 75 -244t213 -88t247 136t109 340q0 236 -104 283t-179 47t-144 -37.5t-117.5 -103.5t-74 -156.5t-25.5 -176.5z" />
    <glyph glyph-name="Ohungarumlaut" unicode="&#x150;" horiz-adv-x="1579" 
d="M1062 1871h226l-395 -298h-204zM1476 1871h226l-395 -298h-204zM1374 834q0 229 -112.5 352.5t-293.5 123.5q-123 0 -229 -55.5t-227 -210.5t-121 -465q0 -200 113.5 -323t296.5 -123q248 0 367.5 152t162.5 286t43 263zM201 563q0 394 222 654t566 260q119 0 226 -45
t228 -169t121 -383q0 -397 -220 -655.5t-564 -258.5q-120 0 -227.5 45t-229.5 169.5t-122 382.5z" />
    <glyph glyph-name="ohungarumlaut" unicode="&#x151;" horiz-adv-x="1210" 
d="M798 1601h210l-352 -338h-182zM1198 1601h210l-352 -338h-182zM155 427q0 283 155.5 476.5t416.5 193.5q197 0 318 -124.5t121 -319.5q0 -273 -153 -472.5t-421 -199.5q-192 0 -314.5 124.5t-122.5 321.5zM338 468q0 -156 75 -244t213 -88t247 136t109 340
q0 236 -104 283t-179 47t-144 -37.5t-117.5 -103.5t-74 -156.5t-25.5 -176.5z" />
    <glyph glyph-name="OE" unicode="&#x152;" horiz-adv-x="2325" 
d="M796 -34q-261 0 -428 169t-167 428q0 395 223 654.5t558 259.5q161 0 288 -78t189 -202l17 1l52 245h896l-35 -162h-711l-100 -463h675l-34 -160h-674l-106 -496h712l-34 -162h-896l30 140l-16 -1q-79 -77 -191.5 -125t-247.5 -48zM1374 834q0 229 -112.5 352.5
t-293.5 123.5q-123 0 -228.5 -55.5t-227 -209t-121.5 -466.5q0 -201 113 -323.5t297 -122.5q248 0 367.5 152t162.5 285.5t43 263.5z" />
    <glyph glyph-name="oe" unicode="&#x153;" horiz-adv-x="1991" 
d="M338 468q0 -161 77.5 -246.5t215.5 -85.5t244.5 139t106.5 315t-72 264t-199 88q-167 0 -243 -100.5t-103 -192t-27 -181.5zM1763 695q0 106 -68 178t-178 72q-183 0 -252.5 -117.5t-88.5 -189.5h585q2 10 2 57zM1151 416q0 -42 19.5 -98.5t74 -118t176.5 -61.5
q197 0 271 137h183q-36 -134 -163 -214t-279 -80q-291 0 -401 222h-16q-157 -222 -423 -222q-195 0 -316.5 123.5t-121.5 322.5q0 293 160 481.5t412 188.5q131 0 225.5 -59.5t143.5 -172.5h16q144 232 421 232q181 0 295.5 -122t114.5 -314q0 -97 -13 -162h-777
q-2 -41 -2 -83z" />
    <glyph glyph-name="Racute" unicode="&#x154;" horiz-adv-x="1338" 
d="M1144 1873h226l-395 -298h-204zM810 731q159 0 259.5 87.5t100.5 225.5q0 168 -94.5 203.5t-151.5 35.5h-344l-118 -552h348zM929 1443q196 0 313.5 -104t117.5 -275t-106 -297t-281 -168l207 -599h-196l-188 571h-368l-121 -571h-184l307 1443h499z" />
    <glyph glyph-name="racute" unicode="&#x155;" horiz-adv-x="765" 
d="M835 1601h220l-350 -338h-194zM763 1097q86 0 126 -15l-37 -165q-52 13 -136 13q-130 0 -206.5 -71t-108.5 -222l-135 -637h-174l229 1078h166l-29 -137h16q104 156 289 156z" />
    <glyph glyph-name="Rcommaaccent" unicode="&#x156;" horiz-adv-x="1338" 
d="M358 -518l182 377h182l-197 -377h-167zM810 731q159 0 259.5 87.5t100.5 225.5q0 168 -94.5 203.5t-151.5 35.5h-344l-118 -552h348zM929 1443q196 0 313.5 -104t117.5 -275t-106 -297t-281 -168l207 -599h-196l-188 571h-368l-121 -571h-184l307 1443h499z" />
    <glyph glyph-name="rcommaaccent" unicode="&#x157;" horiz-adv-x="765" 
d="M-100 -518l182 377h182l-197 -377h-167zM763 1097q86 0 126 -15l-37 -165q-52 13 -136 13q-130 0 -206.5 -71t-108.5 -222l-135 -637h-174l229 1078h166l-29 -137h16q104 156 289 156z" />
    <glyph glyph-name="Rcaron" unicode="&#x158;" horiz-adv-x="1338" 
d="M587 1873h185l105 -186h16l183 186h207l-310 -298h-202zM810 731q159 0 259.5 87.5t100.5 225.5q0 168 -94.5 203.5t-151.5 35.5h-344l-118 -552h348zM929 1443q196 0 313.5 -104t117.5 -275t-106 -297t-281 -168l207 -599h-196l-188 571h-368l-121 -571h-184l307 1443
h499z" />
    <glyph glyph-name="rcaron" unicode="&#x159;" horiz-adv-x="765" 
d="M513 1228l-210 340h185l129 -227h16l225 227h211l-354 -340h-202zM763 1097q86 0 126 -15l-37 -165q-52 13 -136 13q-130 0 -206.5 -71t-108.5 -222l-135 -637h-174l229 1078h166l-29 -137h16q104 156 289 156z" />
    <glyph glyph-name="Sacute" unicode="&#x15a;" horiz-adv-x="1276" 
d="M1167 1873h226l-395 -298h-204zM915.5 199.5q92.5 70.5 92.5 172.5t-62 163t-201 110l-137 48q-148 52 -229.5 148.5t-81.5 203.5q0 196 146 314t357 118t353.5 -117.5t158.5 -302.5h-181q-28 122 -116 189.5t-221 67.5t-220 -66.5t-87 -156.5q0 -89 56.5 -146
t175.5 -100l130 -47q350 -128 350 -372q0 -213 -150.5 -336.5t-381.5 -123.5t-374.5 116t-173.5 318h182q26 -126 127 -198.5t248 -72.5t239.5 70.5z" />
    <glyph glyph-name="sacute" unicode="&#x15b;" horiz-adv-x="1052" 
d="M916 1601h220l-350 -338h-194zM777 294q0 103 -135 146l-165 53q-250 81 -250 264q0 162 114.5 251t289.5 89q257 0 325.5 -114.5t79.5 -180.5h-171q-17 70 -80 109.5t-135 39.5q-121 0 -185.5 -44.5t-64.5 -105.5q0 -60 38.5 -96t112.5 -60l146 -47q201 -65 229 -151.5
t28 -148.5t-32.5 -121.5t-123 -127.5t-272.5 -68t-299 85.5t-129 222.5h177q20 -72 86.5 -117.5t143.5 -45.5q132 0 202 47.5t70 120.5z" />
    <glyph glyph-name="Scircumflex" unicode="&#x15c;" horiz-adv-x="1276" 
d="M1221 1575h-185l-105 186h-16l-183 -186h-207l310 298h202zM915.5 199.5q92.5 70.5 92.5 172.5t-62 163t-201 110l-137 48q-148 52 -229.5 148.5t-81.5 203.5q0 196 146 314t357 118t353.5 -117.5t158.5 -302.5h-181q-28 122 -116 189.5t-221 67.5t-220 -66.5t-87 -156.5
q0 -89 56.5 -146t175.5 -100l130 -47q350 -128 350 -372q0 -213 -150.5 -336.5t-381.5 -123.5t-374.5 116t-173.5 318h182q26 -126 127 -198.5t248 -72.5t239.5 70.5z" />
    <glyph glyph-name="scircumflex" unicode="&#x15d;" horiz-adv-x="1052" 
d="M1054 1228h-187l-129 227h-16l-225 -227h-209l354 340h202zM777 294q0 103 -135 146l-165 53q-250 81 -250 264q0 162 114.5 251t289.5 89q257 0 325.5 -114.5t79.5 -180.5h-171q-17 70 -80 109.5t-135 39.5q-121 0 -185.5 -44.5t-64.5 -105.5q0 -60 38.5 -96t112.5 -60
l146 -47q201 -65 229 -151.5t28 -148.5t-32.5 -121.5t-123 -127.5t-272.5 -68t-299 85.5t-129 222.5h177q20 -72 86.5 -117.5t143.5 -45.5q132 0 202 47.5t70 120.5z" />
    <glyph glyph-name="Scedilla" unicode="&#x15e;" horiz-adv-x="1276" 
d="M549 -233h-53l13 90l70 113q-190 20 -312 134t-148 296h182q26 -126 127 -198.5t248 -72.5t239.5 70.5t92.5 172.5t-62 163t-201 110l-137 48q-148 52 -229.5 148.5t-81.5 203.5q0 196 146 314t357 118t353.5 -117.5t158.5 -302.5h-181q-28 122 -116 189.5t-221 67.5
t-220 -66.5t-87 -156.5q0 -89 56.5 -146t175.5 -100l130 -47q178 -65 264 -160.5t86 -229.5q0 -182 -132.5 -303t-347.5 -137l-67 -108q179 -20 179 -156q0 -84 -69 -139.5t-172 -55.5t-181 36l23 108q61 -28 128 -28q123 0 123 71t-134 71z" />
    <glyph glyph-name="scedilla" unicode="&#x15f;" horiz-adv-x="1052" 
d="M387 -233h-53l13 90l81 131q-139 20 -229.5 102t-100.5 199h177q20 -72 86.5 -117.5t143.5 -45.5q132 0 202 47.5t70 120.5q0 103 -135 146l-165 53q-250 81 -250 264q0 162 114.5 251t289.5 89q257 0 325.5 -114.5t79.5 -180.5h-171q-17 70 -80 109.5t-135 39.5
q-121 0 -185.5 -44.5t-64.5 -105.5q0 -60 38.5 -96t112.5 -60l146 -47q201 -65 229 -151t28 -146q0 -126 -108 -216t-280 -102l-76 -123q179 -20 179 -156q0 -84 -69 -139.5t-172 -55.5t-181 36l23 108q61 -28 128 -28q123 0 123 71t-134 71z" />
    <glyph glyph-name="Scaron" unicode="&#x160;" horiz-adv-x="1276" 
d="M610 1873h185l105 -186h16l183 186h207l-310 -298h-202zM915.5 199.5q92.5 70.5 92.5 172.5t-62 163t-201 110l-137 48q-148 52 -229.5 148.5t-81.5 203.5q0 196 146 314t357 118t353.5 -117.5t158.5 -302.5h-181q-28 122 -116 189.5t-221 67.5t-220 -66.5t-87 -156.5
q0 -89 56.5 -146t175.5 -100l130 -47q350 -128 350 -372q0 -213 -150.5 -336.5t-381.5 -123.5t-374.5 116t-173.5 318h182q26 -126 127 -198.5t248 -72.5t239.5 70.5z" />
    <glyph glyph-name="scaron" unicode="&#x161;" horiz-adv-x="1052" 
d="M594 1228l-210 340h185l129 -227h16l225 227h211l-354 -340h-202zM777 294q0 103 -135 146l-165 53q-250 81 -250 264q0 162 114.5 251t289.5 89q257 0 325.5 -114.5t79.5 -180.5h-171q-17 70 -80 109.5t-135 39.5q-121 0 -185.5 -44.5t-64.5 -105.5q0 -60 38.5 -96
t112.5 -60l146 -47q201 -65 229 -151.5t28 -148.5t-32.5 -121.5t-123 -127.5t-272.5 -68t-299 85.5t-129 222.5h177q20 -72 86.5 -117.5t143.5 -45.5q132 0 202 47.5t70 120.5z" />
    <glyph glyph-name="Tcedilla" unicode="&#x162;" horiz-adv-x="1298" 
d="M466 -233h-53l13 90l89 143h-21l272 1281h-463l34 162h1110l-34 -162h-463l-272 -1281h-22l-87 -140q179 -20 179 -156q0 -84 -69 -139.5t-172 -55.5t-181 36l23 108q61 -28 128 -28q123 0 123 71t-134 71z" />
    <glyph glyph-name="tcedilla" unicode="&#x163;" horiz-adv-x="744" 
d="M226 210q0 40 11 93l135 631h-181l30 144h182l55 269h175l-57 -269h250l-30 -144h-250l-123 -578q-12 -57 -12 -97q0 -116 136 -116q35 0 69 4l-31 -145q-52 -10 -90 -10t-63 3l-84 -135q179 -20 179 -156q0 -84 -69 -139.5t-172 -55.5t-181 36l23 108q61 -28 128 -28
q123 0 123 71t-134 71h-53l13 90l110 178q-89 55 -89 175z" />
    <glyph glyph-name="Tcaron" unicode="&#x164;" horiz-adv-x="1298" 
d="M653 1873h185l105 -186h16l183 186h207l-310 -298h-202zM494 0l272 1281h-463l34 162h1110l-34 -162h-463l-272 -1281h-184z" />
    <glyph glyph-name="tcaron" unicode="&#x165;" horiz-adv-x="744" 
d="M411 259q0 -116 136 -116q35 0 69 4l-31 -145q-53 -10 -105 -10q-113 0 -183.5 55.5t-70.5 162.5q0 40 11 93l135 631h-181l30 144h182l55 269h175l-57 -269h250l-30 -144h-250l-123 -578q-12 -57 -12 -97zM759 1232l104 488h170l-154 -488h-120z" />
    <glyph glyph-name="Tbar" unicode="&#x166;" horiz-adv-x="1298" 
d="M950 1281l-104 -488h307l-30 -143h-307l-138 -650h-184l138 650h-299l30 143h299l104 488h-463l34 162h1110l-34 -162h-463z" />
    <glyph glyph-name="tbar" unicode="&#x167;" horiz-adv-x="739" 
d="M411 259q0 -116 136 -116q35 0 69 4l-31 -145q-53 -10 -105 -10q-113 0 -183.5 55.5t-70.5 162.5q0 40 11 93l41 192h-180l31 144h180l63 295h-181l30 144h182l55 269h175l-57 -269h250l-30 -144h-250l-63 -295h232l-31 -144h-231l-30 -139q-12 -57 -12 -97z" />
    <glyph glyph-name="Utilde" unicode="&#x168;" horiz-adv-x="1524" 
d="M1068.5 1626.5q-51.5 51.5 -84 81.5t-67.5 30q-89 0 -114 -118h-142q20 118 91.5 185.5t169.5 67.5q97 0 164 -67t90.5 -81.5t45.5 -14.5q90 0 115 118h142q-20 -118 -91.5 -185.5t-169.5 -67.5t-149.5 51.5zM742 -34q-243 0 -399 150t-97 428l188 899h184l-186 -887
q-33 -144 25.5 -284t310.5 -140q161 0 277 95t152 264l203 952h184l-210 -987q-77 -359 -290 -424.5t-342 -65.5z" />
    <glyph glyph-name="utilde" unicode="&#x169;" horiz-adv-x="1215" 
d="M997 1217q-47 0 -79.5 13.5t-58 34t-45 44.5t-50 58t-69.5 34q-87 0 -114 -139h-142q24 197 118.5 235.5t141.5 38.5t79 -13.5t57 -34t45 -44.5t50.5 -58t69.5 -34q88 0 115 139h142q-24 -197 -118.5 -235.5t-141.5 -38.5zM848 146q-108 -165 -350 -165q-140 0 -233 89.5
t-93 223.5q0 55 15 140l135 644h175l-131 -619q-14 -70 -14 -121q0 -202 219 -202q127 0 220.5 81t122.5 213l138 648h174l-229 -1078h-166l33 146h-16z" />
    <glyph glyph-name="Umacron" unicode="&#x16a;" horiz-adv-x="1524" 
d="M709 1620l29 136h674l-29 -136h-674zM742 -34q-243 0 -399 150t-97 428l188 899h184l-186 -887q-33 -144 25.5 -284t310.5 -140q161 0 277 95t152 264l203 952h184l-210 -987q-77 -359 -290 -424.5t-342 -65.5z" />
    <glyph glyph-name="umacron" unicode="&#x16b;" horiz-adv-x="1215" 
d="M473 1286l29 136h674l-29 -136h-674zM848 146q-108 -165 -350 -165q-140 0 -233 89.5t-93 223.5q0 55 15 140l135 644h175l-131 -619q-14 -70 -14 -121q0 -202 219 -202q127 0 220.5 81t122.5 213l138 648h174l-229 -1078h-166l33 146h-16z" />
    <glyph glyph-name="Ubreve" unicode="&#x16c;" horiz-adv-x="1524" 
d="M708 1873h150v-13q0 -67 56 -111.5t141 -44.5q84 0 141.5 45t77.5 124h154q-25 -135 -128.5 -216.5t-252.5 -81.5t-244 80t-95 208v10zM742 -34q-243 0 -399 150t-97 428l188 899h184l-186 -887q-33 -144 25.5 -284t310.5 -140q161 0 277 95t152 264l203 952h184
l-210 -987q-77 -359 -290 -424.5t-342 -65.5z" />
    <glyph glyph-name="ubreve" unicode="&#x16d;" horiz-adv-x="1215" 
d="M618 1525q0 -78 53.5 -123t149.5 -45t157 51t75 148h156q-14 -147 -121.5 -237.5t-272.5 -90.5q-166 0 -257.5 80t-91.5 206q0 19 3 42h151q-2 -12 -2 -31zM848 146q-108 -165 -350 -165q-140 0 -233 89.5t-93 223.5q0 55 15 140l135 644h175l-131 -619q-14 -70 -14 -121
q0 -202 219 -202q127 0 220.5 81t122.5 213l138 648h174l-229 -1078h-166l33 146h-16z" />
    <glyph glyph-name="Uring" unicode="&#x16e;" horiz-adv-x="1524" 
d="M1084 1677q26 0 48.5 9.5t39 26t25.5 39t9 48.5t-9 48.5t-25.5 39t-39 26t-48.5 9.5t-48.5 -9.5t-39 -26t-25.5 -39t-9 -48.5t9 -48.5t25.5 -39t39 -26t48.5 -9.5zM1084 1571q-48 0 -90.5 17.5t-74 48.5t-49.5 73t-18 90t18 90t49.5 73t74 48.5t90.5 17.5t90 -17.5
t73.5 -48.5t50 -73t18.5 -90t-18.5 -90t-50 -73t-73.5 -48.5t-90 -17.5zM742 -34q-243 0 -399 150t-97 428l188 899h184l-186 -887q-33 -144 25.5 -284t310.5 -140q161 0 277 95t152 264l203 952h184l-210 -987q-77 -359 -290 -424.5t-342 -65.5z" />
    <glyph glyph-name="uring" unicode="&#x16f;" horiz-adv-x="1215" 
d="M847 1334q26 0 48.5 9.5t39 26t25.5 39t9 48.5t-9 48.5t-25.5 39t-39 26t-48.5 9.5t-48.5 -9.5t-39 -26t-25.5 -39t-9 -48.5t9 -48.5t25.5 -39t39 -26t48.5 -9.5zM847 1228q-48 0 -90.5 17.5t-74 48.5t-49.5 73t-18 90t18 90t49.5 73t74 48.5t90.5 17.5t90 -17.5
t73.5 -48.5t50 -73t18.5 -90t-18.5 -90t-50 -73t-73.5 -48.5t-90 -17.5zM848 146q-108 -165 -350 -165q-140 0 -233 89.5t-93 223.5q0 55 15 140l135 644h175l-131 -619q-14 -70 -14 -121q0 -202 219 -202q127 0 220.5 81t122.5 213l138 648h174l-229 -1078h-166l33 146h-16
z" />
    <glyph glyph-name="Uhungarumlaut" unicode="&#x170;" horiz-adv-x="1524" 
d="M1093 1873h226l-395 -298h-204zM1507 1873h226l-395 -298h-204zM742 -34q-243 0 -399 150t-97 428l188 899h184l-186 -887q-33 -144 25.5 -284t310.5 -140q161 0 277 95t152 264l203 952h184l-210 -987q-77 -359 -290 -424.5t-342 -65.5z" />
    <glyph glyph-name="uhungarumlaut" unicode="&#x171;" horiz-adv-x="1215" 
d="M839 1601h210l-352 -338h-182zM1239 1601h210l-352 -338h-182zM848 146q-108 -165 -350 -165q-140 0 -233 89.5t-93 223.5q0 55 15 140l135 644h175l-131 -619q-14 -70 -14 -121q0 -202 219 -202q127 0 220.5 81t122.5 213l138 648h174l-229 -1078h-166l33 146h-16z" />
    <glyph glyph-name="Uogonek" unicode="&#x172;" horiz-adv-x="1524" 
d="M907 -205q0 -97 122 -97q34 0 45 3l-26 -123q-22 -10 -80 -10q-108 0 -167 50.5t-59 146.5t93 191v16q-30 -6 -121 -6t-184 31.5t-195 122t-102 294.5q0 73 13 130l188 899h184l-186 -887q-13 -55 -13 -130q0 -143 92 -218.5t256 -75.5t279 96t151 263l203 952h184
l-210 -987q-62 -288 -293 -415q-70 -38 -122 -112t-52 -134z" />
    <glyph glyph-name="uogonek" unicode="&#x173;" horiz-adv-x="1215" 
d="M804 -210q0 -88 100 -88q50 0 74 9l-26 -127q-43 -16 -98 -16q-102 0 -160 49.5t-58 130.5q0 164 198 264l30 134h-16q-50 -78 -141 -121.5t-183 -43.5q-164 0 -258 88.5t-94 224.5q0 65 15 140l135 644h175l-131 -619q-14 -65 -14 -121q0 -202 219 -202
q128 0 221.5 81.5t121.5 212.5l138 648h174l-225 -1059q-197 -107 -197 -229z" />
    <glyph glyph-name="Wcircumflex" unicode="&#x174;" horiz-adv-x="1982" 
d="M1602 1575h-185l-105 186h-16l-183 -186h-207l310 298h202zM601 0h-177l-87 1443h165l58 -1173h12l572 1173h162l94 -1173h12l541 1173h186l-692 -1443h-177l-97 1139h-12z" />
    <glyph glyph-name="wcircumflex" unicode="&#x175;" horiz-adv-x="1586" 
d="M1360 1228h-187l-129 227h-16l-225 -227h-209l354 340h202zM1155 0h-175l-70 827h-16l-411 -827h-174l-72 1078h157l49 -853h16l411 853h175l57 -862h16l396 862h173z" />
    <glyph glyph-name="Ycircumflex" unicode="&#x176;" horiz-adv-x="1344" 
d="M1283 1575h-185l-105 186h-16l-183 -186h-207l310 298h202zM521 0l132 621l-336 822h187l268 -649h16l526 649h207l-692 -848l-124 -595h-184z" />
    <glyph glyph-name="ycircumflex" unicode="&#x177;" horiz-adv-x="1112" 
d="M1130 1228h-187l-129 227h-16l-225 -227h-209l354 340h202zM272 -205q48 41 101 140l39 73l-175 1070h171l128 -857h16l472 857h189l-686 -1196q-90 -159 -172 -216.5t-197 -57.5q-38 0 -118 12l26 147q42 -13 100 -13t106 41z" />
    <glyph glyph-name="Ydieresis" unicode="&#x178;" horiz-adv-x="1344" 
d="M1174 1575q-25 0 -47 9.5t-38.5 26t-26 38.5t-9.5 47t9.5 47t26 38.5t38.5 26t47 9.5t47 -9.5t38.5 -26t26 -38.5t9.5 -47t-9.5 -47t-26 -38.5t-38.5 -26t-47 -9.5zM770 1575q-25 0 -47 9.5t-38.5 26t-26 38.5t-9.5 47t9.5 47t26 38.5t38.5 26t47 9.5t47 -9.5t38.5 -26
t26 -38.5t9.5 -47t-9.5 -47t-26 -38.5t-38.5 -26t-47 -9.5zM521 0l132 621l-336 822h187l268 -649h16l526 649h207l-692 -848l-124 -595h-184z" />
    <glyph glyph-name="Zacute" unicode="&#x179;" horiz-adv-x="1355" 
d="M1229 1873h226l-395 -298h-204zM111 128l1048 1137l4 16h-779l34 162h1022l-27 -128l-1045 -1137l-3 -16h820l-34 -162h-1067z" />
    <glyph glyph-name="zacute" unicode="&#x17a;" horiz-adv-x="1104" 
d="M988 1601h220l-350 -338h-194zM104 126l764 792l3 16h-594l32 144h826l-29 -129l-758 -789l-3 -16h593l-31 -144h-830z" />
    <glyph glyph-name="Zdotaccent" unicode="&#x17b;" horiz-adv-x="1355" 
d="M973 1575q-25 0 -47 9.5t-38.5 26t-26 38.5t-9.5 47t9.5 47t26 38.5t38.5 26t47 9.5t47 -9.5t38.5 -26t26 -38.5t9.5 -47t-9.5 -47t-26 -38.5t-38.5 -26t-47 -9.5zM111 128l1048 1137l4 16h-779l34 162h1022l-27 -128l-1045 -1137l-3 -16h820l-34 -162h-1067z" />
    <glyph glyph-name="zdotaccent" unicode="&#x17c;" horiz-adv-x="1104" 
d="M794 1287q-26 0 -49.5 10t-41 27.5t-27.5 41t-10 49.5t10 49t27.5 40.5t41 27.5t49.5 10t49.5 -10t41 -27.5t27.5 -40.5t10 -49t-10 -49.5t-27.5 -41t-41 -27.5t-49.5 -10zM104 126l764 792l3 16h-594l32 144h826l-29 -129l-758 -789l-3 -16h593l-31 -144h-830z" />
    <glyph glyph-name="Zcaron" unicode="&#x17d;" horiz-adv-x="1355" 
d="M672 1873h185l105 -186h16l183 186h207l-310 -298h-202zM111 128l1048 1137l4 16h-779l34 162h1022l-27 -128l-1045 -1137l-3 -16h820l-34 -162h-1067z" />
    <glyph glyph-name="zcaron" unicode="&#x17e;" horiz-adv-x="1104" 
d="M666 1228l-210 340h185l129 -227h16l225 227h211l-354 -340h-202zM104 126l764 792l3 16h-594l32 144h826l-29 -129l-758 -789l-3 -16h593l-31 -144h-830z" />
    <glyph glyph-name="florin" unicode="&#x192;" horiz-adv-x="1328" 
d="M1281 1316q-83 0 -166.5 -26.5t-141.5 -194.5l-77 -216h369l-31 -144h-390l-144 -408q-97 -270 -229.5 -308t-216.5 -38t-222 45l37 159q101 -45 176 -45q76 0 151.5 20.5t133.5 179.5l141 395h-336l31 144h356l81 227q130 366 464 366q120 0 217 -39l-35 -149
q-85 32 -168 32z" />
    <glyph glyph-name="Ohorn" unicode="&#x1a0;" horiz-adv-x="1662" 
d="M1374 834q0 229 -112.5 352.5t-293.5 123.5q-123 0 -229 -55.5t-227 -210.5t-121 -465q0 -200 113.5 -323t296.5 -123q248 0 367.5 152t162.5 286t43 263zM1546 1157q-30 0 -46 2v-16q64 -123 64 -259t-26.5 -255.5t-100.5 -272.5t-251 -271.5t-415 -118.5t-404 169.5
t-166 427.5q0 394 182.5 607.5t334.5 260t248 46.5t156.5 -14.5t119.5 -41.5t128.5 -83.5t99.5 -56.5q67 0 106.5 34.5t57.5 118.5l37 176h158l-47 -224q-23 -112 -90.5 -170.5t-145.5 -58.5z" />
    <glyph glyph-name="ohorn" unicode="&#x1a1;" horiz-adv-x="1374" 
d="M1166 652q0 -86 -17 -170t-69 -200t-181 -208.5t-314 -92.5t-307.5 124.5t-122.5 321.5q0 283 155.5 476.5t416.5 193.5q148 0 235.5 -64t110 -76t63.5 -12t81.5 35.5t58.5 120.5l37 176h158l-47 -224q-23 -112 -90.5 -170.5t-145.5 -58.5q-30 0 -46 2v-15
q24 -73 24 -159zM338 468q0 -156 75 -244t213 -88t247 136t109 340q0 236 -104 283t-179 47t-144 -37.5t-117.5 -103.5t-74 -156.5t-25.5 -176.5z" />
    <glyph glyph-name="Uhorn" unicode="&#x1af;" horiz-adv-x="1770" 
d="M1739 1325q34 34 52 119l37 176h158l-48 -224q-27 -125 -104.5 -185t-168.5 -60t-136 31l-155 -726q-77 -359 -290 -424.5t-342 -65.5q-243 0 -399 150t-97 428l188 899h184l-186 -887q-33 -144 25.5 -284t310.5 -140q161 0 277 95t152 264l203 952h184l-26 -125
q31 -27 89 -27t92 34z" />
    <glyph glyph-name="uhorn" unicode="&#x1b0;" horiz-adv-x="1461" 
d="M848 146q-108 -165 -350 -165q-140 0 -233 89.5t-93 223.5q0 55 15 140l135 644h175l-131 -619q-14 -70 -14 -121q0 -202 219 -202q127 0 220.5 81t122.5 213l138 648h174l-25 -120q26 -15 62 -15q67 0 101 34t52 119l37 176h158l-48 -224q-27 -125 -104.5 -185
t-187.5 -60q-59 0 -99 21l-175 -824h-166l33 146h-16z" />
    <glyph glyph-name="u01C4" unicode="&#x1c4;" horiz-adv-x="2842" 
d="M2159 1873h185l105 -186h16l183 186h207l-310 -298h-202zM1598 128l1048 1137l4 16h-779l34 162h1022l-27 -128l-1045 -1137l-3 -16h820l-34 -162h-1067zM723 160q238 0 395.5 183.5t157.5 459.5q0 227 -120.5 353.5t-336.5 126.5h-239l-239 -1123h382zM833 1443
q300 0 464.5 -168t164.5 -463q0 -347 -176 -537.5t-320.5 -232.5t-249.5 -42h-591l305 1443h403z" />
    <glyph glyph-name="u01C5" unicode="&#x1c5;" horiz-adv-x="2591" 
d="M2153 1228l-210 340h185l129 -227h16l225 227h211l-354 -340h-202zM1591 126l764 792l3 16h-594l32 144h826l-29 -129l-758 -789l-3 -16h593l-31 -144h-830zM723 160q238 0 395.5 183.5t157.5 459.5q0 227 -120.5 353.5t-336.5 126.5h-239l-239 -1123h382zM833 1443
q300 0 464.5 -168t164.5 -463q0 -347 -176 -537.5t-320.5 -232.5t-249.5 -42h-591l305 1443h403z" />
    <glyph glyph-name="u01C6" unicode="&#x1c6;" horiz-adv-x="2362" 
d="M1924 1228l-210 340h185l129 -227h16l225 227h211l-354 -340h-202zM1362 126l764 792l3 16h-594l32 144h826l-29 -129l-758 -789l-3 -16h593l-31 -144h-830zM993 644q0 137 -73 217.5t-198 80.5q-167 0 -278 -141t-111 -357q0 -137 74 -222.5t205 -85.5q72 0 143.5 39.5
t154.5 147t83 321.5zM556 -19q-177 0 -290 120.5t-113 316.5q0 291 160.5 485t395.5 194q115 0 204.5 -60t118.5 -158h16l133 627h175l-320 -1506h-166l31 147h-16q-59 -77 -148 -121.5t-181 -44.5z" />
    <glyph glyph-name="u01C7" unicode="&#x1c7;" horiz-adv-x="2265" 
d="M1663 135q208 0 265 269l221 1039h179l-228 -1080q-40 -189 -156.5 -293t-296.5 -104t-289 106t-99 265h181q3 -144 87.5 -173t135.5 -29zM1001 0h-878l307 1443h184l-273 -1281h694z" />
    <glyph glyph-name="u01C8" unicode="&#x1c8;" horiz-adv-x="1679" 
d="M1662 1297q-25 0 -46.5 9.5t-38 26t-26 38t-9.5 46.5t9.5 46.5t26 38t38 26t46.5 9.5t46.5 -9.5t38 -26t26 -38t9.5 -46.5t-9.5 -46.5t-26 -38t-38 -26t-46.5 -9.5zM1258 -84l247 1162h172l-252 -1185q-47 -224 -160 -257.5t-169 -33.5t-97 4l33 152q24 -3 76 -3
q118 0 150 161zM1001 0h-878l307 1443h184l-273 -1281h694z" />
    <glyph glyph-name="u01C9" unicode="&#x1c9;" horiz-adv-x="1032" 
d="M1015 1297q-25 0 -46.5 9.5t-38 26t-26 38t-9.5 46.5t9.5 46.5t26 38t38 26t46.5 9.5t46.5 -9.5t38 -26t26 -38t9.5 -46.5t-9.5 -46.5t-26 -38t-38 -26t-46.5 -9.5zM611 -84l247 1162h172l-252 -1185q-47 -224 -159.5 -257.5t-168.5 -33.5t-98 4l33 152q24 -3 76 -3
q118 0 150 161zM430 1506h176l-320 -1506h-176z" />
    <glyph glyph-name="u01CA" unicode="&#x1ca;" horiz-adv-x="2622" 
d="M2020 135q208 0 265 269l221 1039h179l-228 -1080q-40 -189 -156.5 -293t-296.5 -104t-289 106t-99 265h181q3 -144 87.5 -173t135.5 -29zM123 0l307 1443h177l534 -1153h16l245 1153h182l-307 -1443h-179l-533 1150h-16l-244 -1150h-182z" />
    <glyph glyph-name="u01CB" unicode="&#x1cb;" horiz-adv-x="2036" 
d="M2019 1297q-25 0 -46.5 9.5t-38 26t-26 38t-9.5 46.5t9.5 46.5t26 38t38 26t46.5 9.5t46.5 -9.5t38 -26t26 -38t9.5 -46.5t-9.5 -46.5t-26 -38t-38 -26t-46.5 -9.5zM1615 -84l247 1162h172l-252 -1185q-47 -224 -159.5 -257.5t-168.5 -33.5t-98 4l33 152q24 -3 76 -3
q118 0 150 161zM123 0l307 1443h177l534 -1153h16l245 1153h182l-307 -1443h-179l-533 1150h-16l-244 -1150h-182z" />
    <glyph glyph-name="u01CC" unicode="&#x1cc;" horiz-adv-x="1737" 
d="M1720 1297q-25 0 -46.5 9.5t-38 26t-26 38t-9.5 46.5t9.5 46.5t26 38t38 26t46.5 9.5t46.5 -9.5t38 -26t26 -38t9.5 -46.5t-9.5 -46.5t-26 -38t-38 -26t-46.5 -9.5zM1316 -84l247 1162h172l-252 -1185q-47 -224 -160 -257.5t-169 -33.5t-97 4l33 152q24 -3 76 -3
q118 0 150 161zM815 1097q152 0 247 -96.5t95 -227.5q0 -56 -14 -124l-138 -649h-175l132 619q13 63 13 108q0 96 -63.5 155.5t-177.5 59.5t-203.5 -80t-115.5 -204l-140 -658h-175l229 1078h167l-34 -161h16q125 180 337 180z" />
    <glyph glyph-name="Acaron" unicode="&#x1cd;" horiz-adv-x="1380" 
d="M693 1873h185l105 -186h16l183 186h207l-310 -298h-202zM522 566h473l-95 641h-16zM1015 413h-579l-232 -413h-193l845 1443h167l226 -1443h-176z" />
    <glyph glyph-name="acaron" unicode="&#x1ce;" horiz-adv-x="1126" 
d="M643 1228l-210 340h185l129 -227h16l225 227h211l-354 -340h-202zM668 943q-186 0 -239 -135h-182q36 133 153 211t289 78t278.5 -82.5t106.5 -219.5q0 -43 -9 -88l-150 -707h-167l30 141h-16q-57 -75 -142 -117.5t-170 -42.5q-154 0 -249 85.5t-95 212.5
q0 242 176.5 295t288.5 58l306 14l16 73q6 34 6 51q0 82 -61 127.5t-170 45.5zM703.5 201q93.5 71 117.5 182l27 124l-287 -14q-133 -7 -205.5 -58.5t-72.5 -130.5t58 -126.5t163 -47.5q106 0 199.5 71z" />
    <glyph glyph-name="Icaron" unicode="&#x1cf;" horiz-adv-x="550" 
d="M276 1873h185l105 -186h16l183 186h207l-310 -298h-202zM123 0l307 1443h184l-307 -1443h-184z" />
    <glyph glyph-name="icaron" unicode="&#x1d0;" horiz-adv-x="516" 
d="M371 1228l-210 340h185l129 -227h16l225 227h211l-354 -340h-202zM341 1078h172l-229 -1078h-172z" />
    <glyph glyph-name="Ocaron" unicode="&#x1d1;" horiz-adv-x="1579" 
d="M731 1871h185l105 -186h16l183 186h207l-310 -298h-202zM1374 834q0 229 -112.5 352.5t-293.5 123.5q-123 0 -229 -55.5t-227 -210.5t-121 -465q0 -200 113.5 -323t296.5 -123q248 0 367.5 152t162.5 286t43 263zM201 563q0 394 222 654t566 260q119 0 226 -45t228 -169
t121 -383q0 -397 -220 -655.5t-564 -258.5q-120 0 -227.5 45t-229.5 169.5t-122 382.5z" />
    <glyph glyph-name="ocaron" unicode="&#x1d2;" horiz-adv-x="1210" 
d="M669 1228l-210 340h185l129 -227h16l225 227h211l-354 -340h-202zM155 427q0 283 155.5 476.5t416.5 193.5q197 0 318 -124.5t121 -319.5q0 -273 -153 -472.5t-421 -199.5q-192 0 -314.5 124.5t-122.5 321.5zM338 468q0 -156 75 -244t213 -88t247 136t109 340
q0 236 -104 283t-179 47t-144 -37.5t-117.5 -103.5t-74 -156.5t-25.5 -176.5z" />
    <glyph glyph-name="Ucaron" unicode="&#x1d3;" horiz-adv-x="1524" 
d="M762 1873h185l105 -186h16l183 186h207l-310 -298h-202zM742 -34q-243 0 -399 150t-97 428l188 899h184l-186 -887q-33 -144 25.5 -284t310.5 -140q161 0 277 95t152 264l203 952h184l-210 -987q-77 -359 -290 -424.5t-342 -65.5z" />
    <glyph glyph-name="ucaron" unicode="&#x1d4;" horiz-adv-x="1215" 
d="M710 1228l-210 340h185l129 -227h16l225 227h211l-354 -340h-202zM848 146q-108 -165 -350 -165q-140 0 -233 89.5t-93 223.5q0 55 15 140l135 644h175l-131 -619q-14 -70 -14 -121q0 -202 219 -202q127 0 220.5 81t122.5 213l138 648h174l-229 -1078h-166l33 146h-16z
" />
    <glyph glyph-name="Udieresismacron" unicode="&#x1d5;" horiz-adv-x="1524" 
d="M1267 1575q-24 0 -45.5 9t-37.5 25t-25 37.5t-9 45.5t9 45.5t25 37.5t37.5 25t45.5 9t45.5 -9t37.5 -25t25 -37.5t9 -45.5t-9 -45.5t-25 -37.5t-37.5 -25t-45.5 -9zM863 1575q-24 0 -45.5 9t-37.5 25t-25 37.5t-9 45.5t9 45.5t25 37.5t37.5 25t45.5 9t45.5 -9t37.5 -25
t25 -37.5t9 -45.5t-9 -45.5t-25 -37.5t-37.5 -25t-45.5 -9zM803 2062h674l-28 -130h-674zM742 -34q-243 0 -399 150t-97 428l188 899h184l-186 -887q-33 -144 25.5 -284t310.5 -140q161 0 277 95t152 264l203 952h184l-210 -987q-77 -359 -290 -424.5t-342 -65.5z" />
    <glyph glyph-name="udieresismacron" unicode="&#x1d6;" horiz-adv-x="1215" 
d="M544 1620l29 136h674l-29 -136h-674zM1024 1228q-24 0 -45.5 9t-37.5 25t-25 37.5t-9 45.5t9 45.5t25 37.5t37.5 25t45.5 9t45.5 -9t37.5 -25t25 -37.5t9 -45.5t-9 -45.5t-25 -37.5t-37.5 -25t-45.5 -9zM620 1228q-24 0 -45.5 9t-37.5 25t-25 37.5t-9 45.5t9 45.5
t25 37.5t37.5 25t45.5 9t45.5 -9t37.5 -25t25 -37.5t9 -45.5t-9 -45.5t-25 -37.5t-37.5 -25t-45.5 -9zM848 146q-108 -165 -350 -165q-140 0 -233 89.5t-93 223.5q0 55 15 140l135 644h175l-131 -619q-14 -70 -14 -121q0 -202 219 -202q127 0 220.5 81t122.5 213l138 648
h174l-229 -1078h-166l33 146h-16z" />
    <glyph glyph-name="Udieresisacute" unicode="&#x1d7;" horiz-adv-x="1524" 
d="M1264 1575q-25 0 -47 9.5t-38.5 26t-26 38.5t-9.5 47t9.5 47t26 38.5t38.5 26t47 9.5t47 -9.5t38.5 -26t26 -38.5t9.5 -47t-9.5 -47t-26 -38.5t-38.5 -26t-47 -9.5zM860 1575q-25 0 -47 9.5t-38.5 26t-26 38.5t-9.5 47t9.5 47t26 38.5t38.5 26t47 9.5t47 -9.5t38.5 -26
t26 -38.5t9.5 -47t-9.5 -47t-26 -38.5t-38.5 -26t-47 -9.5zM1251 2095h227l-328 -222h-176zM742 -34q-243 0 -399 150t-97 428l188 899h184l-186 -887q-33 -144 25.5 -284t310.5 -140q161 0 277 95t152 264l203 952h184l-210 -987q-77 -359 -290 -424.5t-342 -65.5z" />
    <glyph glyph-name="udieresisacute" unicode="&#x1d8;" horiz-adv-x="1215" 
d="M1025 1228q-25 0 -47 9.5t-38.5 26t-26 38.5t-9.5 47t9.5 47t26 38.5t38.5 26t47 9.5t47 -9.5t38.5 -26t26 -38.5t9.5 -47t-9.5 -47t-26 -38.5t-38.5 -26t-47 -9.5zM621 1228q-25 0 -47 9.5t-38.5 26t-26 38.5t-9.5 47t9.5 47t26 38.5t38.5 26t47 9.5t47 -9.5t38.5 -26
t26 -38.5t9.5 -47t-9.5 -47t-26 -38.5t-38.5 -26t-47 -9.5zM1000 1873h198l-281 -298h-170zM848 146q-108 -165 -350 -165q-140 0 -233 89.5t-93 223.5q0 55 15 140l135 644h175l-131 -619q-14 -70 -14 -121q0 -202 219 -202q127 0 220.5 81t122.5 213l138 648h174
l-229 -1078h-166l33 146h-16z" />
    <glyph glyph-name="Udieresiscaron" unicode="&#x1d9;" horiz-adv-x="1524" 
d="M763 2095h212l135 -136h16l192 136h233l-342 -233h-202zM1264 1575q-24 0 -45.5 9t-37.5 25t-25 37.5t-9 45.5t9 45.5t25 37.5t37.5 25t45.5 9t45.5 -9t37.5 -25t25 -37.5t9 -45.5t-9 -45.5t-25 -37.5t-37.5 -25t-45.5 -9zM860 1575q-24 0 -45.5 9t-37.5 25t-25 37.5
t-9 45.5t9 45.5t25 37.5t37.5 25t45.5 9t45.5 -9t37.5 -25t25 -37.5t9 -45.5t-9 -45.5t-25 -37.5t-37.5 -25t-45.5 -9zM742 -34q-243 0 -399 150t-97 428l188 899h184l-186 -887q-33 -144 25.5 -284t310.5 -140q161 0 277 95t152 264l203 952h184l-210 -987
q-77 -359 -290 -424.5t-342 -65.5z" />
    <glyph glyph-name="udieresiscaron" unicode="&#x1da;" horiz-adv-x="1215" 
d="M531 1895h184l118 -207h16l205 207h211l-334 -320h-202zM1024 1228q-24 0 -45.5 9t-37.5 25t-25 37.5t-9 45.5t9 45.5t25 37.5t37.5 25t45.5 9t45.5 -9t37.5 -25t25 -37.5t9 -45.5t-9 -45.5t-25 -37.5t-37.5 -25t-45.5 -9zM620 1228q-24 0 -45.5 9t-37.5 25t-25 37.5
t-9 45.5t9 45.5t25 37.5t37.5 25t45.5 9t45.5 -9t37.5 -25t25 -37.5t9 -45.5t-9 -45.5t-25 -37.5t-37.5 -25t-45.5 -9zM848 146q-108 -165 -350 -165q-140 0 -233 89.5t-93 223.5q0 55 15 140l135 644h175l-131 -619q-14 -70 -14 -121q0 -202 219 -202q127 0 220.5 81
t122.5 213l138 648h174l-229 -1078h-166l33 146h-16z" />
    <glyph glyph-name="Udieresisgrave" unicode="&#x1db;" horiz-adv-x="1524" 
d="M1264 1575q-25 0 -47 9.5t-38.5 26t-26 38.5t-9.5 47t9.5 47t26 38.5t38.5 26t47 9.5t47 -9.5t38.5 -26t26 -38.5t9.5 -47t-9.5 -47t-26 -38.5t-38.5 -26t-47 -9.5zM860 1575q-25 0 -47 9.5t-38.5 26t-26 38.5t-9.5 47t9.5 47t26 38.5t38.5 26t47 9.5t47 -9.5t38.5 -26
t26 -38.5t9.5 -47t-9.5 -47t-26 -38.5t-38.5 -26t-47 -9.5zM982 1873l-234 222h227l183 -222h-176zM742 -34q-243 0 -399 150t-97 428l188 899h184l-186 -887q-33 -144 25.5 -284t310.5 -140q161 0 277 95t152 264l203 952h184l-210 -987q-77 -359 -290 -424.5t-342 -65.5z
" />
    <glyph glyph-name="udieresisgrave" unicode="&#x1dc;" horiz-adv-x="1215" 
d="M1025 1228q-25 0 -47 9.5t-38.5 26t-26 38.5t-9.5 47t9.5 47t26 38.5t38.5 26t47 9.5t47 -9.5t38.5 -26t26 -38.5t9.5 -47t-9.5 -47t-26 -38.5t-38.5 -26t-47 -9.5zM621 1228q-25 0 -47 9.5t-38.5 26t-26 38.5t-9.5 47t9.5 47t26 38.5t38.5 26t47 9.5t47 -9.5t38.5 -26
t26 -38.5t9.5 -47t-9.5 -47t-26 -38.5t-38.5 -26t-47 -9.5zM747 1575l-155 298h198l127 -298h-170zM848 146q-108 -165 -350 -165q-140 0 -233 89.5t-93 223.5q0 55 15 140l135 644h175l-131 -619q-14 -70 -14 -121q0 -202 219 -202q127 0 220.5 81t122.5 213l138 648h174
l-229 -1078h-166l33 146h-16z" />
    <glyph glyph-name="Adieresismacron" unicode="&#x1de;" horiz-adv-x="1380" 
d="M1198 1575q-24 0 -45.5 9t-37.5 25t-25 37.5t-9 45.5t9 45.5t25 37.5t37.5 25t45.5 9t45.5 -9t37.5 -25t25 -37.5t9 -45.5t-9 -45.5t-25 -37.5t-37.5 -25t-45.5 -9zM794 1575q-24 0 -45.5 9t-37.5 25t-25 37.5t-9 45.5t9 45.5t25 37.5t37.5 25t45.5 9t45.5 -9t37.5 -25
t25 -37.5t9 -45.5t-9 -45.5t-25 -37.5t-37.5 -25t-45.5 -9zM734 2062h674l-28 -130h-674zM522 566h473l-95 641h-16zM1015 413h-579l-232 -413h-193l845 1443h167l226 -1443h-176z" />
    <glyph glyph-name="adieresismacron" unicode="&#x1df;" horiz-adv-x="1126" 
d="M477 1620l29 136h674l-29 -136h-674zM957 1228q-24 0 -45.5 9t-37.5 25t-25 37.5t-9 45.5t9 45.5t25 37.5t37.5 25t45.5 9t45.5 -9t37.5 -25t25 -37.5t9 -45.5t-9 -45.5t-25 -37.5t-37.5 -25t-45.5 -9zM553 1228q-24 0 -45.5 9t-37.5 25t-25 37.5t-9 45.5t9 45.5t25 37.5
t37.5 25t45.5 9t45.5 -9t37.5 -25t25 -37.5t9 -45.5t-9 -45.5t-25 -37.5t-37.5 -25t-45.5 -9zM668 943q-186 0 -239 -135h-182q36 133 153 211t289 78t278.5 -82.5t106.5 -219.5q0 -43 -9 -88l-150 -707h-167l30 141h-16q-57 -75 -142 -117.5t-170 -42.5q-154 0 -249 85.5
t-95 212.5q0 242 176.5 295t288.5 58l306 14l16 73q6 34 6 51q0 82 -61 127.5t-170 45.5zM703.5 201q93.5 71 117.5 182l27 124l-287 -14q-133 -7 -205.5 -58.5t-72.5 -130.5t58 -126.5t163 -47.5q106 0 199.5 71z" />
    <glyph glyph-name="Adotmacron" unicode="&#x1e0;" horiz-adv-x="1380" 
d="M993 1577q-25 0 -46.5 9.5t-37.5 25.5t-25.5 37.5t-9.5 46.5t9.5 46.5t25.5 37.5t37.5 25.5t46.5 9.5t46.5 -9.5t37.5 -25.5t25.5 -37.5t9.5 -46.5t-9.5 -46.5t-25.5 -37.5t-37.5 -25.5t-46.5 -9.5zM706 1932l28 130h674l-28 -130h-674zM522 566h473l-95 641h-16z
M1015 413h-579l-232 -413h-193l845 1443h167l226 -1443h-176z" />
    <glyph glyph-name="adotmacron" unicode="&#x1e1;" horiz-adv-x="1126" 
d="M477 1620l29 136h674l-29 -136h-674zM752 1228q-25 0 -47 9t-38 25t-25 38t-9 47t9 47t25 38t38 25t47 9t47 -9t38 -25t25 -38t9 -47t-9 -47t-25 -38t-38 -25t-47 -9zM668 943q-186 0 -239 -135h-182q36 133 153 211t289 78t278.5 -82.5t106.5 -219.5q0 -43 -9 -88
l-150 -707h-167l30 141h-16q-57 -75 -142 -117.5t-170 -42.5q-154 0 -249 85.5t-95 212.5q0 242 176.5 295t288.5 58l306 14l16 73q6 34 6 51q0 82 -61 127.5t-170 45.5zM703.5 201q93.5 71 117.5 182l27 124l-287 -14q-133 -7 -205.5 -58.5t-72.5 -130.5t58 -126.5
t163 -47.5q106 0 199.5 71z" />
    <glyph glyph-name="AEmacron" unicode="&#x1e2;" horiz-adv-x="1966" 
d="M1079 1620l29 136h674l-29 -136h-674zM1030 459h-527l-307 -459h-187l958 1443h1110l-35 -162h-658l-100 -473h621l-34 -160h-621l-104 -486h658l-34 -162h-838zM1060 1292l-455 -680h457l145 680h-147z" />
    <glyph glyph-name="aemacron" unicode="&#x1e3;" horiz-adv-x="1874" 
d="M775 1286l29 136h674l-29 -136h-674zM703.5 201q93.5 71 117.5 182l27 124l-287 -14q-133 -7 -205.5 -58.5t-72.5 -130.5t58 -126.5t163 -47.5q106 0 199.5 71zM1638 692q0 103 -64.5 178t-184.5 75t-209.5 -83t-128.5 -224h585q2 10 2 54zM1291 -19q-145 0 -252.5 66
t-150.5 174h-15q-59 -101 -173 -170.5t-256 -69.5t-240 85t-98 213q0 242 176.5 295t288.5 58l306 14l16 73q6 34 6 51q0 82 -61 127.5t-170 45.5q-186 0 -239 -135h-182q36 133 153 211t282 78q255 0 346 -168h16q141 168 364 168q173 0 291.5 -117t118.5 -319
q0 -97 -13 -162h-777q-2 -27 -2 -83t24 -114t80 -111t166 -53q197 0 271 137h183q-56 -204 -217.5 -249t-241.5 -45z" />
    <glyph glyph-name="Gcaron" unicode="&#x1e6;" horiz-adv-x="1528" 
d="M707 1873h185l105 -186h16l183 186h207l-310 -298h-202zM202 562q0 396 177 609t325.5 259.5t259.5 46.5q224 0 376.5 -126t166.5 -323q1 -6 1 -8v-28h-183q-10 145 -112 231.5t-264 86.5q-237 0 -398.5 -209.5t-161.5 -519.5q0 -208 110.5 -328t292.5 -120t308 106.5
t162 283.5l11 55h-400l34 158h584l-42 -196q-60 -281 -232.5 -427.5t-434.5 -146.5t-421 164t-159 432z" />
    <glyph glyph-name="gcaron" unicode="&#x1e7;" horiz-adv-x="1247" 
d="M694 1228l-210 340h185l129 -227h16l225 227h211l-354 -340h-202zM614 168q71 0 141 34.5t150 132.5t80 309q0 137 -75 217.5t-202 80.5q-163 0 -266 -128t-103 -341q0 -143 71 -224t204 -81zM159 447q0 285 153 467.5t383 182.5q114 0 209.5 -61.5t127.5 -156.5h16
l42 199h167l-244 -1130q-36 -168 -170 -264.5t-328 -96.5t-316.5 89.5t-132.5 217.5h183q20 -108 114.5 -133t160.5 -25q132 0 214.5 65.5t107.5 176.5l47 200h-16q-117 -162 -326 -162q-167 0 -279.5 121t-112.5 310z" />
    <glyph glyph-name="Kcaron" unicode="&#x1e8;" horiz-adv-x="1349" 
d="M642 1873h185l105 -186h16l183 186h207l-310 -298h-202zM123 0l307 1443h179l-149 -701h16l772 701h235l-702 -635l449 -808h-210l-381 697l-229 -204l-107 -493h-180z" />
    <glyph glyph-name="kcaron" unicode="&#x1e9;" horiz-adv-x="1112" 
d="M216 1936h185l105 -186h16l183 186h207l-310 -298h-202zM981 1078h227l-565 -465l363 -613h-201l-301 516l-130 -94l-90 -422h-174l320 1506h174l-185 -870h16z" />
    <glyph glyph-name="Oogonek" unicode="&#x1ea;" horiz-adv-x="1579" 
d="M1374 834q0 229 -112.5 352.5t-293.5 123.5q-123 0 -229 -55.5t-227 -210.5t-121 -465q0 -200 113.5 -323t296.5 -123q248 0 367.5 152t162.5 286t43 263zM936 -205q0 -97 122 -97q31 0 45 3l-26 -123q-22 -10 -80 -10q-108 0 -167 50.5t-59 149.5t91 186v16
q-24 -4 -75 -4q-254 0 -420 169.5t-166 427.5q0 394 222 654t566 260q119 0 226 -45t228 -169t121 -385q0 -522 -422 -829q-206 -149 -206 -254z" />
    <glyph glyph-name="oogonek" unicode="&#x1eb;" horiz-adv-x="1210" 
d="M338 468q0 -161 77.5 -246.5t215.5 -85.5t244.5 139t106.5 315t-72 264t-199 88q-167 0 -243 -100.5t-103 -192t-27 -181.5zM674 -205q0 -97 122 -97q31 0 45 3l-26 -123q-22 -10 -80 -10q-108 0 -167 50.5t-59 135.5t39.5 138t62.5 73v16h-15q-196 0 -318.5 124
t-122.5 322q0 293 160 481.5t412 188.5q196 0 317.5 -123.5t121.5 -320.5q0 -301 -116 -430t-172 -163q-97 -59 -150.5 -130.5t-53.5 -134.5z" />
    <glyph glyph-name="Oogonekmacron" unicode="&#x1ec;" horiz-adv-x="1579" 
d="M678 1618l29 136h674l-29 -136h-674zM1374 834q0 229 -112.5 352.5t-293.5 123.5q-123 0 -229 -55.5t-227 -210.5t-121 -465q0 -200 113.5 -323t296.5 -123q248 0 367.5 152t162.5 286t43 263zM936 -205q0 -97 122 -97q31 0 45 3l-26 -123q-22 -10 -80 -10
q-108 0 -167 50.5t-59 149.5t91 186v16q-24 -4 -75 -4q-254 0 -420 169.5t-166 427.5q0 394 222 654t566 260q119 0 226 -45t228 -169t121 -385q0 -522 -422 -829q-206 -149 -206 -254z" />
    <glyph glyph-name="oogonekmacron" unicode="&#x1ed;" horiz-adv-x="1210" 
d="M338 468q0 -161 77.5 -246.5t215.5 -85.5t244.5 139t106.5 315t-72 264t-199 88q-167 0 -243 -100.5t-103 -192t-27 -181.5zM674 -205q0 -97 122 -97q31 0 45 3l-26 -123q-22 -10 -80 -10q-108 0 -167 50.5t-59 135.5t39.5 138t62.5 73v16h-15q-196 0 -318.5 124
t-122.5 322q0 293 160 481.5t412 188.5q196 0 317.5 -123.5t121.5 -320.5q0 -301 -116 -430t-172 -163q-97 -59 -150.5 -130.5t-53.5 -134.5zM432 1286l29 136h674l-29 -136h-674z" />
    <glyph glyph-name="u01F1" unicode="&#x1f1;" horiz-adv-x="2842" 
d="M1598 128l1048 1137l4 16h-779l34 162h1022l-27 -128l-1045 -1137l-3 -16h820l-34 -162h-1067zM723 160q238 0 395.5 183.5t157.5 459.5q0 227 -120.5 353.5t-336.5 126.5h-239l-239 -1123h382zM833 1443q300 0 464.5 -168t164.5 -463q0 -347 -176 -537.5t-320.5 -232.5
t-249.5 -42h-591l305 1443h403z" />
    <glyph glyph-name="u01F2" unicode="&#x1f2;" horiz-adv-x="2591" 
d="M1591 126l764 792l3 16h-594l32 144h826l-29 -129l-758 -789l-3 -16h593l-31 -144h-830zM723 160q238 0 395.5 183.5t157.5 459.5q0 227 -120.5 353.5t-336.5 126.5h-239l-239 -1123h382zM833 1443q300 0 464.5 -168t164.5 -463q0 -347 -176 -537.5t-320.5 -232.5
t-249.5 -42h-591l305 1443h403z" />
    <glyph glyph-name="u01F3" unicode="&#x1f3;" horiz-adv-x="2362" 
d="M1362 126l764 792l3 16h-594l32 144h826l-29 -129l-758 -789l-3 -16h593l-31 -144h-830zM993 644q0 137 -73 217.5t-198 80.5q-167 0 -278 -141t-111 -357q0 -137 74 -222.5t205 -85.5q72 0 143.5 39.5t154.5 147t83 321.5zM556 -19q-177 0 -290 120.5t-113 316.5
q0 291 160.5 485t395.5 194q115 0 204.5 -60t118.5 -158h16l133 627h175l-320 -1506h-166l31 147h-16q-59 -77 -148 -121.5t-181 -44.5z" />
    <glyph glyph-name="Gacute" unicode="&#x1f4;" horiz-adv-x="1528" 
d="M1264 1873h226l-395 -298h-204zM202 562q0 396 177 609t325.5 259.5t259.5 46.5q224 0 376.5 -126t166.5 -323q1 -6 1 -8v-28h-183q-10 145 -112 231.5t-264 86.5q-237 0 -398.5 -209.5t-161.5 -519.5q0 -208 110.5 -328t292.5 -120t308 106.5t162 283.5l11 55h-400
l34 158h584l-42 -196q-60 -281 -232.5 -427.5t-434.5 -146.5t-421 164t-159 432z" />
    <glyph glyph-name="gacute" unicode="&#x1f5;" horiz-adv-x="1247" 
d="M1016 1601h220l-350 -338h-194zM614 168q71 0 141 34.5t150 132.5t80 309q0 137 -75 217.5t-202 80.5q-163 0 -266 -128t-103 -341q0 -143 71 -224t204 -81zM159 447q0 285 153 467.5t383 182.5q114 0 209.5 -61.5t127.5 -156.5h16l42 199h167l-244 -1130
q-36 -168 -170 -264.5t-328 -96.5t-316.5 89.5t-132.5 217.5h183q20 -108 114.5 -133t160.5 -25q132 0 214.5 65.5t107.5 176.5l47 200h-16q-117 -162 -326 -162q-167 0 -279.5 121t-112.5 310z" />
    <glyph glyph-name="Ngrave" unicode="&#x1f8;" horiz-adv-x="1520" 
d="M1126 1575h-184l-206 298h206zM123 0l307 1443h177l534 -1153h16l245 1153h182l-307 -1443h-179l-533 1150h-16l-244 -1150h-182z" />
    <glyph glyph-name="ngrave" unicode="&#x1f9;" horiz-adv-x="1215" 
d="M692 1263l-206 338h214l180 -338h-188zM815 1097q152 0 247 -96.5t95 -227.5q0 -56 -14 -124l-138 -649h-175l132 619q13 63 13 108q0 96 -63.5 155.5t-177.5 59.5t-203.5 -80t-115.5 -204l-140 -658h-175l229 1078h167l-34 -161h16q125 180 337 180z" />
    <glyph glyph-name="Aringacute" unicode="&#x1fa;" horiz-adv-x="1380" 
d="M1257 2173l-174 -181h-161l148 181h187zM1000 1533q-42 0 -78.5 15.5t-64 42t-43.5 62.5t-16 78t16 78t43.5 62.5t64 42t78.5 15.5t78.5 -15.5t64 -42t43.5 -62.5t16 -78t-16 -78t-43.5 -62.5t-64 -42t-78.5 -15.5zM900 1730q0 -43 28.5 -72.5t71.5 -29.5t71.5 29.5
t28.5 72.5t-28.5 72.5t-71.5 29.5t-71.5 -29.5t-28.5 -72.5zM522 566h473l-95 641h-16zM1015 413h-579l-232 -413h-193l845 1443h167l226 -1443h-176z" />
    <glyph glyph-name="aringacute" unicode="&#x1fb;" horiz-adv-x="1126" 
d="M896 1909h199l-242 -226h-171zM667 1397q0 -22 7.5 -40.5t21 -32t32 -21.5t39.5 -8t39 8t31.5 21.5t21.5 32t8 40.5t-8 40.5t-21.5 32t-31.5 21.5t-39 8t-39.5 -8t-32 -21.5t-21 -32t-7.5 -40.5zM767 1200q-42 0 -79 15.5t-64 42.5t-43 63t-16 77t16 77t43 63t64 42.5
t79 15.5t79 -15.5t64 -42.5t43 -63t16 -77t-16 -77t-43 -63t-64 -42.5t-79 -15.5zM668 943q-186 0 -239 -135h-182q36 133 153 211t289 78t278.5 -82.5t106.5 -219.5q0 -43 -9 -88l-150 -707h-167l30 141h-16q-57 -75 -142 -117.5t-170 -42.5q-154 0 -249 85.5t-95 212.5
q0 242 176.5 295t288.5 58l306 14l16 73q6 34 6 51q0 82 -61 127.5t-170 45.5zM703.5 201q93.5 71 117.5 182l27 124l-287 -14q-133 -7 -205.5 -58.5t-72.5 -130.5t58 -126.5t163 -47.5q106 0 199.5 71z" />
    <glyph glyph-name="AEacute" unicode="&#x1fc;" horiz-adv-x="1966" 
d="M1689 1873h226l-395 -298h-204zM1030 459h-527l-307 -459h-187l958 1443h1110l-35 -162h-658l-100 -473h621l-34 -160h-621l-104 -486h658l-34 -162h-838zM1060 1292l-455 -680h457l145 680h-147z" />
    <glyph glyph-name="aeacute" unicode="&#x1fd;" horiz-adv-x="1874" 
d="M1334 1601h220l-350 -338h-194zM703.5 201q93.5 71 117.5 182l27 124l-287 -14q-133 -7 -205.5 -58.5t-72.5 -130.5t58 -126.5t163 -47.5q106 0 199.5 71zM1638 692q0 103 -64.5 178t-184.5 75t-209.5 -83t-128.5 -224h585q2 10 2 54zM1291 -19q-145 0 -252.5 66
t-150.5 174h-15q-59 -101 -173 -170.5t-256 -69.5t-240 85t-98 213q0 242 176.5 295t288.5 58l306 14l16 73q6 34 6 51q0 82 -61 127.5t-170 45.5q-186 0 -239 -135h-182q36 133 153 211t282 78q255 0 346 -168h16q141 168 364 168q173 0 291.5 -117t118.5 -319
q0 -97 -13 -162h-777q-2 -27 -2 -83t24 -114t80 -111t166 -53q197 0 271 137h183q-56 -204 -217.5 -249t-241.5 -45z" />
    <glyph glyph-name="Oslashacute" unicode="&#x1fe;" horiz-adv-x="1551" 
d="M1564 880q0 -397 -181 -609t-332.5 -258.5t-263.5 -46.5q-189 0 -338 101l-87 -114l-100 76l93 120q-154 167 -154 414q0 394 182.5 607.5t334.5 260t264 46.5q182 0 325 -93l81 104l98 -69l-86 -112q164 -168 164 -427zM972 1310q-252 0 -416.5 -210.5t-164.5 -520.5
q0 -164 79 -280l728 943q-99 68 -226 68zM1374 864q0 175 -88 294l-728 -950q104 -75 236 -75q256 0 418 207t162 524zM1119 1573h-204l373 298h226z" />
    <glyph glyph-name="oslashacute" unicode="&#x1ff;" horiz-adv-x="1212" 
d="M1166 653q0 -273 -124.5 -434.5t-240 -199.5t-205.5 -38q-165 0 -281 91l-97 -109l-89 69l108 121q-82 116 -82 263q0 294 155.5 487.5t416.5 193.5q166 0 278 -89l99 110l86 -64l-109 -123q85 -113 85 -278zM721 942q-180 0 -281.5 -138t-101.5 -356q0 -82 29 -151
l521 580q-70 65 -167 65zM982 612q0 99 -31 173l-518 -581q74 -68 185 -68q146 0 255 136t109 340zM861 1263h-194l324 338h220z" />
    <glyph glyph-name="Adblgrave" unicode="&#x200;" horiz-adv-x="1380" 
d="M1083 1575l-206 298h226l184 -298h-204zM669 1575l-206 298h226l184 -298h-204zM522 566h473l-95 641h-16zM1015 413h-579l-232 -413h-193l845 1443h167l226 -1443h-176z" />
    <glyph glyph-name="adblgrave" unicode="&#x201;" horiz-adv-x="1126" 
d="M815 1263l-208 338h204l180 -338h-176zM415 1263l-208 338h204l180 -338h-176zM668 943q-186 0 -239 -135h-182q36 133 153 211t289 78t278.5 -82.5t106.5 -219.5q0 -43 -9 -88l-150 -707h-167l30 141h-16q-57 -75 -142 -117.5t-170 -42.5q-154 0 -249 85.5t-95 212.5
q0 242 176.5 295t288.5 58l306 14l16 73q6 34 6 51q0 82 -61 127.5t-170 45.5zM703.5 201q93.5 71 117.5 182l27 124l-287 -14q-133 -7 -205.5 -58.5t-72.5 -130.5t58 -126.5t163 -47.5q106 0 199.5 71z" />
    <glyph glyph-name="Ainvertedbreve" unicode="&#x202;" horiz-adv-x="1380" 
d="M1359 1575h-150v13q0 67 -56 111.5t-141 44.5q-84 0 -141.5 -45t-77.5 -124h-154q25 135 128.5 216.5t252.5 81.5t244 -80t95 -208v-10zM522 566h473l-95 641h-16zM1015 413h-579l-232 -413h-193l845 1443h167l226 -1443h-176z" />
    <glyph glyph-name="ainvertedbreve" unicode="&#x203;" horiz-adv-x="1126" 
d="M982 1259q0 78 -53.5 123t-149.5 45t-157 -51t-75 -148h-156q14 147 121.5 237.5t269.5 90.5t257 -81.5t95 -204.5q0 -20 -3 -42h-151q2 12 2 31zM668 943q-186 0 -239 -135h-182q36 133 153 211t289 78t278.5 -82.5t106.5 -219.5q0 -43 -9 -88l-150 -707h-167l30 141
h-16q-57 -75 -142 -117.5t-170 -42.5q-154 0 -249 85.5t-95 212.5q0 242 176.5 295t288.5 58l306 14l16 73q6 34 6 51q0 82 -61 127.5t-170 45.5zM703.5 201q93.5 71 117.5 182l27 124l-287 -14q-133 -7 -205.5 -58.5t-72.5 -130.5t58 -126.5t163 -47.5q106 0 199.5 71z" />
    <glyph glyph-name="Edblgrave" unicode="&#x204;" horiz-adv-x="1219" 
d="M1021 1575l-206 298h226l184 -298h-204zM607 1575l-206 298h226l184 -298h-204zM1019 0h-896l307 1443h896l-35 -162h-711l-100 -463h675l-34 -160h-674l-106 -496h712z" />
    <glyph glyph-name="edblgrave" unicode="&#x205;" horiz-adv-x="1170" 
d="M826 1263l-208 338h204l180 -338h-176zM426 1263l-208 338h204l180 -338h-176zM948 692q0 103 -64.5 178t-184.5 75t-209.5 -83t-128.5 -224h585q2 10 2 54zM157 432q0 296 156 480.5t405 184.5q173 0 291.5 -117t118.5 -319q0 -97 -13 -162h-777q-2 -29 -2 -83t46 -166
t233 -112q188 0 262 137h183q-36 -131 -159 -212.5t-309 -81.5t-310.5 120.5t-124.5 330.5z" />
    <glyph glyph-name="Einvertedbreve" unicode="&#x206;" horiz-adv-x="1219" 
d="M1297 1575h-150v13q0 67 -56 111.5t-141 44.5q-84 0 -141.5 -45t-77.5 -124h-154q25 135 128.5 216.5t252.5 81.5t244 -80t95 -208v-10zM1019 0h-896l307 1443h896l-35 -162h-711l-100 -463h675l-34 -160h-674l-106 -496h712z" />
    <glyph glyph-name="einvertedbreve" unicode="&#x207;" horiz-adv-x="1170" 
d="M993 1259q0 78 -53.5 123t-149.5 45t-157 -51t-75 -148h-156q14 147 121.5 237.5t269.5 90.5t257 -81.5t95 -204.5q0 -20 -3 -42h-151q2 12 2 31zM948 692q0 103 -64.5 178t-184.5 75t-209.5 -83t-128.5 -224h585q2 10 2 54zM157 432q0 296 156 480.5t405 184.5
q173 0 291.5 -117t118.5 -319q0 -97 -13 -162h-777q-2 -29 -2 -83t46 -166t233 -112q188 0 262 137h183q-36 -131 -159 -212.5t-309 -81.5t-310.5 120.5t-124.5 330.5z" />
    <glyph glyph-name="Idblgrave" unicode="&#x208;" horiz-adv-x="550" 
d="M666 1575l-206 298h226l184 -298h-204zM252 1575l-206 298h226l184 -298h-204zM123 0l307 1443h184l-307 -1443h-184z" />
    <glyph glyph-name="idblgrave" unicode="&#x209;" horiz-adv-x="516" 
d="M543 1263l-208 338h204l180 -338h-176zM143 1263l-208 338h204l180 -338h-176zM341 1078h172l-229 -1078h-172z" />
    <glyph glyph-name="Iinvertedbreve" unicode="&#x20a;" horiz-adv-x="550" 
d="M942 1575h-150v13q0 67 -56 111.5t-141 44.5q-84 0 -141.5 -45t-77.5 -124h-154q25 135 128.5 216.5t252.5 81.5t244 -80t95 -208v-10zM123 0l307 1443h184l-307 -1443h-184z" />
    <glyph glyph-name="iinvertedbreve" unicode="&#x20b;" horiz-adv-x="516" 
d="M710 1259q0 78 -53.5 123t-149.5 45t-157 -51t-75 -148h-156q14 147 121.5 237.5t269.5 90.5t257 -81.5t95 -204.5q0 -20 -3 -42h-151q2 12 2 31zM341 1078h172l-229 -1078h-172z" />
    <glyph glyph-name="Odblgrave" unicode="&#x20c;" horiz-adv-x="1579" 
d="M1121 1573l-206 298h226l184 -298h-204zM707 1573l-206 298h226l184 -298h-204zM1374 834q0 229 -112.5 352.5t-293.5 123.5q-123 0 -229 -55.5t-227 -210.5t-121 -465q0 -200 113.5 -323t296.5 -123q248 0 367.5 152t162.5 286t43 263zM201 563q0 394 222 654t566 260
q119 0 226 -45t228 -169t121 -383q0 -397 -220 -655.5t-564 -258.5q-120 0 -227.5 45t-229.5 169.5t-122 382.5z" />
    <glyph glyph-name="odblgrave" unicode="&#x20d;" horiz-adv-x="1210" 
d="M841 1263l-208 338h204l180 -338h-176zM441 1263l-208 338h204l180 -338h-176zM155 427q0 283 155.5 476.5t416.5 193.5q197 0 318 -124.5t121 -319.5q0 -273 -153 -472.5t-421 -199.5q-192 0 -314.5 124.5t-122.5 321.5zM338 468q0 -156 75 -244t213 -88t247 136
t109 340q0 236 -104 283t-179 47t-144 -37.5t-117.5 -103.5t-74 -156.5t-25.5 -176.5z" />
    <glyph glyph-name="Oinvertedbreve" unicode="&#x20e;" horiz-adv-x="1579" 
d="M1397 1573h-150v13q0 67 -56 111.5t-141 44.5q-84 0 -141.5 -45t-77.5 -124h-154q25 135 128.5 216.5t252.5 81.5t244 -80t95 -208v-10zM1374 834q0 229 -112.5 352.5t-293.5 123.5q-123 0 -229 -55.5t-227 -210.5t-121 -465q0 -200 113.5 -323t296.5 -123
q248 0 367.5 152t162.5 286t43 263zM201 563q0 394 222 654t566 260q119 0 226 -45t228 -169t121 -383q0 -397 -220 -655.5t-564 -258.5q-120 0 -227.5 45t-229.5 169.5t-122 382.5z" />
    <glyph glyph-name="oinvertedbreve" unicode="&#x20f;" horiz-adv-x="1210" 
d="M1008 1259q0 78 -53.5 123t-149.5 45t-157 -51t-75 -148h-156q14 147 121.5 237.5t269.5 90.5t257 -81.5t95 -204.5q0 -20 -3 -42h-151q2 12 2 31zM155 427q0 283 155.5 476.5t416.5 193.5q197 0 318 -124.5t121 -319.5q0 -273 -153 -472.5t-421 -199.5
q-192 0 -314.5 124.5t-122.5 321.5zM338 468q0 -156 75 -244t213 -88t247 136t109 340q0 236 -104 283t-179 47t-144 -37.5t-117.5 -103.5t-74 -156.5t-25.5 -176.5z" />
    <glyph glyph-name="Rdblgrave" unicode="&#x210;" horiz-adv-x="1338" 
d="M977 1575l-206 298h226l184 -298h-204zM563 1575l-206 298h226l184 -298h-204zM810 731q159 0 259.5 87.5t100.5 225.5q0 168 -94.5 203.5t-151.5 35.5h-344l-118 -552h348zM929 1443q196 0 313.5 -104t117.5 -275t-106 -297t-281 -168l207 -599h-196l-188 571h-368
l-121 -571h-184l307 1443h499z" />
    <glyph glyph-name="rdblgrave" unicode="&#x211;" horiz-adv-x="765" 
d="M685 1263l-208 338h204l180 -338h-176zM285 1263l-208 338h204l180 -338h-176zM763 1097q86 0 126 -15l-37 -165q-52 13 -136 13q-130 0 -206.5 -71t-108.5 -222l-135 -637h-174l229 1078h166l-29 -137h16q104 156 289 156z" />
    <glyph glyph-name="Rinvertedbreve" unicode="&#x212;" horiz-adv-x="1338" 
d="M1253 1575h-150v13q0 67 -56 111.5t-141 44.5q-84 0 -141.5 -45t-77.5 -124h-154q25 135 128.5 216.5t252.5 81.5t244 -80t95 -208v-10zM810 731q159 0 259.5 87.5t100.5 225.5q0 168 -94.5 203.5t-151.5 35.5h-344l-118 -552h348zM929 1443q196 0 313.5 -104t117.5 -275
t-106 -297t-281 -168l207 -599h-196l-188 571h-368l-121 -571h-184l307 1443h499z" />
    <glyph glyph-name="rinvertedbreve" unicode="&#x213;" horiz-adv-x="765" 
d="M852 1259q0 78 -53.5 123t-149.5 45t-157 -51t-75 -148h-156q14 147 121.5 237.5t269.5 90.5t257 -81.5t95 -204.5q0 -20 -3 -42h-151q2 12 2 31zM763 1097q86 0 126 -15l-37 -165q-52 13 -136 13q-130 0 -206.5 -71t-108.5 -222l-135 -637h-174l229 1078h166l-29 -137
h16q104 156 289 156z" />
    <glyph glyph-name="Udblgrave" unicode="&#x214;" horiz-adv-x="1524" 
d="M1152 1575l-206 298h226l184 -298h-204zM738 1575l-206 298h226l184 -298h-204zM742 -34q-243 0 -399 150t-97 428l188 899h184l-186 -887q-33 -144 25.5 -284t310.5 -140q161 0 277 95t152 264l203 952h184l-210 -987q-77 -359 -290 -424.5t-342 -65.5z" />
    <glyph glyph-name="udblgrave" unicode="&#x215;" horiz-adv-x="1215" 
d="M882 1263l-208 338h204l180 -338h-176zM482 1263l-208 338h204l180 -338h-176zM848 146q-108 -165 -350 -165q-140 0 -233 89.5t-93 223.5q0 55 15 140l135 644h175l-131 -619q-14 -70 -14 -121q0 -202 219 -202q127 0 220.5 81t122.5 213l138 648h174l-229 -1078h-166
l33 146h-16z" />
    <glyph glyph-name="Uinvertedbreve" unicode="&#x216;" horiz-adv-x="1524" 
d="M1428 1575h-150v13q0 67 -56 111.5t-141 44.5q-84 0 -141.5 -45t-77.5 -124h-154q25 135 128.5 216.5t252.5 81.5t244 -80t95 -208v-10zM742 -34q-243 0 -399 150t-97 428l188 899h184l-186 -887q-33 -144 25.5 -284t310.5 -140q161 0 277 95t152 264l203 952h184
l-210 -987q-77 -359 -290 -424.5t-342 -65.5z" />
    <glyph glyph-name="uinvertedbreve" unicode="&#x217;" horiz-adv-x="1215" 
d="M1049 1259q0 78 -53.5 123t-149.5 45t-157 -51t-75 -148h-156q14 147 121.5 237.5t269.5 90.5t257 -81.5t95 -204.5q0 -20 -3 -42h-151q2 12 2 31zM848 146q-108 -165 -350 -165q-140 0 -233 89.5t-93 223.5q0 55 15 140l135 644h175l-131 -619q-14 -70 -14 -121
q0 -202 219 -202q127 0 220.5 81t122.5 213l138 648h174l-229 -1078h-166l33 146h-16z" />
    <glyph glyph-name="Scommaaccent" unicode="&#x218;" horiz-adv-x="1276" 
d="M374 -518l182 377h182l-197 -377h-167zM915.5 199.5q92.5 70.5 92.5 172.5t-62 163t-201 110l-137 48q-148 52 -229.5 148.5t-81.5 203.5q0 196 146 314t357 118t353.5 -117.5t158.5 -302.5h-181q-28 122 -116 189.5t-221 67.5t-220 -66.5t-87 -156.5q0 -89 56.5 -146
t175.5 -100l130 -47q350 -128 350 -372q0 -213 -150.5 -336.5t-381.5 -123.5t-374.5 116t-173.5 318h182q26 -126 127 -198.5t248 -72.5t239.5 70.5z" />
    <glyph glyph-name="scommaaccent" unicode="&#x219;" horiz-adv-x="1052" 
d="M212 -518l182 377h182l-197 -377h-167zM777 294q0 103 -135 146l-165 53q-250 81 -250 264q0 162 114.5 251t289.5 89q257 0 325.5 -114.5t79.5 -180.5h-171q-17 70 -80 109.5t-135 39.5q-121 0 -185.5 -44.5t-64.5 -105.5q0 -60 38.5 -96t112.5 -60l146 -47
q201 -65 229 -151.5t28 -148.5t-32.5 -121.5t-123 -127.5t-272.5 -68t-299 85.5t-129 222.5h177q20 -72 86.5 -117.5t143.5 -45.5q132 0 202 47.5t70 120.5z" />
    <glyph glyph-name="Tcommaaccent" unicode="&#x21a;" horiz-adv-x="1298" 
d="M301 -518l182 377h182l-197 -377h-167zM494 0l272 1281h-463l34 162h1110l-34 -162h-463l-272 -1281h-184z" />
    <glyph glyph-name="tcommaaccent" unicode="&#x21b;" horiz-adv-x="744" 
d="M68 -518l182 377h182l-197 -377h-167zM411 259q0 -116 136 -116q35 0 69 4l-31 -145q-53 -10 -105 -10q-113 0 -183.5 55.5t-70.5 162.5q0 40 11 93l135 631h-181l30 144h182l55 269h175l-57 -269h250l-30 -144h-250l-123 -578q-12 -57 -12 -97z" />
    <glyph glyph-name="Hcaron" unicode="&#x21e;" horiz-adv-x="1522" 
d="M761 1873h185l105 -186h16l183 186h207l-310 -298h-202zM1094 0l140 657h-788l-140 -657h-183l307 1443h184l-133 -624h788l133 624h184l-307 -1443h-185z" />
    <glyph glyph-name="hcaron" unicode="&#x21f;" horiz-adv-x="1236" 
d="M272 1936h185l105 -186h16l183 186h207l-310 -298h-202zM829 1097q154 0 250 -96t96 -228q0 -56 -14 -124l-138 -649h-175l132 619q13 63 13 108q0 96 -64.5 155.5t-180.5 59.5t-206 -79.5t-117 -204.5l-140 -658h-175l322 1506h175l-127 -589h16q125 180 333 180z" />
    <glyph glyph-name="Adotaccent" unicode="&#x226;" horiz-adv-x="1380" 
d="M994 1575q-25 0 -47 9.5t-38.5 26t-26 38.5t-9.5 47t9.5 47t26 38.5t38.5 26t47 9.5t47 -9.5t38.5 -26t26 -38.5t9.5 -47t-9.5 -47t-26 -38.5t-38.5 -26t-47 -9.5zM522 566h473l-95 641h-16zM1015 413h-579l-232 -413h-193l845 1443h167l226 -1443h-176z" />
    <glyph glyph-name="adotaccent" unicode="&#x227;" horiz-adv-x="1126" 
d="M771 1287q-26 0 -49.5 10t-41 27.5t-27.5 41t-10 49.5t10 49t27.5 40.5t41 27.5t49.5 10t49.5 -10t41 -27.5t27.5 -40.5t10 -49t-10 -49.5t-27.5 -41t-41 -27.5t-49.5 -10zM668 943q-186 0 -239 -135h-182q36 133 153 211t289 78t278.5 -82.5t106.5 -219.5q0 -43 -9 -88
l-150 -707h-167l30 141h-16q-57 -75 -142 -117.5t-170 -42.5q-154 0 -249 85.5t-95 212.5q0 242 176.5 295t288.5 58l306 14l16 73q6 34 6 51q0 82 -61 127.5t-170 45.5zM703.5 201q93.5 71 117.5 182l27 124l-287 -14q-133 -7 -205.5 -58.5t-72.5 -130.5t58 -126.5
t163 -47.5q106 0 199.5 71z" />
    <glyph glyph-name="Ecedilla" unicode="&#x228;" horiz-adv-x="1219" 
d="M458 -233h-53l13 90l89 143h-384l307 1443h896l-35 -162h-711l-100 -463h675l-34 -160h-674l-106 -496h712l-34 -162h-371l-87 -140q179 -20 179 -156q0 -84 -69 -139.5t-172 -55.5t-181 36l23 108q61 -28 128 -28q123 0 123 71t-134 71z" />
    <glyph glyph-name="ecedilla" unicode="&#x229;" horiz-adv-x="1170" 
d="M336 416q0 -54 46 -166t233 -112q188 0 262 137h183q-31 -117 -137 -197t-265 -94l-77 -124q179 -20 179 -156q0 -84 -69 -139.5t-172 -55.5t-181 36l23 108q61 -28 128 -28q123 0 123 71t-134 71h-53l13 90l80 130q-158 23 -259.5 139.5t-101.5 285.5q0 316 156 500.5
t405 184.5q173 0 291.5 -117t118.5 -319q0 -97 -13 -162h-777q-2 -29 -2 -83zM948 692q0 103 -64.5 178t-184.5 75t-209.5 -83t-128.5 -224h585q2 10 2 54z" />
    <glyph glyph-name="Odieresismacron" unicode="&#x22a;" horiz-adv-x="1579" 
d="M1236 1573q-24 0 -45.5 9t-37.5 25t-25 37.5t-9 45.5t9 45.5t25 37.5t37.5 25t45.5 9t45.5 -9t37.5 -25t25 -37.5t9 -45.5t-9 -45.5t-25 -37.5t-37.5 -25t-45.5 -9zM832 1573q-24 0 -45.5 9t-37.5 25t-25 37.5t-9 45.5t9 45.5t25 37.5t37.5 25t45.5 9t45.5 -9t37.5 -25
t25 -37.5t9 -45.5t-9 -45.5t-25 -37.5t-37.5 -25t-45.5 -9zM772 2060h674l-28 -130h-674zM1374 834q0 229 -112.5 352.5t-293.5 123.5q-123 0 -229 -55.5t-227 -210.5t-121 -465q0 -200 113.5 -323t296.5 -123q248 0 367.5 152t162.5 286t43 263zM201 563q0 394 222 654
t566 260q119 0 226 -45t228 -169t121 -383q0 -397 -220 -655.5t-564 -258.5q-120 0 -227.5 45t-229.5 169.5t-122 382.5z" />
    <glyph glyph-name="odieresismacron" unicode="&#x22b;" horiz-adv-x="1210" 
d="M503 1620l29 136h674l-29 -136h-674zM983 1228q-24 0 -45.5 9t-37.5 25t-25 37.5t-9 45.5t9 45.5t25 37.5t37.5 25t45.5 9t45.5 -9t37.5 -25t25 -37.5t9 -45.5t-9 -45.5t-25 -37.5t-37.5 -25t-45.5 -9zM579 1228q-24 0 -45.5 9t-37.5 25t-25 37.5t-9 45.5t9 45.5t25 37.5
t37.5 25t45.5 9t45.5 -9t37.5 -25t25 -37.5t9 -45.5t-9 -45.5t-25 -37.5t-37.5 -25t-45.5 -9zM155 427q0 283 155.5 476.5t416.5 193.5q197 0 318 -124.5t121 -319.5q0 -273 -153 -472.5t-421 -199.5q-192 0 -314.5 124.5t-122.5 321.5zM338 468q0 -156 75 -244t213 -88
t247 136t109 340q0 236 -104 283t-179 47t-144 -37.5t-117.5 -103.5t-74 -156.5t-25.5 -176.5z" />
    <glyph glyph-name="Otildemacron" unicode="&#x22c;" horiz-adv-x="1579" 
d="M1162 1707q83 0 114 98h142q-19 -110 -91 -171.5t-155 -61.5t-134.5 42.5t-76.5 62t-55 19.5q-83 0 -114 -98h-142q19 111 92 172t155 61t133.5 -42.5t76.5 -62t55 -19.5zM744 1930l28 130h674l-28 -130h-674zM1374 834q0 229 -112.5 352.5t-293.5 123.5
q-123 0 -229 -55.5t-227 -210.5t-121 -465q0 -200 113.5 -323t296.5 -123q248 0 367.5 152t162.5 286t43 263zM201 563q0 394 222 654t566 260q119 0 226 -45t228 -169t121 -383q0 -397 -220 -655.5t-564 -258.5q-120 0 -227.5 45t-229.5 169.5t-122 382.5z" />
    <glyph glyph-name="otildemacron" unicode="&#x22d;" horiz-adv-x="1210" 
d="M491 1626l29 136h674l-29 -136h-674zM956 1217q-47 0 -79.5 13.5t-58 34t-45 44.5t-50 58t-69.5 34q-87 0 -114 -139h-142q24 197 118.5 235.5t141.5 38.5t79 -13.5t57 -34t45 -44.5t50.5 -58t69.5 -34q88 0 115 139h142q-24 -197 -118.5 -235.5t-141.5 -38.5zM155 427
q0 283 155.5 476.5t416.5 193.5q197 0 318 -124.5t121 -319.5q0 -273 -153 -472.5t-421 -199.5q-192 0 -314.5 124.5t-122.5 321.5zM338 468q0 -156 75 -244t213 -88t247 136t109 340q0 236 -104 283t-179 47t-144 -37.5t-117.5 -103.5t-74 -156.5t-25.5 -176.5z" />
    <glyph glyph-name="Odotaccent" unicode="&#x22e;" horiz-adv-x="1579" 
d="M1032 1573q-25 0 -47 9.5t-38.5 26t-26 38.5t-9.5 47t9.5 47t26 38.5t38.5 26t47 9.5t47 -9.5t38.5 -26t26 -38.5t9.5 -47t-9.5 -47t-26 -38.5t-38.5 -26t-47 -9.5zM1374 834q0 229 -112.5 352.5t-293.5 123.5q-123 0 -229 -55.5t-227 -210.5t-121 -465
q0 -200 113.5 -323t296.5 -123q248 0 367.5 152t162.5 286t43 263zM201 563q0 394 222 654t566 260q119 0 226 -45t228 -169t121 -383q0 -397 -220 -655.5t-564 -258.5q-120 0 -227.5 45t-229.5 169.5t-122 382.5z" />
    <glyph glyph-name="odotaccent" unicode="&#x22f;" horiz-adv-x="1210" 
d="M797 1287q-26 0 -49.5 10t-41 27.5t-27.5 41t-10 49.5t10 49t27.5 40.5t41 27.5t49.5 10t49.5 -10t41 -27.5t27.5 -40.5t10 -49t-10 -49.5t-27.5 -41t-41 -27.5t-49.5 -10zM155 427q0 283 155.5 476.5t416.5 193.5q197 0 318 -124.5t121 -319.5q0 -273 -153 -472.5
t-421 -199.5q-192 0 -314.5 124.5t-122.5 321.5zM338 468q0 -156 75 -244t213 -88t247 136t109 340q0 236 -104 283t-179 47t-144 -37.5t-117.5 -103.5t-74 -156.5t-25.5 -176.5z" />
    <glyph glyph-name="Odotaccentmacron" unicode="&#x230;" horiz-adv-x="1579" 
d="M1031 1575q-25 0 -46.5 9.5t-37.5 25.5t-25.5 37.5t-9.5 46.5t9.5 46.5t25.5 37.5t37.5 25.5t46.5 9.5t46.5 -9.5t37.5 -25.5t25.5 -37.5t9.5 -46.5t-9.5 -46.5t-25.5 -37.5t-37.5 -25.5t-46.5 -9.5zM744 1930l28 130h674l-28 -130h-674zM1374 834q0 229 -112.5 352.5
t-293.5 123.5q-123 0 -229 -55.5t-227 -210.5t-121 -465q0 -200 113.5 -323t296.5 -123q248 0 367.5 152t162.5 286t43 263zM201 563q0 394 222 654t566 260q119 0 226 -45t228 -169t121 -383q0 -397 -220 -655.5t-564 -258.5q-120 0 -227.5 45t-229.5 169.5t-122 382.5z
" />
    <glyph glyph-name="odotaccentmacron" unicode="&#x231;" horiz-adv-x="1210" 
d="M503 1620l29 136h674l-29 -136h-674zM778 1228q-25 0 -47 9t-38 25t-25 38t-9 47t9 47t25 38t38 25t47 9t47 -9t38 -25t25 -38t9 -47t-9 -47t-25 -38t-38 -25t-47 -9zM155 427q0 283 155.5 476.5t416.5 193.5q197 0 318 -124.5t121 -319.5q0 -273 -153 -472.5
t-421 -199.5q-192 0 -314.5 124.5t-122.5 321.5zM338 468q0 -156 75 -244t213 -88t247 136t109 340q0 236 -104 283t-179 47t-144 -37.5t-117.5 -103.5t-74 -156.5t-25.5 -176.5z" />
    <glyph glyph-name="Ymacron" unicode="&#x232;" horiz-adv-x="1344" 
d="M619 1620l29 136h674l-29 -136h-674zM521 0l132 621l-336 822h187l268 -649h16l526 649h207l-692 -848l-124 -595h-184z" />
    <glyph glyph-name="ymacron" unicode="&#x233;" horiz-adv-x="1112" 
d="M433 1286l29 136h674l-29 -136h-674zM272 -205q48 41 101 140l39 73l-175 1070h171l128 -857h16l472 857h189l-686 -1196q-90 -159 -172 -216.5t-197 -57.5q-38 0 -118 12l26 147q42 -13 100 -13t106 41z" />
    <glyph glyph-name="dotlessj" unicode="&#x237;" horiz-adv-x="516" 
d="M95 -84l247 1162h172l-252 -1185q-47 -224 -160 -257.5t-168 -33.5t-98 4l33 152q24 -3 76 -3q118 0 150 161z" />
    <glyph glyph-name="circumflex" unicode="&#x2c6;" horiz-adv-x="1094" 
d="M1131 1228h-187l-129 227h-16l-225 -227h-209l354 340h202z" />
    <glyph glyph-name="caron" unicode="&#x2c7;" horiz-adv-x="1094" 
d="M647 1228l-210 340h185l129 -227h16l225 227h211l-354 -340h-202z" />
    <glyph glyph-name="breve" unicode="&#x2d8;" horiz-adv-x="1094" 
d="M609 1525q0 -78 53.5 -123t149.5 -45t157 51t75 148h156q-14 -147 -121.5 -237.5t-272.5 -90.5q-166 0 -257.5 80t-91.5 206q0 19 3 42h151q-2 -12 -2 -31z" />
    <glyph glyph-name="dotaccent" unicode="&#x2d9;" horiz-adv-x="1094" 
d="M788 1287q-26 0 -49.5 10t-41 27.5t-27.5 41t-10 49.5t10 49t27.5 40.5t41 27.5t49.5 10t49.5 -10t41 -27.5t27.5 -40.5t10 -49t-10 -49.5t-27.5 -41t-41 -27.5t-49.5 -10z" />
    <glyph glyph-name="ring" unicode="&#x2da;" horiz-adv-x="1095" 
d="M797 1334q26 0 48.5 9.5t39 26t25.5 39t9 48.5t-9 48.5t-25.5 39t-39 26t-48.5 9.5t-48.5 -9.5t-39 -26t-25.5 -39t-9 -48.5t9 -48.5t25.5 -39t39 -26t48.5 -9.5zM797 1228q-48 0 -90.5 17.5t-74 48.5t-49.5 73t-18 90t18 90t49.5 73t74 48.5t90.5 17.5t90 -17.5
t73.5 -48.5t50 -73t18.5 -90t-18.5 -90t-50 -73t-73.5 -48.5t-90 -17.5z" />
    <glyph glyph-name="ogonek" unicode="&#x2db;" horiz-adv-x="1094" 
d="M431 -205q0 -97 122 -97q33 0 45 3l-26 -123q-22 -10 -80 -10q-108 0 -167 50.5t-59 139.5t66 177t170 140l119 -24q-131 -81 -160.5 -153.5t-29.5 -102.5z" />
    <glyph glyph-name="tilde" unicode="&#x2dc;" horiz-adv-x="1094" 
d="M953 1249q-47 0 -79.5 13.5t-58 34t-45 44.5t-50 58t-69.5 34q-87 0 -114 -139h-142q24 197 118.5 235.5t141.5 38.5t79 -13.5t57 -34t45 -44.5t50.5 -58t69.5 -34q88 0 115 139h142q-24 -197 -118.5 -235.5t-141.5 -38.5z" />
    <glyph glyph-name="hungarumlaut" unicode="&#x2dd;" horiz-adv-x="1094" 
d="M648 1601h210l-352 -338h-182zM1048 1601h210l-352 -338h-182z" />
    <glyph glyph-name="gravecmb" unicode="&#x300;" 
d="M79 1263l-206 338h214l180 -338h-188z" />
    <glyph glyph-name="acutecmb" unicode="&#x301;" 
d="M435 1601h220l-350 -338h-194z" />
    <glyph glyph-name="circumflexcmb" unicode="&#x302;" 
d="M573 1228h-187l-129 227h-16l-225 -227h-209l354 340h202z" />
    <glyph glyph-name="tildecmb" unicode="&#x303;" 
d="M400 1217q-47 0 -79.5 13.5t-58 34t-45 44.5t-50 58t-69.5 34q-87 0 -114 -139h-142q24 197 118.5 235.5t141.5 38.5t79 -13.5t57 -34t45 -44.5t50.5 -58t69.5 -34q88 0 115 139h142q-24 -197 -118.5 -235.5t-141.5 -38.5z" />
    <glyph glyph-name="macroncmb" unicode="&#x304;" 
d="M-124 1286l29 136h674l-29 -136h-674z" />
    <glyph glyph-name="brevecmb" unicode="&#x306;" 
d="M21 1525q0 -78 53.5 -123t149.5 -45t157 51t75 148h156q-14 -147 -121.5 -237.5t-272.5 -90.5q-166 0 -257.5 80t-91.5 206q0 19 3 42h151q-2 -12 -2 -31z" />
    <glyph glyph-name="dotaccentcmb" unicode="&#x307;" 
d="M241 1287q-26 0 -49.5 10t-41 27.5t-27.5 41t-10 49.5t10 49t27.5 40.5t41 27.5t49.5 10t49.5 -10t41 -27.5t27.5 -40.5t10 -49t-10 -49.5t-27.5 -41t-41 -27.5t-49.5 -10z" />
    <glyph glyph-name="dieresiscmb" unicode="&#x308;" 
d="M428 1228q-25 0 -47 9.5t-38.5 26t-26 38.5t-9.5 47t9.5 47t26 38.5t38.5 26t47 9.5t47 -9.5t38.5 -26t26 -38.5t9.5 -47t-9.5 -47t-26 -38.5t-38.5 -26t-47 -9.5zM24 1228q-25 0 -47 9.5t-38.5 26t-26 38.5t-9.5 47t9.5 47t26 38.5t38.5 26t47 9.5t47 -9.5t38.5 -26
t26 -38.5t9.5 -47t-9.5 -47t-26 -38.5t-38.5 -26t-47 -9.5z" />
    <glyph glyph-name="hookabovecmb" unicode="&#x309;" 
d="M298 1403q0 33 -28 53t-78 20t-91 -10l25 118q35 11 118 11t144 -47t61 -129t-61 -143.5t-170 -88.5l-52 107q132 29 132 109z" />
    <glyph glyph-name="ringcmb" unicode="&#x30a;" 
d="M250 1334q26 0 48.5 9.5t39 26t25.5 39t9 48.5t-9 48.5t-25.5 39t-39 26t-48.5 9.5t-48.5 -9.5t-39 -26t-25.5 -39t-9 -48.5t9 -48.5t25.5 -39t39 -26t48.5 -9.5zM250 1228q-48 0 -90.5 17.5t-74 48.5t-49.5 73t-18 90t18 90t49.5 73t74 48.5t90.5 17.5t90 -17.5
t73.5 -48.5t50 -73t18.5 -90t-18.5 -90t-50 -73t-73.5 -48.5t-90 -17.5z" />
    <glyph glyph-name="hungarumlautcmb" unicode="&#x30b;" 
d="M242 1601h210l-352 -338h-182zM642 1601h210l-352 -338h-182z" />
    <glyph glyph-name="caroncmb" unicode="&#x30c;" 
d="M113 1228l-210 340h185l129 -227h16l225 227h211l-354 -340h-202z" />
    <glyph glyph-name="dblgravecmb" unicode="&#x30f;" 
d="M285 1263l-208 338h204l180 -338h-176zM-115 1263l-208 338h204l180 -338h-176z" />
    <glyph glyph-name="invertedbrevecmb" unicode="&#x311;" 
d="M452 1259q0 78 -53.5 123t-149.5 45t-157 -51t-75 -148h-156q14 147 121.5 237.5t269.5 90.5t257 -81.5t95 -204.5q0 -20 -3 -42h-151q2 12 2 31z" />
    <glyph glyph-name="horncmb" unicode="&#x31b;" 
d="M-21 1111q31 -43 96.5 -43t99.5 34t52 119l37 176h158l-48 -224q-27 -125 -104.5 -185t-175.5 -60t-145 44z" />
    <glyph glyph-name="dotbelowcmb" unicode="&#x323;" 
d="M-120 -402q-25 0 -47 9.5t-38.5 26t-26 38.5t-9.5 47t9.5 47t26 38.5t38.5 26t47 9.5t47 -9.5t38.5 -26t26 -38.5t9.5 -47t-9.5 -47t-26 -38.5t-38.5 -26t-47 -9.5z" />
    <glyph glyph-name="dieresisbelowcmb" unicode="&#x324;" 
d="M76 -432q-25 0 -47 9.5t-38.5 26t-26 38.5t-9.5 47t9.5 47t26 38.5t38.5 26t47 9.5t47 -9.5t38.5 -26t26 -38.5t9.5 -47t-9.5 -47t-26 -38.5t-38.5 -26t-47 -9.5zM-328 -432q-25 0 -47 9.5t-38.5 26t-26 38.5t-9.5 47t9.5 47t26 38.5t38.5 26t47 9.5t47 -9.5t38.5 -26
t26 -38.5t9.5 -47t-9.5 -47t-26 -38.5t-38.5 -26t-47 -9.5z" />
    <glyph glyph-name="ringbelowcmb" unicode="&#x325;" 
d="M-133 -467q26 0 48.5 9.5t39 26t25.5 39t9 48.5t-9 48.5t-25.5 39t-39 26t-48.5 9.5t-48.5 -9.5t-39 -26t-25.5 -39t-9 -48.5t9 -48.5t25.5 -39t39 -26t48.5 -9.5zM-133 -573q-48 0 -90.5 17.5t-74 48.5t-49.5 73t-18 90t18 90t49.5 73t74 48.5t90.5 17.5t90 -17.5
t73.5 -48.5t50 -73t18.5 -90t-18.5 -90t-50 -73t-73.5 -48.5t-90 -17.5z" />
    <glyph glyph-name="commabelowcmb" unicode="&#x326;" 
d="M-348 -518l182 377h182l-197 -377h-167z" />
    <glyph glyph-name="cedillacmb" unicode="&#x327;" 
d="M-173 -233h-53l13 90l113 182h141l-111 -179q179 -20 179 -156q0 -84 -69 -139.5t-172 -55.5t-181 36l23 108q61 -28 128 -28q123 0 123 71t-134 71z" />
    <glyph glyph-name="ogonekcmb" unicode="&#x328;" 
d="M-165 -205q0 -97 122 -97q33 0 45 3l-26 -123q-22 -10 -80 -10q-108 0 -167 50.5t-59 139.5t66 177t170 140l119 -24q-131 -81 -160.5 -153.5t-29.5 -102.5z" />
    <glyph glyph-name="circumflexbelowcmb" unicode="&#x32d;" 
d="M230 -432h-202l-135 173h-16l-209 -173h-202l362 290h164z" />
    <glyph glyph-name="brevebelowcmb" unicode="&#x32e;" 
d="M-409 -352q-95 80 -95 208v10h152q6 -119 79 -144t115 -25q85 0 142.5 45t77.5 124h154q-25 -135 -128.5 -216.5t-252.5 -81.5t-244 80z" />
    <glyph glyph-name="tildebelowcmb" unicode="&#x330;" 
d="M34 -296q90 0 115 126h142q-21 -127 -91 -194t-170 -67q-99 0 -162.5 70t-88.5 85.5t-50 15.5q-90 0 -114 -126h-142q21 127 91 194t169 67t162.5 -70t88.5 -85.5t50 -15.5z" />
    <glyph glyph-name="macronbelowcmb" unicode="&#x331;" 
d="M-471 -348l29 136h674l-29 -136h-674z" />
    <glyph glyph-name="greekquestionmark" unicode="&#x37e;" horiz-adv-x="608" 
d="M405 759q-27 0 -50.5 10.5t-41 28t-28 41t-10.5 50.5t10.5 50.5t28 41.5t41 28t50.5 10t50.5 -10t41.5 -28t28 -41.5t10 -50.5t-10 -50.5t-28 -41t-41.5 -28t-50.5 -10.5zM-24 -367l217 569h202l-269 -569h-150z" />
    <glyph glyph-name="tonosgreek" unicode="&#x384;" horiz-adv-x="936" 
d="M529 1263l160 338h206l-207 -338h-159z" />
    <glyph glyph-name="dieresistonosgreek" unicode="&#x385;" horiz-adv-x="1355" 
d="M1196 1263q-38 0 -68 29.5t-30 65.5q0 65 39.5 106t92.5 41t82.5 -29.5t29.5 -65.5t-10 -61t-28.5 -44t-44 -30.5t-63.5 -11.5zM576 1263q-38 0 -68 29.5t-30 65.5q0 65 39.5 106t92.5 41t82.5 -29.5t29.5 -65.5t-10 -61t-28.5 -44t-44 -30.5t-63.5 -11.5zM782 1263
l110 338h196l-157 -338h-149z" />
    <glyph glyph-name="Alphatonosgreek" unicode="&#x386;" horiz-adv-x="1382" 
d="M246 1105l160 338h206l-207 -338h-159zM524 566h473l-95 641h-16zM1017 413h-579l-232 -413h-193l845 1443h167l226 -1443h-176z" />
    <glyph glyph-name="anoteleia" unicode="&#x387;" horiz-adv-x="630" 
d="M439 794q-47 0 -86.5 39.5t-39.5 86.5t10.5 73t29.5 45t45 29.5t57 10.5t56.5 -10.5t44 -29.5t29 -45t10.5 -57t-10.5 -57t-29 -45t-44 -29.5t-72.5 -10.5z" />
    <glyph glyph-name="Epsilontonosgreek" unicode="&#x388;" horiz-adv-x="1583" 
d="M248 1105l160 338h206l-207 -338h-159zM1382 0h-896l307 1443h896l-35 -162h-711l-100 -463h675l-34 -160h-674l-106 -496h712z" />
    <glyph glyph-name="Etatonosgreek" unicode="&#x389;" horiz-adv-x="1883" 
d="M248 1105l160 338h206l-207 -338h-159zM1457 0l140 657h-788l-140 -657h-183l307 1443h184l-133 -624h788l133 624h184l-307 -1443h-185z" />
    <glyph glyph-name="Iotatonosgreek" unicode="&#x38a;" horiz-adv-x="911" 
d="M248 1105l160 338h206l-207 -338h-159zM486 0l307 1443h184l-307 -1443h-184z" />
    <glyph glyph-name="Omicrontonosgreek" unicode="&#x38c;" horiz-adv-x="1842" 
d="M248 1105l160 338h206l-207 -338h-159zM1636 834q0 229 -112.5 352.5t-293.5 123.5q-123 0 -229 -55.5t-227 -210.5t-121 -465q0 -200 113.5 -323t296.5 -123q248 0 367.5 152t162.5 286t43 263zM463 563q0 394 222 654t566 260q119 0 226 -45t228 -169t121 -383
q0 -397 -220 -655.5t-564 -258.5q-120 0 -227.5 45t-229.5 169.5t-122 382.5z" />
    <glyph glyph-name="Upsilontonosgreek" unicode="&#x38e;" horiz-adv-x="1707" 
d="M248 1105l160 338h206l-207 -338h-159zM884 0l132 621l-336 822h187l268 -649h16l526 649h207l-692 -848l-124 -595h-184z" />
    <glyph glyph-name="Omegatonosgreek" unicode="&#x38f;" horiz-adv-x="1887" 
d="M248 1105l160 338h206l-207 -338h-159zM741 180q-239 178 -239 519t207.5 559.5t546.5 218.5q268 0 425.5 -155.5t157.5 -415.5q0 -221 -109 -417.5t-291 -308.5l-4 -18h311l-35 -162h-526l44 204q423 249 423 689q0 191 -111.5 304t-308.5 113q-250 0 -397 -168.5
t-147 -450.5q0 -326 273 -487l-44 -204h-526l35 162h311z" />
    <glyph glyph-name="iotadieresistonosgreek" unicode="&#x390;" horiz-adv-x="583" 
d="M776 1263q-38 0 -68 29.5t-30 65.5q0 65 39.5 106t92.5 41t82.5 -29.5t29.5 -65.5t-10 -61t-28.5 -44t-44 -30.5t-63.5 -11.5zM156 1263q-38 0 -68 29.5t-30 65.5q0 65 39.5 106t92.5 41t82.5 -29.5t29.5 -65.5t-10 -61t-28.5 -44t-44 -30.5t-63.5 -11.5zM362 1263
l110 338h196l-157 -338h-149zM321 259q0 -116 135 -116q48 0 80 4l-31 -145q-64 -10 -112 -10q-121 0 -189 57.5t-68 160.5q0 34 11 93l166 775h174l-154 -722q-12 -57 -12 -97z" />
    <glyph glyph-name="Alphagreek" unicode="&#x391;" horiz-adv-x="1380" 
d="M522 566h473l-95 641h-16zM1015 413h-579l-232 -413h-193l845 1443h167l226 -1443h-176z" />
    <glyph glyph-name="Betagreek" unicode="&#x392;" horiz-adv-x="1346" 
d="M707 159q160 0 266 81.5t106 202.5q0 223 -296 223h-335l-108 -507h367zM1150 1088q0 196 -288 196h-283l-98 -463h298q164 0 267.5 74t103.5 193zM931 1443q185 0 295.5 -86.5t110.5 -227.5t-86 -241.5t-226 -130.5l-4 -16q115 -20 182 -95t67 -182q0 -206 -156.5 -335
t-400.5 -129h-590l307 1443h501z" />
    <glyph glyph-name="Gammagreek" unicode="&#x393;" horiz-adv-x="1140" 
d="M123 0l307 1443h858l-35 -162h-673l-272 -1281h-185z" />
    <glyph glyph-name="Deltagreek" unicode="&#x394;" horiz-adv-x="1394" 
d="M291 177l-3 -15h784l3 13l-170 1046h-6zM45 0l27 126l791 1317h167l226 -1317l-27 -126h-1184z" />
    <glyph glyph-name="Epsilongreek" unicode="&#x395;" horiz-adv-x="1220" 
d="M1019 0h-896l307 1443h896l-35 -162h-711l-100 -463h675l-34 -160h-674l-106 -496h712z" />
    <glyph glyph-name="Zetagreek" unicode="&#x396;" horiz-adv-x="1355" 
d="M111 128l1048 1137l4 16h-779l34 162h1022l-27 -128l-1045 -1137l-3 -16h820l-34 -162h-1067z" />
    <glyph glyph-name="Etagreek" unicode="&#x397;" horiz-adv-x="1522" 
d="M1094 0l140 657h-788l-140 -657h-183l307 1443h184l-133 -624h788l133 624h184l-307 -1443h-185z" />
    <glyph glyph-name="Thetagreek" unicode="&#x398;" horiz-adv-x="1581" 
d="M1380 855q0 226 -103 341t-305 115q-258 0 -422 -205.5t-164 -529.5t153.5 -384t266.5 -60t221 54t230.5 204.5t122.5 464.5zM782 -34q-289 0 -435.5 154t-146.5 434q0 411 163 599.5t309 256t323 67.5q279 0 425 -152.5t146 -444.5q0 -404 -165.5 -592t-314 -255
t-304.5 -67zM563 638l35 162h605l-35 -162h-605z" />
    <glyph glyph-name="Iotagreek" unicode="&#x399;" horiz-adv-x="550" 
d="M123 0l307 1443h184l-307 -1443h-184z" />
    <glyph glyph-name="Kappagreek" unicode="&#x39a;" horiz-adv-x="1349" 
d="M123 0l307 1443h179l-149 -701h16l772 701h235l-702 -635l449 -808h-210l-381 697l-229 -204l-107 -493h-180z" />
    <glyph glyph-name="Lambdagreek" unicode="&#x39b;" horiz-adv-x="1368" 
d="M218 0h-193l825 1443h167l206 -1443h-176l-153 1207h-16z" />
    <glyph glyph-name="Mugreek" unicode="&#x39c;" horiz-adv-x="1792" 
d="M123 0l307 1443h200l242 -1194h16l746 1194h222l-307 -1443h-172l234 1102h-12l-685 -1092h-152l-221 1092h-12l-234 -1102h-172z" />
    <glyph glyph-name="Nugreek" unicode="&#x39d;" horiz-adv-x="1520" 
d="M123 0l307 1443h177l534 -1153h16l245 1153h182l-307 -1443h-179l-533 1150h-16l-244 -1150h-182z" />
    <glyph glyph-name="Xigreek" unicode="&#x39e;" horiz-adv-x="1343" 
d="M1177 167l-35 -167h-1059l35 167h1059zM308 653l36 165h885l-36 -165h-885zM1448 1443l-35 -167h-1059l35 167h1059z" />
    <glyph glyph-name="Omicrongreek" unicode="&#x39f;" horiz-adv-x="1577" 
d="M1373 834q0 229 -112.5 352.5t-293.5 123.5q-123 0 -229 -55.5t-227 -210.5t-121 -465q0 -200 113.5 -323t296.5 -123q248 0 367.5 152t162.5 286t43 263zM200 563q0 394 222 654t566 260q119 0 226 -45t228 -169t121 -383q0 -397 -220.5 -655.5t-564.5 -258.5
q-120 0 -227 45t-229 169.5t-122 382.5z" />
    <glyph glyph-name="Pigreek" unicode="&#x3a0;" horiz-adv-x="1502" 
d="M1074 0l273 1281h-768l-273 -1281h-183l307 1443h1136l-307 -1443h-185z" />
    <glyph glyph-name="Rhogreek" unicode="&#x3a1;" horiz-adv-x="1301" 
d="M765 675q181 0 289.5 95t108.5 267q0 116 -77.5 181t-211.5 65h-294l-130 -608h315zM937 1443q176 0 295 -107.5t119 -282.5q0 -247 -163.5 -392.5t-411.5 -145.5h-360l-109 -515h-184l307 1443h507z" />
    <glyph glyph-name="Sigmagreek" unicode="&#x3a3;" horiz-adv-x="1355" 
d="M350 162h835l-34 -162h-1067l27 128l541 620l-263 561l28 134h1022l-34 -162h-799l-2 -7l239 -515l-7 -30l-484 -560z" />
    <glyph glyph-name="Taugreek" unicode="&#x3a4;" horiz-adv-x="1298" 
d="M494 0l272 1281h-463l34 162h1110l-34 -162h-463l-272 -1281h-184z" />
    <glyph glyph-name="Upsilongreek" unicode="&#x3a5;" horiz-adv-x="1344" 
d="M521 0l132 621l-336 822h187l268 -649h16l526 649h207l-692 -848l-124 -595h-184z" />
    <glyph glyph-name="Phigreek" unicode="&#x3a6;" horiz-adv-x="1715" 
d="M1510 807q0 173 -95 272t-273 111l-200 -943q255 0 411.5 154.5t156.5 405.5zM389 630q0 -174 94.5 -272.5t273.5 -111.5l200 943q-253 0 -410.5 -155.5t-157.5 -403.5zM202 634q0 137 58 271t220 286t512 160l31 146h184l-31 -146q248 -24 384.5 -161.5t136.5 -366.5
q0 -319 -220.5 -524.5t-568.5 -213.5l-31 -143h-184l30 143q-248 24 -384.5 161.5t-136.5 387.5z" />
    <glyph glyph-name="Chigreek" unicode="&#x3a7;" horiz-adv-x="1390" 
d="M686 752l-323 691h206l249 -574h16l508 574h205l-649 -727l332 -716h-194l-268 586h-16l-517 -586h-204z" />
    <glyph glyph-name="Psigreek" unicode="&#x3a8;" horiz-adv-x="1676" 
d="M286 769q0 56 14 129l114 545h184l-113 -539q-16 -73 -16 -136q0 -128 83.5 -190.5t241.5 -72.5l199 938h184l-199 -938q396 0 480 399l114 539h184l-115 -545q-58 -273 -217.5 -408.5t-480.5 -150.5l-72 -339h-185l72 339q-239 26 -355.5 132t-116.5 298z" />
    <glyph glyph-name="Omegagreek" unicode="&#x3a9;" horiz-adv-x="1590" 
d="M444 180q-239 178 -239 519t207.5 559.5t546.5 218.5q268 0 425.5 -155.5t157.5 -415.5q0 -221 -109 -417.5t-291 -308.5l-4 -18h311l-35 -162h-526l44 204q423 249 423 689q0 191 -111.5 304t-308.5 113q-250 0 -397 -168.5t-147 -450.5q0 -326 273 -487l-44 -204h-526
l35 162h311z" />
    <glyph glyph-name="Iotadieresisgreek" unicode="&#x3aa;" horiz-adv-x="548" 
d="M778 1575q-25 0 -47 9.5t-38.5 26t-26 38.5t-9.5 47t9.5 47t26 38.5t38.5 26t47 9.5t47 -9.5t38.5 -26t26 -38.5t9.5 -47t-9.5 -47t-26 -38.5t-38.5 -26t-47 -9.5zM374 1575q-25 0 -47 9.5t-38.5 26t-26 38.5t-9.5 47t9.5 47t26 38.5t38.5 26t47 9.5t47 -9.5t38.5 -26
t26 -38.5t9.5 -47t-9.5 -47t-26 -38.5t-38.5 -26t-47 -9.5zM123 0l307 1443h184l-307 -1443h-184z" />
    <glyph glyph-name="Upsilondieresisgreek" unicode="&#x3ab;" horiz-adv-x="1344" 
d="M1174 1575q-25 0 -47 9.5t-38.5 26t-26 38.5t-9.5 47t9.5 47t26 38.5t38.5 26t47 9.5t47 -9.5t38.5 -26t26 -38.5t9.5 -47t-9.5 -47t-26 -38.5t-38.5 -26t-47 -9.5zM770 1575q-25 0 -47 9.5t-38.5 26t-26 38.5t-9.5 47t9.5 47t26 38.5t38.5 26t47 9.5t47 -9.5t38.5 -26
t26 -38.5t9.5 -47t-9.5 -47t-26 -38.5t-38.5 -26t-47 -9.5zM521 0l132 621l-336 822h187l268 -649h16l526 649h207l-692 -848l-124 -595h-184z" />
    <glyph glyph-name="alphatonosgreek" unicode="&#x3ac;" horiz-adv-x="1265" 
d="M650 1263l160 338h206l-207 -338h-159zM946 615q0 151 -70.5 239t-193.5 88q-156 0 -259 -144.5t-103 -362.5q0 -134 65 -216.5t186 -82.5q67 0 138 37.5t154 139.5t83 302zM1048 207q0 -66 72 -66q44 0 69 4l-31 -145q-44 -10 -87 -10q-98 0 -143.5 44t-45.5 145v11h-16
q-53 -100 -146.5 -154.5t-192.5 -54.5q-180 0 -283.5 121t-103.5 313q0 287 111 432t207 197.5t207 52.5q272 0 336 -219h16l43 200h167l-172 -809q-7 -27 -7 -62z" />
    <glyph glyph-name="epsilontonosgreek" unicode="&#x3ad;" horiz-adv-x="1110" 
d="M627 1263l160 338h206l-207 -338h-159zM663 942q-189 0 -223.5 -69t-34.5 -105q0 -69 52 -108t159 -39h161l-33 -154h-189q-123 0 -187 -47.5t-64 -123.5t66 -117.5t158 -41.5q155 0 247.5 50.5t124.5 138.5h179q-40 -159 -182 -252t-337 -93t-317.5 77.5t-122.5 225.5
q0 149 94.5 199t148.5 63l4 16q-140 65 -140 210t121 235t326 90q206 0 319 -86.5t130 -230.5h-176q-40 162 -284 162z" />
    <glyph glyph-name="etatonosgreek" unicode="&#x3ae;" horiz-adv-x="1273" 
d="M670 1263l160 338h206l-207 -338h-159zM1048 720q0 100 -59 161t-172 61q-114 0 -200 -79t-117 -225l-136 -638h-176l172 810q8 38 8 68q0 60 -90 59q-32 0 -52 -4l31 145q44 10 86 10q89 0 132 -33.5t57 -111.5l6 -35h17q123 189 356 189q144 0 232 -95.5t88 -249.5
q0 -56 -12 -114l-213 -998h-176l209 989q9 45 9 91z" />
    <glyph glyph-name="iotatonosgreek" unicode="&#x3af;" horiz-adv-x="573" 
d="M358 1263l160 338h206l-207 -338h-159zM321 259q0 -116 135 -116q48 0 80 4l-31 -145q-64 -10 -112 -10q-121 0 -189 57.5t-68 160.5q0 34 11 93l166 775h174l-154 -722q-12 -57 -12 -97z" />
    <glyph glyph-name="upsilondieresistonosgreek" unicode="&#x3b0;" horiz-adv-x="1162" 
d="M1048 1263q-38 0 -67.5 29.5t-29.5 65.5q0 65 39.5 106t92.5 41t82.5 -29.5t29.5 -65.5t-10 -61t-28.5 -44t-44.5 -30.5t-64 -11.5zM428 1263q-38 0 -67.5 29.5t-29.5 65.5q0 65 39.5 106t92.5 41t82.5 -29.5t29.5 -65.5t-10 -61t-28.5 -44t-44.5 -30.5t-64 -11.5z
M635 1263l110 338h196l-157 -338h-149zM1126 784q0 -373 -167 -588t-435 -215t-318.5 125t-50.5 199t14 138l133 635h171l-130 -618q-18 -82 -17 -160q3 -162 203 -162t310 172.5t110 479.5q0 170 -28 288h177q28 -108 28 -294z" />
    <glyph glyph-name="alphagreek" unicode="&#x3b1;" horiz-adv-x="1265" 
d="M946 615q0 151 -70.5 239t-193.5 88q-156 0 -259 -144.5t-103 -362.5q0 -134 65 -216.5t186 -82.5q67 0 138 37.5t154 139.5t83 302zM1048 207q0 -66 72 -66q44 0 69 4l-31 -145q-44 -10 -87 -10q-98 0 -143.5 44t-45.5 145v11h-16q-53 -100 -146.5 -154.5t-192.5 -54.5
q-180 0 -283.5 121t-103.5 313q0 287 111 432t207 197.5t207 52.5q272 0 336 -219h16l43 200h167l-172 -809q-7 -27 -7 -62z" />
    <glyph glyph-name="betagreek" unicode="&#x3b2;" horiz-adv-x="1258" 
d="M722 889q137 0 220 77t83 197q0 149 -84 178t-144 29q-237 0 -303 -309l-112 -523q-17 -83 -17 -133t22.5 -103t85 -109.5t206.5 -56.5t240 95t96 229t-79.5 204.5t-228.5 70.5h-108l33 154h90zM951 813q245 -95 245 -323q0 -222 -146 -365.5t-365 -143.5
q-278 0 -359 218h-16l-119 -559h-173l306 1439q92 446 478 446q184 0 292 -91t108 -231q0 -278 -248 -373z" />
    <glyph glyph-name="gammagreek" unicode="&#x3b3;" horiz-adv-x="1092" 
d="M1129 972q0 -80 -80.5 -307t-527.5 -693l-69 -322h-173l70 329l-141 1099h183l92 -920h19q457 515 457 853q0 42 -6 67h171q5 -26 5 -106z" />
    <glyph glyph-name="deltagreek" unicode="&#x3b4;" horiz-adv-x="1180" 
d="M962 580q0 137 -76.5 219t-205.5 82q-159 0 -266.5 -127.5t-107.5 -330.5q0 -132 74 -211.5t210 -79.5q72 0 142 34t150 128t80 286zM808 1374q-92 0 -142.5 -31t-50.5 -84t34.5 -89t137.5 -93q196 -110 275 -216.5t79 -262.5q0 -258 -169.5 -437.5t-408.5 -179.5
q-200 0 -319 117.5t-119 331.5q0 213 129 373.5t354 187.5l4 19q-170 92 -170 228t106.5 211.5t284.5 75.5t256.5 -36.5t103.5 -57.5l-38 -151q-148 94 -347 94z" />
    <glyph glyph-name="epsilongreek" unicode="&#x3b5;" horiz-adv-x="1110" 
d="M663 942q-189 0 -223.5 -69t-34.5 -105q0 -69 52 -108t159 -39h161l-33 -154h-189q-123 0 -187 -47.5t-64 -123.5t66 -117.5t158 -41.5q155 0 247.5 50.5t124.5 138.5h179q-40 -159 -182 -252t-337 -93t-317.5 77.5t-122.5 225.5q0 149 94.5 199t148.5 63l4 16
q-140 65 -140 210t121 235t326 90q206 0 319 -86.5t130 -230.5h-176q-40 162 -284 162z" />
    <glyph glyph-name="zetagreek" unicode="&#x3b6;" horiz-adv-x="929" 
d="M679 -103q0 50 -37 86.5t-134 72.5q-203 77 -294.5 185.5t-91.5 274.5q0 341 255 534t416 285l4 17h-460l33 154h721l8 -164q-581 -276 -688.5 -487t-107.5 -325t56.5 -181t174.5 -115q202 -81 261.5 -143t59.5 -149t-33.5 -158t-107.5 -145l-130 47q95 119 95 211z" />
    <glyph glyph-name="etagreek" unicode="&#x3b7;" horiz-adv-x="1273" 
d="M1048 720q0 100 -59 161t-172 61q-114 0 -200 -79t-117 -225l-136 -638h-176l172 810q8 38 8 68q0 60 -90 59q-32 0 -52 -4l31 145q44 10 86 10q89 0 132 -33.5t57 -111.5l6 -35h17q123 189 356 189q144 0 232 -95.5t88 -249.5q0 -56 -12 -114l-213 -998h-176l209 989
q9 45 9 91z" />
    <glyph glyph-name="thetagreek" unicode="&#x3b8;" horiz-adv-x="1231" 
d="M1060 1012q0 358 -255 358q-293 0 -408 -530h651q12 87 12 172zM354 487q0 -163 62 -257t187 -94q231 0 310 204t109 346h-652q-16 -120 -16 -199zM179 497q-1 125 29 291q62 350 221.5 543.5t394.5 193.5q203 0 308 -130.5t105 -382.5q1 -126 -29 -294
q-61 -350 -221.5 -543.5t-392.5 -193.5q-203 0 -309 132t-106 384z" />
    <glyph glyph-name="iotagreek" unicode="&#x3b9;" horiz-adv-x="573" 
d="M321 259q0 -116 135 -116q48 0 80 4l-31 -145q-64 -10 -112 -10q-121 0 -189 57.5t-68 160.5q0 34 11 93l166 775h174l-154 -722q-12 -57 -12 -97z" />
    <glyph glyph-name="kappagreek" unicode="&#x3ba;" horiz-adv-x="1116" 
d="M795 919q105 105 162 137t122 32t105 -10l-31 -145q-38 4 -55 4q-36 0 -65.5 -16.5t-74.5 -61.5l-209 -206l287 -653h-179l-228 536l-311 -307l-48 -229h-174l228 1078h175l-119 -558h16z" />
    <glyph glyph-name="lambdagreek" unicode="&#x3bb;" horiz-adv-x="1100" 
d="M957 -10q-101 0 -151.5 51.5t-66.5 174.5l-74 552h-15l-457 -768h-201l636 1018l-15 98q-28 175 -51.5 208.5t-51.5 41.5t-57 8t-63 -4l31 145q39 10 97 10q124 0 178 -75.5t86 -301.5l125 -898q14 -109 103 -109q40 0 68 4l-31 -145q-40 -10 -90 -10z" />
    <glyph glyph-name="mugreek" unicode="&#x3bc;" horiz-adv-x="1273" 
d="M1037 204q1 -63 73 -63q44 0 68 4l-31 -145q-44 -10 -87 -10q-99 0 -144 45t-45 138v6h-16q-85 -137 -185 -167.5t-144 -30.5q-83 0 -142.5 40.5t-72.5 106.5h-16l-104 -488h-173l304 1438h175l-126 -595q-19 -86 -19 -138q0 -207 211 -207q121 0 221 94.5t130 233.5
l130 612h172l-172 -809q-7 -33 -7 -65z" />
    <glyph glyph-name="nugreek" unicode="&#x3bd;" horiz-adv-x="1093" 
d="M1129 974q0 -80 -73.5 -293t-506.5 -681h-203l-138 1078h183l92 -920h19q457 515 457 853q0 42 -6 67h171q5 -24 5 -104z" />
    <glyph glyph-name="xigreek" unicode="&#x3be;" horiz-adv-x="939" 
d="M678 -104q0 50 -35.5 85.5t-138.5 74.5q-216 83 -309.5 172t-93.5 214q0 211 136 275t219 85l3 14q-179 72 -179 233t95.5 214.5t155.5 73.5l3 15h-211l32 154h706l7 -137l-123 -11q-499 -53 -499 -281q0 -94 95.5 -145t266.5 -51h97l-32 -154h-91q-356 0 -427 -94
t-71 -145q0 -89 60.5 -145.5t180.5 -105.5q207 -85 268 -144t61 -149t-31.5 -158.5t-109.5 -146.5l-130 47q95 118 95 210z" />
    <glyph glyph-name="omicrongreek" unicode="&#x3bf;" horiz-adv-x="1179" 
d="M603 136q63 0 129 35t147.5 135.5t81.5 318.5t-99.5 267.5t-174.5 49.5t-143.5 -37.5t-142.5 -138.5t-74 -306q0 -152 76.5 -238t199.5 -86zM592 -19q-202 0 -325 123.5t-123 329.5q0 278 157.5 470.5t425.5 192.5q187 0 302.5 -128.5t115.5 -295.5t-44.5 -292.5
t-121 -214.5t-180 -137t-207.5 -48z" />
    <glyph glyph-name="pigreek" unicode="&#x3c0;" horiz-adv-x="1371" 
d="M1051 202q-1 -61 69 -61q51 0 77 4l-31 -145q-40 -10 -103 -10q-185 0 -185 170q0 32 8 73t11 58l134 633h-453l-197 -924h-166l196 924h-192l33 154h1195l-33 -154h-216l-136 -638q-11 -55 -11 -84z" />
    <glyph glyph-name="rhogreek" unicode="&#x3c1;" horiz-adv-x="1208" 
d="M730 1097q204 0 327 -132.5t123 -338.5q0 -274 -115.5 -410t-215 -185.5t-187.5 -49.5q-147 0 -239.5 64t-119.5 154h-16l-119 -559h-173l197 930q109 527 538 527zM1000 612q0 154 -76.5 242t-204.5 88q-161 0 -264.5 -136.5t-103.5 -348.5q0 -146 80.5 -233.5
t204.5 -87.5q64 0 130.5 32t150 131t83.5 313z" />
    <glyph glyph-name="sigmafinalgreek" unicode="&#x3c2;" horiz-adv-x="1115" 
d="M705 -103q0 49 -34 84t-134 73q-206 79 -297.5 191t-91.5 289q0 240 144 401.5t409 161.5q189 0 305 -105.5t127 -250.5h-174q-19 85 -88.5 143t-170.5 58q-185 0 -278.5 -117t-93.5 -286t96 -229t172 -92q162 -67 223.5 -126.5t61.5 -147.5t-33 -159t-108 -146l-130 47
q95 119 95 211z" />
    <glyph glyph-name="sigmagreek" unicode="&#x3c3;" horiz-adv-x="1265" 
d="M560 136q191 0 292.5 139t101.5 360q0 138 -60 213t-160 75q-190 0 -300.5 -139t-110.5 -361q0 -139 65.5 -213t171.5 -74zM1127 625q0 -262 -154.5 -453t-392.5 -191q-197 0 -317 124t-120 322q0 274 154.5 462.5t422.5 188.5h615l-32 -154h-286l-3 -16
q113 -101 113 -283z" />
    <glyph glyph-name="taugreek" unicode="&#x3c4;" horiz-adv-x="1054" 
d="M558 259q0 -116 136 -116q62 0 113 6l-31 -145q-52 -12 -126 -12q-135 0 -206 55.5t-71 162.5q0 40 11 93l133 621h-343l32 154h918l-32 -154h-401l-121 -568q-12 -57 -12 -97z" />
    <glyph glyph-name="upsilongreek" unicode="&#x3c5;" horiz-adv-x="1162" 
d="M1126 784q0 -373 -167 -588t-435 -215t-318.5 125t-50.5 199t14 138l133 635h171l-130 -618q-18 -82 -17 -160q3 -162 203 -162t310 172.5t110 479.5q0 170 -28 288h177q28 -108 28 -294z" />
    <glyph glyph-name="phigreek" unicode="&#x3c6;" horiz-adv-x="1510" 
d="M1297 628q0 120 -82 206.5t-232 108.5l-175 -820q223 10 356 144t133 361zM323 448q0 -122 81.5 -207t235.5 -108l175 821q-222 -6 -357 -141t-135 -365zM146 470q0 120 51.5 240t196 253.5t451.5 133.5l62 291h171l-64 -300q211 -22 335.5 -145t124.5 -311
q0 -284 -196.5 -467.5t-499.5 -183.5l-72 -341h-170l74 349q-218 24 -341 145t-123 336z" />
    <glyph glyph-name="chigreek" unicode="&#x3c7;" horiz-adv-x="1114" 
d="M686 -214l-120 407h-16l-408 -553h-186l559 734l-136 454q-20 65 -46.5 87t-68.5 22t-65 -4l31 145q42 10 88 10q92 0 138 -37.5t74 -129.5l117 -392h16l399 549h186l-549 -730l134 -458q18 -63 46 -86t67 -23t67 4l-31 -145q-39 -10 -108 -10q-144 0 -188 156z" />
    <glyph glyph-name="psigreek" unicode="&#x3c8;" horiz-adv-x="1469" 
d="M1431 790q0 -382 -173.5 -599.5t-512.5 -217.5l-71 -333h-167l72 339q-423 14 -423 325q0 81 20 178l126 596h171l-132 -626q-15 -69 -15 -125q0 -93 68 -138.5t217 -52.5l268 1252h167l-269 -1259q228 7 352 170.5t124 482.5q0 182 -30 296h176q32 -98 32 -288z" />
    <glyph glyph-name="omegagreek" unicode="&#x3c9;" horiz-adv-x="1584" 
d="M1418 1078q108 -167 108 -441t-138 -465t-338 -191q-101 0 -161 52.5t-88 168.5h-18q-104 -221 -314 -221q-159 0 -242.5 99t-83.5 288q0 296 105.5 471t166.5 239h188q-203 -221 -242 -419.5t-39 -300.5t44 -161t128 -59t146.5 63t88.5 181l84 387h172l-72 -341
q-10 -44 -10 -91q0 -94 44.5 -146.5t114.5 -52.5q130 0 207.5 141.5t77.5 379.5t-117 419h188z" />
    <glyph glyph-name="iotadieresisgreek" unicode="&#x3ca;" horiz-adv-x="583" 
d="M643 1228q-25 0 -47 9.5t-38.5 26t-26 38.5t-9.5 47t9.5 47t26 38.5t38.5 26t47 9.5t47 -9.5t38.5 -26t26 -38.5t9.5 -47t-9.5 -47t-26 -38.5t-38.5 -26t-47 -9.5zM239 1228q-25 0 -47 9.5t-38.5 26t-26 38.5t-9.5 47t9.5 47t26 38.5t38.5 26t47 9.5t47 -9.5t38.5 -26
t26 -38.5t9.5 -47t-9.5 -47t-26 -38.5t-38.5 -26t-47 -9.5zM321 259q0 -116 135 -116q48 0 80 4l-31 -145q-64 -10 -112 -10q-121 0 -189 57.5t-68 160.5q0 34 11 93l166 775h174l-154 -722q-12 -57 -12 -97z" />
    <glyph glyph-name="upsilondieresisgreek" unicode="&#x3cb;" horiz-adv-x="1162" 
d="M952 1228q-25 0 -47 9.5t-38.5 26t-26 38.5t-9.5 47t9.5 47t26 38.5t38.5 26t47 9.5t47 -9.5t38.5 -26t26 -38.5t9.5 -47t-9.5 -47t-26 -38.5t-38.5 -26t-47 -9.5zM548 1228q-25 0 -47 9.5t-38.5 26t-26 38.5t-9.5 47t9.5 47t26 38.5t38.5 26t47 9.5t47 -9.5t38.5 -26
t26 -38.5t9.5 -47t-9.5 -47t-26 -38.5t-38.5 -26t-47 -9.5zM1126 784q0 -373 -167 -588t-435 -215t-318.5 125t-50.5 199t14 138l133 635h171l-130 -618q-18 -82 -17 -160q3 -162 203 -162t310 172.5t110 479.5q0 170 -28 288h177q28 -108 28 -294z" />
    <glyph glyph-name="omicrontonosgreek" unicode="&#x3cc;" horiz-adv-x="1179" 
d="M648 1263l160 338h206l-207 -338h-159zM603 136q63 0 129 35t147.5 135.5t81.5 318.5t-99.5 267.5t-174.5 49.5t-143.5 -37.5t-142.5 -138.5t-74 -306q0 -152 76.5 -238t199.5 -86zM592 -19q-202 0 -325 123.5t-123 329.5q0 278 157.5 470.5t425.5 192.5
q187 0 302.5 -128.5t115.5 -295.5t-44.5 -292.5t-121 -214.5t-180 -137t-207.5 -48z" />
    <glyph glyph-name="upsilontonosgreek" unicode="&#x3cd;" horiz-adv-x="1162" 
d="M644 1263l160 338h206l-207 -338h-159zM1126 784q0 -373 -167 -588t-435 -215t-318.5 125t-50.5 199t14 138l133 635h171l-130 -618q-18 -82 -17 -160q3 -162 203 -162t310 172.5t110 479.5q0 170 -28 288h177q28 -108 28 -294z" />
    <glyph glyph-name="omegatonosgreek" unicode="&#x3ce;" horiz-adv-x="1584" 
d="M880 1263l160 338h206l-207 -338h-159zM1418 1078q108 -167 108 -441t-138 -465t-338 -191q-101 0 -161 52.5t-88 168.5h-18q-104 -221 -314 -221q-159 0 -242.5 99t-83.5 288q0 296 105.5 471t166.5 239h188q-203 -221 -242 -419.5t-39 -300.5t44 -161t128 -59t146.5 63
t88.5 181l84 387h172l-72 -341q-10 -44 -10 -91q0 -94 44.5 -146.5t114.5 -52.5q130 0 207.5 141.5t77.5 379.5t-117 419h188z" />
    <glyph glyph-name="Iocyrillic" unicode="&#x401;" horiz-adv-x="1239" 
d="M1143 1575q-25 0 -47 9.5t-38.5 26t-26 38.5t-9.5 47t9.5 47t26 38.5t38.5 26t47 9.5t47 -9.5t38.5 -26t26 -38.5t9.5 -47t-9.5 -47t-26 -38.5t-38.5 -26t-47 -9.5zM739 1575q-25 0 -47 9.5t-38.5 26t-26 38.5t-9.5 47t9.5 47t26 38.5t38.5 26t47 9.5t47 -9.5t38.5 -26
t26 -38.5t9.5 -47t-9.5 -47t-26 -38.5t-38.5 -26t-47 -9.5zM1029 0h-896l307 1443h896l-35 -162h-711l-100 -463h675l-34 -160h-674l-106 -496h712z" />
    <glyph glyph-name="Djecyrillic" unicode="&#x402;" horiz-adv-x="1739" 
d="M865 761q136 146 376 146q82 0 163 -31.5t162 -116.5t81 -287q0 -203 -146.5 -345.5t-372.5 -142.5q-112 0 -159 18l35 161q48 -16 124 -16q149 0 242 95.5t93 237.5q0 188 -98.5 226.5t-166.5 38.5q-123 0 -231 -64.5t-162 -145.5l-114 -535h-184l272 1281h-463l35 162
h1110l-35 -162h-463l-110 -520h12z" />
    <glyph glyph-name="Gjecyrillic" unicode="&#x403;" horiz-adv-x="1168" 
d="M1090 1873h226l-395 -298h-204zM133 0l307 1443h868l-35 -162h-683l-272 -1281h-185z" />
    <glyph glyph-name="Ecyrillic" unicode="&#x404;" horiz-adv-x="1476" 
d="M989 1477q207 0 358 -128.5t157 -325.5v-15h-183q-6 137 -106 220t-249 83q-191 0 -334 -133.5t-202 -358.5h652l-34 -162h-647q-26 -246 72.5 -385.5t298.5 -139.5q144 0 255 76t165 194h183q-70 -202 -235.5 -319t-405.5 -117q-130 0 -244.5 55t-224 222.5t-25.5 556.5
q64 307 261.5 492t487.5 185z" />
    <glyph glyph-name="Dzecyrillic" unicode="&#x405;" horiz-adv-x="1296" 
d="M925.5 199.5q92.5 70.5 92.5 172.5t-62 163t-201 110l-137 48q-148 52 -229.5 148.5t-81.5 203.5q0 196 146 314t357 118t353.5 -117.5t158.5 -302.5h-181q-28 122 -116 189.5t-221 67.5t-220 -66.5t-87 -156.5q0 -89 56.5 -146t175.5 -100l130 -47q350 -128 350 -372
q0 -213 -150.5 -336.5t-381.5 -123.5t-374.5 116t-173.5 318h182q26 -126 127 -198.5t248 -72.5t239.5 70.5z" />
    <glyph glyph-name="Icyrillic" unicode="&#x406;" horiz-adv-x="570" 
d="M133 0l307 1443h184l-307 -1443h-184z" />
    <glyph glyph-name="Yicyrillic" unicode="&#x407;" horiz-adv-x="571" 
d="M788 1575q-25 0 -47 9.5t-38.5 26t-26 38.5t-9.5 47t9.5 47t26 38.5t38.5 26t47 9.5t47 -9.5t38.5 -26t26 -38.5t9.5 -47t-9.5 -47t-26 -38.5t-38.5 -26t-47 -9.5zM384 1575q-25 0 -47 9.5t-38.5 26t-26 38.5t-9.5 47t9.5 47t26 38.5t38.5 26t47 9.5t47 -9.5t38.5 -26
t26 -38.5t9.5 -47t-9.5 -47t-26 -38.5t-38.5 -26t-47 -9.5zM133 0l307 1443h184l-307 -1443h-184z" />
    <glyph glyph-name="Jecyrillic" unicode="&#x408;" horiz-adv-x="1122" 
d="M510 135q208 0 265 269l221 1039h179l-228 -1080q-40 -189 -156.5 -293t-296.5 -104t-289 106t-99 265h181q3 -144 87.5 -173t135.5 -29z" />
    <glyph glyph-name="Ljecyrillic" unicode="&#x409;" horiz-adv-x="2157" 
d="M1538 160q161 0 271 97t110 233q0 208 -120.5 243t-189.5 35h-274l-130 -608h333zM83 156q45 0 90.5 29.5t92 99.5t98.5 262l243 896h871l-110 -515h278q205 0 333 -112.5t128 -306.5t-156 -351.5t-394 -157.5h-570l273 1281h-521l-203 -741q-76 -279 -184 -414
t-304 -135q-44 0 -68 10l34 161q24 -6 69 -6z" />
    <glyph glyph-name="Njecyrillic" unicode="&#x40a;" horiz-adv-x="2177" 
d="M1576 160q161 0 256 78t95 198q0 165 -109 193.5t-171 28.5h-298l-106 -498h333zM1684 818q191 0 311 -99t120 -271q0 -173 -145 -310.5t-375 -137.5h-570l140 657h-709l-140 -657h-183l307 1443h184l-133 -624h708l133 624h184l-133 -625h301z" />
    <glyph glyph-name="Tshecyrillic" unicode="&#x40b;" horiz-adv-x="1769" 
d="M869 763q175 144 383 144t315 -140t57 -380l-83 -387h-184l84 395q36 165 -27.5 257.5t-226.5 92.5t-257 -83t-125 -127l-114 -535h-184l272 1281h-463l35 162h1110l-35 -162h-463l-110 -518h16z" />
    <glyph glyph-name="Kjecyrillic" unicode="&#x40c;" horiz-adv-x="1351" 
d="M661 731l560 -731h-210l-511 665h-42l-141 -665h-184l307 1443h184l-135 -634h42l731 634h235zM1011 1575h-204l373 298h226z" />
    <glyph glyph-name="Ushortcyrillic" unicode="&#x40e;" horiz-adv-x="1333" 
d="M1079 1743.5q63 49.5 81 130.5h156q-30 -138 -135.5 -218t-260.5 -80t-237 81t-53 217h156q-17 -79 25.5 -129.5t123.5 -50.5t144 49.5zM324 157q143 0 254 151l-251 1135h189l189 -929h16l574 929h205l-687 -1071q-131 -203 -248 -292.5t-295 -89.5q-56 0 -77 13l34 162
q33 -8 97 -8z" />
    <glyph glyph-name="Dzhecyrillic" unicode="&#x40f;" horiz-adv-x="1517" 
d="M133 0l307 1443h180l-272 -1279h768l272 1279h183l-307 -1443h-482l-61 -285h-167l61 285h-482z" />
    <glyph glyph-name="Acyrillic" unicode="&#x410;" horiz-adv-x="1400" 
d="M532 566h473l-95 641h-16zM1025 413h-579l-232 -413h-193l845 1443h167l226 -1443h-176z" />
    <glyph glyph-name="Becyrillic" unicode="&#x411;" horiz-adv-x="1321" 
d="M684 160q162 0 271.5 88t109.5 212q0 187 -120.5 217.5t-189.5 30.5h-287l-117 -548h333zM792 868q204 0 332.5 -104t128.5 -286t-156.5 -330t-393.5 -148h-570l307 1443h855l-35 -162h-670l-88 -413h290z" />
    <glyph glyph-name="Vecyrillic" unicode="&#x412;" horiz-adv-x="1366" 
d="M717 159q160 0 266 81.5t106 202.5q0 223 -296 223h-335l-108 -507h367zM1160 1088q0 196 -288 196h-283l-98 -463h298q164 0 267.5 74t103.5 193zM941 1443q185 0 295.5 -86.5t110.5 -227.5t-86 -241.5t-226 -130.5l-4 -16q115 -20 182 -95t67 -182q0 -206 -156.5 -335
t-400.5 -129h-590l307 1443h501z" />
    <glyph glyph-name="Gecyrillic" unicode="&#x413;" horiz-adv-x="1168" 
d="M133 0l307 1443h868l-35 -162h-683l-272 -1281h-185z" />
    <glyph glyph-name="Decyrillic" unicode="&#x414;" horiz-adv-x="1510" 
d="M86 -285h-167l95 447h107q88 42 142.5 136.5t92.5 236.5l248 908h903l-273 -1281h180l-95 -447h-167l61 285h-1066zM527 531q-38 -138 -76.5 -217.5t-100.5 -139.5l-3 -12h703l238 1119h-555z" />
    <glyph glyph-name="Iecyrillic" unicode="&#x415;" horiz-adv-x="1239" 
d="M1029 0h-896l307 1443h896l-35 -162h-711l-100 -463h675l-34 -160h-674l-106 -496h712z" />
    <glyph glyph-name="Zhecyrillic" unicode="&#x416;" horiz-adv-x="2067" 
d="M239 0h-244l859 765l-468 678h206l430 -637h42l136 637h180l-136 -637h42l702 637h235l-800 -710l514 -733h-210l-470 667h-42l-142 -667h-180l142 667h-42z" />
    <glyph glyph-name="Zecyrillic" unicode="&#x417;" horiz-adv-x="1279" 
d="M731 821q152 0 251 78.5t99 189.5q0 110 -63 169t-191 59q-193 0 -262 -93.5t-87 -150.5h-175q54 191 200.5 297.5t345.5 106.5q198 0 310 -102.5t112 -252.5t-91 -249t-246 -125l-4 -16q119 -25 187 -102t68 -191t-42 -198.5t-116.5 -145.5t-176 -95t-276 -34
t-302 116.5t-136.5 297.5h174q4 -107 87 -181.5t238 -74.5q156 0 259 80t103 204q0 251 -306 251h-189l34 162h195z" />
    <glyph glyph-name="Iicyrillic" unicode="&#x418;" horiz-adv-x="1538" 
d="M1344 1132h-16l-1013 -1132h-182l307 1443h182l-242 -1136h16l1014 1136h182l-307 -1443h-182z" />
    <glyph glyph-name="Iishortcyrillic" unicode="&#x419;" horiz-adv-x="1538" 
d="M1182 1743.5q63 49.5 81 130.5h156q-30 -138 -135.5 -218t-260.5 -80t-237 81t-53 217h156q-17 -79 25.5 -129.5t123.5 -50.5t144 49.5zM1344 1132h-16l-1013 -1132h-182l307 1443h182l-242 -1136h16l1014 1136h182l-307 -1443h-182z" />
    <glyph glyph-name="Kacyrillic" unicode="&#x41a;" horiz-adv-x="1351" 
d="M661 731l560 -731h-210l-511 665h-42l-141 -665h-184l307 1443h184l-135 -634h42l731 634h235z" />
    <glyph glyph-name="Elcyrillic" unicode="&#x41b;" horiz-adv-x="1434" 
d="M83 156q45 0 90.5 29.5t92 99.5t98.5 262l243 896h881l-307 -1443h-184l272 1281h-530l-203 -741q-76 -279 -184 -414t-304 -135q-44 0 -68 10l34 161q24 -6 69 -6z" />
    <glyph glyph-name="Emcyrillic" unicode="&#x41c;" horiz-adv-x="1812" 
d="M133 0l307 1443h200l242 -1194h16l746 1194h222l-307 -1443h-172l234 1102h-12l-685 -1092h-152l-221 1092h-12l-234 -1102h-172z" />
    <glyph glyph-name="Encyrillic" unicode="&#x41d;" horiz-adv-x="1542" 
d="M1104 0l140 657h-788l-140 -657h-183l307 1443h184l-133 -624h788l133 624h184l-307 -1443h-185z" />
    <glyph glyph-name="Ocyrillic" unicode="&#x41e;" horiz-adv-x="1599" 
d="M1384 834q0 229 -112.5 352.5t-293.5 123.5q-123 0 -229 -55.5t-227 -210.5t-121 -465q0 -200 113.5 -323t296.5 -123q248 0 367.5 152t162.5 286t43 263zM211 563q0 394 222 654t566 260q119 0 226 -45t228 -169t121 -383q0 -397 -220 -655.5t-564 -258.5
q-120 0 -227.5 45t-229.5 169.5t-122 382.5z" />
    <glyph glyph-name="Pecyrillic" unicode="&#x41f;" horiz-adv-x="1517" 
d="M1084 0l272 1279h-768l-272 -1279h-183l307 1443h1131l-307 -1443h-180z" />
    <glyph glyph-name="Ercyrillic" unicode="&#x420;" horiz-adv-x="1320" 
d="M774 675q181 0 289.5 95t108.5 267q0 116 -77.5 181t-211.5 65h-294l-130 -608h315zM946 1443q176 0 295 -107.5t119 -282.5q0 -247 -163.5 -392.5t-411.5 -145.5h-360l-109 -515h-184l307 1443h507z" />
    <glyph glyph-name="Escyrillic" unicode="&#x421;" horiz-adv-x="1486" 
d="M214 485.5q0 199.5 26 319.5t98.5 275.5t246.5 276t400 120.5t380.5 -138t154.5 -347h-183q-12 148 -114 233t-241 85q-258 0 -419.5 -213t-161.5 -526q0 -203 106 -322.5t287 -119.5q227 0 308 95.5t101 151.5h190q-54 -193 -218.5 -303.5t-404.5 -110.5
q-248 0 -402 162t-154 361.5z" />
    <glyph glyph-name="Tecyrillic" unicode="&#x422;" horiz-adv-x="1319" 
d="M504 0l272 1281h-463l34 162h1110l-34 -162h-463l-272 -1281h-184z" />
    <glyph glyph-name="Ucyrillic" unicode="&#x423;" horiz-adv-x="1333" 
d="M324 157q143 0 254 151l-251 1135h189l189 -929h16l574 929h205l-687 -1071q-131 -203 -248 -292.5t-295 -89.5q-56 0 -77 13l34 162q33 -8 97 -8z" />
    <glyph glyph-name="Efcyrillic" unicode="&#x424;" horiz-adv-x="1700" 
d="M1500 808q0 169 -99 258t-275 95l-185 -869q242 10 358.5 121t158.5 206.5t42 188.5zM389 645q0 -169 99 -258t275 -95l185 869q-243 -10 -359 -121.5t-158 -206.5t-42 -188zM206 617q0 297 220 496.5t556 208.5l30 141h178l-30 -141q241 -10 382 -141.5t141 -350.5
q0 -290 -179 -453.5t-332 -203t-265 -42.5l-32 -151h-178l32 151q-241 10 -382 141.5t-141 344.5z" />
    <glyph glyph-name="Xacyrillic" unicode="&#x425;" horiz-adv-x="1410" 
d="M696 752l-323 691h206l249 -574h16l508 574h205l-649 -727l332 -716h-194l-268 586h-16l-517 -586h-204z" />
    <glyph glyph-name="Tsecyrillic" unicode="&#x426;" horiz-adv-x="1575" 
d="M1217 -285l61 285h-1146l309 1443h180l-272 -1279h768l272 1279h183l-273 -1281h180l-95 -447h-167z" />
    <glyph glyph-name="Checyrillic" unicode="&#x427;" horiz-adv-x="1419" 
d="M1115 680q-170 -144 -403 -144q-232 0 -345 154t-64 388l78 365h180l-78 -365q-35 -165 32.5 -270.5t234.5 -105.5q209 0 305.5 86.5t125.5 129.5l112 525h180l-307 -1443h-180l145 680h-16z" />
    <glyph glyph-name="Shacyrillic" unicode="&#x428;" horiz-adv-x="1974" 
d="M440 1443h184l-273 -1281h518l273 1281h184l-273 -1281h518l273 1281h184l-307 -1443h-1588z" />
    <glyph glyph-name="Shchacyrillic" unicode="&#x429;" horiz-adv-x="2032" 
d="M1674 -285l61 285h-1601l307 1443h184l-273 -1281h518l273 1281h184l-273 -1281h518l273 1281h184l-273 -1281h180l-95 -447h-167z" />
    <glyph glyph-name="Hardsigncyrillic" unicode="&#x42a;" horiz-adv-x="1503" 
d="M884 160q161 0 271 97t110 233q0 208 -120.5 243t-189.5 35h-274l-130 -608h333zM992 928q205 0 333 -112.5t128 -306.5t-156 -351.5t-394 -157.5h-570l273 1281h-330l35 162h513l-110 -515h278z" />
    <glyph glyph-name="Yericyrillic" unicode="&#x42b;" horiz-adv-x="1760" 
d="M1323 0l307 1443h184l-307 -1443h-184zM792 928q205 0 333 -112.5t128 -306.5t-156 -351.5t-394 -157.5h-570l307 1443h184l-110 -515h278zM684 160q161 0 271 97t110 233q0 208 -120.5 243t-189.5 35h-274l-130 -608h333z" />
    <glyph glyph-name="Softsigncyrillic" unicode="&#x42c;" horiz-adv-x="1303" 
d="M792 928q205 0 333 -112.5t128 -306.5t-156 -351.5t-394 -157.5h-570l307 1443h184l-110 -515h278zM684 160q161 0 271 97t110 233q0 208 -120.5 243t-189.5 35h-274l-130 -608h333z" />
    <glyph glyph-name="Ereversedcyrillic" unicode="&#x42d;" horiz-adv-x="1475" 
d="M698 -34q-228 0 -377 121t-163 315h185q18 -124 114.5 -197t217.5 -73q219 0 365 144t199 381h-650l34 162h640q18 229 -81.5 360.5t-292.5 131.5q-230 0 -320.5 -119.5t-115.5 -183.5h-183q67 224 237 346.5t401 122.5q306 0 451.5 -222.5t61.5 -611.5
q-66 -308 -209 -442.5t-267 -184.5t-247 -50z" />
    <glyph glyph-name="IUcyrillic" unicode="&#x42e;" horiz-adv-x="2096" 
d="M1485 1477q251 0 417 -166t166 -420q0 -376 -212 -650.5t-543 -274.5q-249 0 -415.5 160.5t-166.5 438.5q0 47 3 92h-278l-140 -657h-183l307 1443h184l-133 -624h267q65 292 210.5 426t266.5 183t250 49zM1881 868q0 202 -112.5 322t-285.5 120q-238 0 -401.5 -204.5
t-163.5 -511.5q0 -217 113 -339.5t286 -122.5q238 0 401 216t163 520z" />
    <glyph glyph-name="IAcyrillic" unicode="&#x42f;" horiz-adv-x="1359" 
d="M293 950q0 82 40 173t157 205.5t353 114.5h570l-307 -1443h-184l114 535h-263l-497 -535h-236l525 564q-272 93 -272 386zM862 1283q-160 0 -270.5 -94t-110.5 -226q0 -200 120.5 -234t189.5 -34h279l125 588h-333z" />
    <glyph glyph-name="acyrillic" unicode="&#x430;" horiz-adv-x="1146" 
d="M678 943q-186 0 -239 -135h-182q36 133 153 211t289 78t278.5 -82.5t106.5 -219.5q0 -43 -9 -88l-150 -707h-167l30 141h-16q-57 -75 -142 -117.5t-170 -42.5q-154 0 -249 85.5t-95 212.5q0 242 176.5 295t288.5 58l306 14l16 73q6 34 6 51q0 82 -61 127.5t-170 45.5z
M365.5 434.5q-72.5 -51.5 -72.5 -130.5t58.5 -126.5t156.5 -47.5q113 0 206 71t117 182l27 124l-287 -14q-133 -7 -205.5 -58.5z" />
    <glyph glyph-name="becyrillic" unicode="&#x431;" horiz-adv-x="1232" 
d="M403 878q132 179 334 179t317.5 -125.5t115.5 -318.5q0 -266 -150.5 -449t-419.5 -183q-195 0 -316 124.5t-121 323.5q-1 157 55 347t106.5 303t161.5 235.5t375 133.5l133 6q153 7 271 50l22 8l-32 -154q-81 -56 -287 -64l-135 -6q-264 -13 -339.5 -167.5t-106.5 -242.5
h16zM715 902q-171 0 -273 -131.5t-102 -330.5q0 -140 74.5 -222t215.5 -82t248.5 127.5t107.5 296.5q0 170 -70.5 256t-200.5 86z" />
    <glyph glyph-name="vecyrillic" unicode="&#x432;" horiz-adv-x="1123" 
d="M886 810q0 124 -160 124h-241l-65 -304h232q111 0 172.5 52t61.5 128zM601 144q171 0 207 75t36 119q0 80 -51.5 114t-152.5 34h-251l-72 -342h284zM755 1078q148 0 229.5 -65.5t81.5 -170.5t-64.5 -176t-170.5 -91l-3 -16q93 -13 145 -70t52 -135q0 -157 -121.5 -255.5
t-329.5 -98.5h-464l229 1078h416z" />
    <glyph glyph-name="gecyrillic" unicode="&#x433;" horiz-adv-x="935" 
d="M485 934l-199 -934h-176l229 1078h675l-30 -144h-499z" />
    <glyph glyph-name="decyrillic" unicode="&#x434;" horiz-adv-x="1267" 
d="M-86 -285l92 429h90q88 56 134.5 165t63.5 168l170 601h745l-198 -934h172l-92 -429h-162l61 285h-853l-61 -285h-162zM1003 934h-415l-132 -461q-64 -224 -153 -313l-3 -16h535z" />
    <glyph glyph-name="iecyrillic" unicode="&#x435;" horiz-adv-x="1190" 
d="M958 692q0 103 -64.5 178t-184.5 75t-209.5 -83t-128.5 -224h585q2 10 2 54zM167 432q0 296 156 480.5t405 184.5q173 0 291.5 -117t118.5 -319q0 -97 -13 -162h-777q-2 -29 -2 -83t46 -166t233 -112q188 0 262 137h183q-36 -131 -159 -212.5t-309 -81.5t-310.5 120.5
t-124.5 330.5z" />
    <glyph glyph-name="zhecyrillic" unicode="&#x436;" horiz-adv-x="1624" 
d="M1146 553l368 -553h-196l-327 494h-47l-105 -494h-173l105 494h-54l-502 -494h-222l596 585l-313 493h184l285 -454h54l96 454h173l-96 -454h48l483 454h217z" />
    <glyph glyph-name="zecyrillic" unicode="&#x437;" horiz-adv-x="1081" 
d="M203 753q57 160 183 252t296 92t263 -73.5t88 -207.5q-5 -133 -86.5 -180.5t-126.5 -56.5l-4 -16q84 -20 127 -76.5t41 -138.5q-5 -161 -136.5 -264t-312.5 -103t-295 97t-116 252h171q2 -86 69.5 -140.5t176.5 -54.5t183.5 57.5t77.5 140.5q4 83 -44.5 119t-159.5 36
h-163l34 144h163q146 0 182.5 63.5t37.5 99.5q6 148 -182 148q-212 0 -296 -190h-171z" />
    <glyph glyph-name="iicyrillic" unicode="&#x438;" horiz-adv-x="1247" 
d="M110 0l229 1078h174l-172 -806h16l713 806h176l-229 -1078h-174l172 808h-16l-712 -808h-177z" />
    <glyph glyph-name="iishortcyrillic" unicode="&#x439;" horiz-adv-x="1247" 
d="M810 1228q-158 0 -235.5 94t-47.5 234h150q-19 -85 20 -147.5t124 -62.5q87 0 150 61t82 149h156q-49 -230 -183 -279t-216 -49zM110 0l229 1078h174l-172 -806h16l713 806h176l-229 -1078h-174l172 808h-16l-712 -808h-177z" />
    <glyph glyph-name="kacyrillic" unicode="&#x43a;" horiz-adv-x="1081" 
d="M588 559l383 -559h-205l-333 491h-43l-104 -491h-176l229 1078h176l-96 -451h43l493 451h219z" />
    <glyph glyph-name="elcyrillic" unicode="&#x43b;" horiz-adv-x="1183" 
d="M76 152q73 0 128.5 78.5t102.5 246.5l170 601h705l-229 -1078h-176l199 934h-373l-132 -461q-78 -274 -169 -378t-251 -104q-36 0 -61 11l34 158q20 -8 52 -8z" />
    <glyph glyph-name="emcyrillic" unicode="&#x43c;" horiz-adv-x="1542" 
d="M110 0l229 1078h209l208 -836h16l565 836h204l-229 -1078h-176l163 767h-19l-498 -737h-134l-184 737h-19l-163 -767h-172z" />
    <glyph glyph-name="encyrillic" unicode="&#x43d;" horiz-adv-x="1222" 
d="M339 1078h176l-95 -446h530l95 446h176l-229 -1078h-176l104 488h-530l-104 -488h-176z" />
    <glyph glyph-name="ocyrillic" unicode="&#x43e;" horiz-adv-x="1230" 
d="M165 427q0 283 155.5 476.5t416.5 193.5q197 0 318 -124.5t121 -319.5q0 -273 -153 -472.5t-421 -199.5q-192 0 -314.5 124.5t-122.5 321.5zM348 468q0 -156 75 -244t213 -88t247 136t109 340q0 236 -104 283t-179 47t-144 -37.5t-117.5 -103.5t-74 -156.5t-25.5 -176.5z
" />
    <glyph glyph-name="pecyrillic" unicode="&#x43f;" horiz-adv-x="1212" 
d="M1005 934h-520l-199 -934h-176l229 1078h872l-229 -1078h-176z" />
    <glyph glyph-name="ercyrillic" unicode="&#x440;" horiz-adv-x="1263" 
d="M849 1097q66 0 136.5 -31.5t151.5 -119t81 -250.5q0 -311 -160 -513t-392 -202q-115 0 -204.5 60t-118.5 158h-16l-121 -559h-173l306 1438h166l-31 -147h16q127 166 359 166zM1038 654q0 137 -68 212.5t-191 75.5q-167 0 -282 -147t-115 -361q0 -137 73 -217.5
t207 -80.5q72 0 143 39.5t152 147t81 331.5z" />
    <glyph glyph-name="escyrillic" unicode="&#x441;" horiz-adv-x="1166" 
d="M613 136q198 0 290 189h186q-102 -243 -245 -293.5t-243 -50.5q-209 0 -320 129.5t-111 369.5t124.5 391t238 187.5t203.5 36.5q174 0 291 -106t128 -241h-175q-12 78 -84 135.5t-188 57.5q-70 0 -140.5 -38t-144.5 -135.5t-74 -288.5q0 -250 102 -296.5t162 -46.5z" />
    <glyph glyph-name="tecyrillic" unicode="&#x442;" horiz-adv-x="962" 
d="M1051 934h-343l-199 -934h-176l199 934h-343l30 144h862z" />
    <glyph glyph-name="ucyrillic" unicode="&#x443;" horiz-adv-x="1132" 
d="M282 -205q48 41 101 140l39 73l-175 1070h171l128 -857h16l472 857h189l-686 -1196q-90 -159 -172 -216.5t-197 -57.5q-38 0 -118 12l26 147q42 -13 100 -13t106 41z" />
    <glyph glyph-name="efcyrillic" unicode="&#x444;" horiz-adv-x="1553" 
d="M425 222.5q85 -86.5 232 -90.5l173 814q-227 -10 -358.5 -147t-131.5 -314q0 -176 85 -262.5zM1234 855.5q-85 86.5 -232 90.5l-173 -814q225 8 357.5 146t132.5 315q0 176 -85 262.5zM160 456q0 119 47 238t188 259t467 144l74 346h172l-74 -346q203 -8 334 -133
t131 -326q0 -280 -189 -467.5t-513 -189.5l-73 -341h-172l73 341q-202 8 -333.5 132t-131.5 343z" />
    <glyph glyph-name="hacyrillic" unicode="&#x445;" horiz-adv-x="1096" 
d="M572 405l-339 -405h-205l484 548l-258 530h188l179 -401h16l337 401h205l-481 -539l256 -539h-181l-185 405h-16z" />
    <glyph glyph-name="tsecyrillic" unicode="&#x446;" horiz-adv-x="1269" 
d="M931 -285l61 285h-882l229 1078h176l-199 -934h520l199 934h176l-199 -934h172l-91 -429h-162z" />
    <glyph glyph-name="checyrillic" unicode="&#x447;" horiz-adv-x="1137" 
d="M818 486q-136 -102 -292 -102t-238.5 110t-44.5 294l61 290h176l-63 -296q-53 -245 172 -245q168 0 285 136l86 405h176l-229 -1078h-176l103 486h-16z" />
    <glyph glyph-name="shacyrillic" unicode="&#x448;" horiz-adv-x="1672" 
d="M339 1078h177l-198 -934h401l198 934h176l-198 -934h402l198 934h176l-229 -1078h-1332z" />
    <glyph glyph-name="shchacyrillic" unicode="&#x449;" horiz-adv-x="1730" 
d="M1392 -285l61 285h-1343l229 1078h177l-198 -934h401l198 934h176l-198 -934h402l198 934h176l-198 -934h172l-91 -429h-162z" />
    <glyph glyph-name="hardsigncyrillic" unicode="&#x44a;" horiz-adv-x="1218" 
d="M687 144q128 0 207 80.5t79 195.5q0 78 -50.5 123t-141.5 45h-203l-94 -444h203zM812 732q156 0 246.5 -81t90.5 -211q0 -194 -136 -317t-357 -123h-379l198 934h-286l30 144h463l-73 -346h203z" />
    <glyph glyph-name="yericyrillic" unicode="&#x44b;" horiz-adv-x="1436" 
d="M641 732q156 0 246.5 -81t90.5 -211q0 -194 -136 -317t-357 -123h-375l229 1078h176l-73 -346h199zM516 144q128 0 207 80.5t79 195.5q0 78 -50.5 123t-141.5 45h-199l-94 -444h199zM1259 1078h176l-229 -1078h-176z" />
    <glyph glyph-name="softsigncyrillic" unicode="&#x44c;" horiz-adv-x="1047" 
d="M641 732q156 0 246.5 -81t90.5 -211q0 -194 -136 -317t-357 -123h-375l229 1078h176l-73 -346h199zM516 144q128 0 207 80.5t79 195.5q0 78 -50.5 123t-141.5 45h-199l-94 -444h199z" />
    <glyph glyph-name="ereversedcyrillic" unicode="&#x44d;" horiz-adv-x="1192" 
d="M692 1097q192 0 312.5 -121.5t120.5 -324.5q0 -284 -155 -477t-417 -193q-190 0 -297.5 99t-113.5 245h174q8 -82 74 -135.5t154 -53.5q159 0 256.5 94.5t128.5 254.5h-494l31 144h478q2 143 -71.5 228t-205.5 85q-198 0 -291 -194h-174q88 249 242 299t248 50z" />
    <glyph glyph-name="iucyrillic" unicode="&#x44e;" horiz-adv-x="1685" 
d="M1427 612q0 154 -71.5 242t-194.5 88q-168 0 -269 -142.5t-101 -359.5q0 -135 74 -219.5t205 -84.5q141 0 249 136t108 340zM610 394q0 64 2 94h-222l-104 -488h-176l229 1078h176l-95 -446h214q50 207 192 336t344 129q201 0 321 -124t120 -320q0 -273 -152 -472.5
t-417 -199.5q-190 0 -279.5 92t-121 174.5t-31.5 146.5z" />
    <glyph glyph-name="iacyrillic" unicode="&#x44f;" horiz-adv-x="1087" 
d="M224 679q0 174 129 286.5t358 112.5h379l-229 -1078h-176l82 386h-169l-356 -386h-222l392 420q-88 32 -138 102t-50 157zM681 934q-124 0 -202.5 -68t-78.5 -157t51 -134t144 -45h203l86 404h-203z" />
    <glyph glyph-name="iocyrillic" unicode="&#x451;" horiz-adv-x="1190" 
d="M979 1228q-25 0 -47 9.5t-38.5 26t-26 38.5t-9.5 47t9.5 47t26 38.5t38.5 26t47 9.5t47 -9.5t38.5 -26t26 -38.5t9.5 -47t-9.5 -47t-26 -38.5t-38.5 -26t-47 -9.5zM575 1228q-25 0 -47 9.5t-38.5 26t-26 38.5t-9.5 47t9.5 47t26 38.5t38.5 26t47 9.5t47 -9.5t38.5 -26
t26 -38.5t9.5 -47t-9.5 -47t-26 -38.5t-38.5 -26t-47 -9.5zM958 692q0 103 -64.5 178t-184.5 75t-209.5 -83t-128.5 -224h585q2 10 2 54zM167 432q0 296 156 480.5t405 184.5q173 0 291.5 -117t118.5 -319q0 -97 -13 -162h-777q-2 -29 -2 -83t46 -166t233 -112
q188 0 262 137h183q-36 -131 -159 -212.5t-309 -81.5t-310.5 120.5t-124.5 330.5z" />
    <glyph glyph-name="djecyrillic" unicode="&#x452;" horiz-adv-x="1268" 
d="M852 1097q137 0 234.5 -93t97.5 -250q0 -52 -12 -109l-160 -749q-33 -155 -106 -225t-216 -70h-105l37 162h55q129 0 163 152l150 708q34 174 -40 246.5t-180 72.5q-192 0 -256.5 -112t-81.5 -192l-136 -638h-176l275 1287h-147l26 124h148l20 95h173l-21 -95h236
l-26 -124h-236l-77 -355h16q102 128 192.5 146.5t152.5 18.5z" />
    <glyph glyph-name="gjecyrillic" unicode="&#x453;" horiz-adv-x="951" 
d="M887 1601h220l-350 -338h-194zM495 934l-199 -934h-176l229 1078h675l-30 -144h-499z" />
    <glyph glyph-name="ecyrillic" unicode="&#x454;" horiz-adv-x="1166" 
d="M612 136q198 0 291 189h186q-102 -243 -245 -293.5t-243 -50.5q-209 0 -320 129.5t-111 369.5t124.5 391t238 187.5t203.5 36.5q174 0 291 -106t128 -241h-175q-12 78 -84 135.5t-154 57.5q-149 0 -244.5 -85.5t-129.5 -223.5h497l-30 -144h-486q-6 -253 98.5 -302.5
t164.5 -49.5z" />
    <glyph glyph-name="dzecyrillic" unicode="&#x455;" horiz-adv-x="1072" 
d="M787 294q0 103 -135 146l-165 53q-250 81 -250 264q0 162 114.5 251t289.5 89q257 0 325.5 -114.5t79.5 -180.5h-171q-17 70 -80 109.5t-135 39.5q-121 0 -185.5 -44.5t-64.5 -105.5q0 -60 38.5 -96t112.5 -60l146 -47q201 -65 229 -151.5t28 -148.5t-32.5 -121.5
t-123 -127.5t-272.5 -68t-299 85.5t-129 222.5h177q20 -72 86.5 -117.5t143.5 -45.5q132 0 202 47.5t70 120.5z" />
    <glyph glyph-name="icyrillic" unicode="&#x456;" horiz-adv-x="536" 
d="M509 1297q-25 0 -46.5 9.5t-38 26t-26 38t-9.5 46.5t9.5 46.5t26 38t38 26t46.5 9.5t46.5 -9.5t38 -26t26 -38t9.5 -46.5t-9.5 -46.5t-26 -38t-38 -26t-46.5 -9.5zM351 1078h176l-231 -1078h-176z" />
    <glyph glyph-name="yicyrillic" unicode="&#x457;" horiz-adv-x="523" 
d="M716 1228q-25 0 -47 9.5t-38.5 26t-26 38.5t-9.5 47t9.5 47t26 38.5t38.5 26t47 9.5t47 -9.5t38.5 -26t26 -38.5t9.5 -47t-9.5 -47t-26 -38.5t-38.5 -26t-47 -9.5zM312 1228q-25 0 -47 9.5t-38.5 26t-26 38.5t-9.5 47t9.5 47t26 38.5t38.5 26t47 9.5t47 -9.5t38.5 -26
t26 -38.5t9.5 -47t-9.5 -47t-26 -38.5t-38.5 -26t-47 -9.5zM371 1078h172l-229 -1078h-172z" />
    <glyph glyph-name="jecyrillic" unicode="&#x458;" horiz-adv-x="536" 
d="M509 1297q-25 0 -46.5 9.5t-38 26t-26 38t-9.5 46.5t9.5 46.5t26 38t38 26t46.5 9.5t46.5 -9.5t38 -26t26 -38t9.5 -46.5t-9.5 -46.5t-26 -38t-38 -26t-46.5 -9.5zM105 -84l247 1162h172l-252 -1185q-47 -224 -160 -257.5t-169 -33.5t-97 4l33 152q24 -3 76 -3
q118 0 150 161z" />
    <glyph glyph-name="ljecyrillic" unicode="&#x459;" horiz-adv-x="1713" 
d="M1182 144q128 0 207 80.5t79 195.5q0 78 -50.5 123t-141.5 45h-198l-94 -444h198zM76 152q73 0 128.5 78.5t102.5 246.5l170 601h705l-74 -346h199q156 0 246.5 -81t90.5 -211q0 -194 -136 -317t-357 -123h-375l198 934h-371l-132 -461q-78 -274 -169 -378t-251 -104
q-36 0 -61 11l34 158q20 -8 52 -8z" />
    <glyph glyph-name="njecyrillic" unicode="&#x45a;" horiz-adv-x="1753" 
d="M1347 652q151 0 239 -77.5t88 -193.5q0 -165 -133.5 -273t-349.5 -108h-375l108 508h-530l-108 -508h-176l229 1078h176l-90 -426h530l90 426h176l-90 -426h216zM1222 144q121 0 198.5 63.5t77.5 142.5q0 158 -182 158h-216l-77 -364h199z" />
    <glyph glyph-name="tshecyrillic" unicode="&#x45b;" horiz-adv-x="1266" 
d="M839 1097q154 0 250 -96t96 -228q0 -56 -14 -124l-138 -649h-175l132 619q13 63 13 108q0 96 -64.5 155.5t-180.5 59.5t-206 -79.5t-117 -204.5l-140 -658h-175l275 1287h-147l26 124h148l20 95h175l-20 -95h233l-26 -124h-234l-80 -370h16q125 180 333 180z" />
    <glyph glyph-name="kjecyrillic" unicode="&#x45c;" horiz-adv-x="1081" 
d="M1174 1078l-586 -519l383 -559h-205l-333 491h-43l-104 -491h-176l229 1078h176l-96 -451h43l493 451h219zM825 1263h-194l324 338h220z" />
    <glyph glyph-name="ushortcyrillic" unicode="&#x45e;" horiz-adv-x="1132" 
d="M750 1228q-158 0 -235.5 94t-47.5 234h150q-19 -85 20 -147.5t124 -62.5q87 0 150 61t82 149h156q-49 -230 -183 -279t-216 -49zM282 -205q48 41 101 140l39 73l-175 1070h171l128 -857h16l472 857h189l-686 -1196q-90 -159 -172 -216.5t-197 -57.5q-38 0 -118 12l26 147
q42 -13 100 -13t106 41z" />
    <glyph glyph-name="dzhecyrillic" unicode="&#x45f;" horiz-adv-x="1212" 
d="M627 0l-61 -285h-162l61 285h-355l229 1078h176l-199 -934h520l199 934h176l-229 -1078h-355z" />
    <glyph glyph-name="Geupturncyrillic" unicode="&#x490;" horiz-adv-x="1168" 
d="M318 0h-185l307 1443h701l60 285h167l-95 -447h-683z" />
    <glyph glyph-name="geupturncyrillic" unicode="&#x491;" horiz-adv-x="935" 
d="M485 934l-199 -934h-176l229 1078h513l61 285h162l-91 -429h-499z" />
    <glyph glyph-name="baht" unicode="&#xe3f;" horiz-adv-x="1328" 
d="M1181 436q0 -78 -39.5 -162t-151 -179t-346.5 -95h-38l-30 -142h-134l30 142h-358l307 1443h358l33 157h134l-34 -159q155 -12 245.5 -97t90.5 -221t-86 -236t-226 -130l-4 -16q174 -35 211.5 -131t37.5 -174zM1061 1076q0 94 -44.5 141.5t-138.5 61.5l-97 -454
q134 16 207 86.5t73 164.5zM472 821h175l98 463h-175zM506 159l108 507h-175l-108 -507h175zM990 443q0 208 -243 222l-107 -506q150 0 250 81.5t100 202.5z" />
    <glyph glyph-name="Aringbelow" unicode="&#x1e00;" horiz-adv-x="1380" 
d="M566 -467q26 0 48.5 9.5t39 26t25.5 39t9 48.5t-9 48.5t-25.5 39t-39 26t-48.5 9.5t-48.5 -9.5t-39 -26t-25.5 -39t-9 -48.5t9 -48.5t25.5 -39t39 -26t48.5 -9.5zM566 -573q-48 0 -90.5 17.5t-74 48.5t-49.5 73t-18 90t18 90t49.5 73t74 48.5t90.5 17.5t90 -17.5
t73.5 -48.5t50 -73t18.5 -90t-18.5 -90t-50 -73t-73.5 -48.5t-90 -17.5zM522 566h473l-95 641h-16zM1015 413h-579l-232 -413h-193l845 1443h167l226 -1443h-176z" />
    <glyph glyph-name="aringbelow" unicode="&#x1e01;" horiz-adv-x="1126" 
d="M462 -467q26 0 48.5 9.5t39 26t25.5 39t9 48.5t-9 48.5t-25.5 39t-39 26t-48.5 9.5t-48.5 -9.5t-39 -26t-25.5 -39t-9 -48.5t9 -48.5t25.5 -39t39 -26t48.5 -9.5zM462 -573q-48 0 -90.5 17.5t-74 48.5t-49.5 73t-18 90t18 90t49.5 73t74 48.5t90.5 17.5t90 -17.5
t73.5 -48.5t50 -73t18.5 -90t-18.5 -90t-50 -73t-73.5 -48.5t-90 -17.5zM668 943q-186 0 -239 -135h-182q36 133 153 211t289 78t278.5 -82.5t106.5 -219.5q0 -43 -9 -88l-150 -707h-167l30 141h-16q-57 -75 -142 -117.5t-170 -42.5q-154 0 -249 85.5t-95 212.5
q0 242 176.5 295t288.5 58l306 14l16 73q6 34 6 51q0 82 -61 127.5t-170 45.5zM703.5 201q93.5 71 117.5 182l27 124l-287 -14q-133 -7 -205.5 -58.5t-72.5 -130.5t58 -126.5t163 -47.5q106 0 199.5 71z" />
    </font>
</defs>
</svg>
